<?xml version="1.0" encoding="utf-8"?>
<!-- Generator: Adobe Illustrator 16.0.0, SVG Export Plug-In . SVG Version: 6.00 Build 0)  -->
<!DOCTYPE svg PUBLIC "-//W3C//DTD SVG 1.1//EN" "http://www.w3.org/Graphics/SVG/1.1/DTD/svg11.dtd">
<svg version="1.1" id="Livello_1" xmlns="http://www.w3.org/2000/svg" xmlns:xlink="http://www.w3.org/1999/xlink" x="0px" y="0px"
	 width="455.885px" height="67.832px" viewBox="22.059 216.084 455.885 67.832"
	 enable-background="new 22.059 216.084 455.885 67.832" xml:space="preserve">
<g>
	<path d="M238.696,234.418c0,9.167-0.916,37.584-0.916,37.584c0,5.499,1.832,7.942,7.027,7.942v2.444h-20.472v-2.444
		c5.193,0,7.943-2.443,7.943-7.942l1.833-46.445c-1.527-3.668-3.056-4.89-7.026-5.193v-2.138h15.582l16.5,43.389l16.806-43.389
		h14.055v2.138c-3.972,0-6.109,1.834-6.109,6.111l1.834,44.917c0,6.723,1.222,8.555,6.724,8.555v2.443h-23.527v-2.443
		c4.581,0,6.724-1.527,6.415-8.555c0,0-0.918-31.473-1.222-36.972l-11.302,31.166c-1.697,4.391-3.127,8.881-4.28,13.444
		l-3.662,0.307c-0.919-3.361-3.362-9.471-3.362-9.471S242.055,243.279,238.696,234.418L238.696,234.418z M219.446,282.694
		c-1.222-0.306-2.443-0.306-3.668-0.306c-2.443,0-6.724,1.221-11.916,1.221c-19.862,0-34.528-11.916-34.528-33.916
		c0-18.637,13.751-32.998,34.832-32.998c4.887,0,10.389,0.918,14.972,2.75c0.916-0.918,1.222-1.528,2.138-2.443h1.834
		c-0.307,3.362-1.528,14.36-1.528,14.36h-1.834c-1.222-6.415-4.583-10.695-15.278-10.695c-12.832,0-24.442,10.083-24.442,28.723
		c0,21.084,11.917,30.248,25.055,30.248c8.558,0,13.751-4.887,17.112-10.998l2.141,0.918L219.446,282.694z M161.694,230.141h-2.137
		c-0.307-5.805-2.141-7.639-6.724-7.639h-8.861v47.973c0,7.942,1.528,9.47,6.724,9.47v2.444h-22.917v-2.444
		c5.195,0,6.723-1.527,6.723-9.778v-47.665h-8.86c-5.806,0-6.724,1.528-8.252,7.639h-2.137l1.527-13.75l1.528,0.306
		c0.609,1.528,1.834,1.528,5.499,1.528h29.639c5.502,0,6.724,0,7.945-1.834h1.834L161.694,230.141L161.694,230.141z"/>
	<path d="M96.918,283.916c-4.277,0-7.64-0.609-10.083-1.527c-2.443-0.61-4.277-1.528-5.193-2.138
		c-1.222,1.222-2.14,2.749-2.14,2.749l-1.834-0.609l1.527-14.359l2.141,0.306c1.222,6.721,5.805,11.61,15.278,11.61
		c7.333,0,12.223-6.109,12.223-12.832c0-5.5-2.14-8.252-9.474-13.751c-2.443-1.528-4.583-2.749-6.417-4.277
		c-6.721-4.275-11.001-9.165-11.001-17.11c0-9.167,7.64-15.278,17.722-15.278c5.806,0,9.474,1.834,10.695,2.444l2.137-2.444
		l1.528,0.306l-1.528,13.139l-2.137-0.306c0-6.109-3.668-8.861-9.779-8.861c-5.806,0-10.083,3.056-10.083,8.861
		c0,5.195,3.972,8.555,8.555,11.613c2.443,1.528,4.277,2.75,6.109,3.972c10.694,7.637,13.138,12.525,13.138,19.859
		C118.308,275.973,110.056,283.916,96.918,283.916L96.918,283.916z M62.086,230.141h-2.443c0-5.502-2.443-7.639-7.333-7.639H38.559
		v24.139h8.861c4.583,0,5.502-2.443,6.111-6.417h2.138v17.112h-2.138c-0.609-4.584-1.528-6.418-6.418-6.418h-8.555v20.475
		c0,7.637,1.834,8.555,6.724,8.555v2.443H22.059v-2.443c5.806,0,6.721-1.527,6.721-8.555v-44.92c0-4.277-1.834-6.111-6.721-6.111
		v-2.137h31.776c5.499,0,6.721-0.306,7.639-2.14h2.141L62.086,230.141z M391.778,233.806v36.666c0,7.942,1.828,9.47,6.718,9.47
		v2.444h-36.05v-2.444c2.752,0,5.192-0.918,5.192-2.749c0-1.224-0.304-3.362-0.918-5.502l-2.752-8.86h-20.163
		c-0.309,1.225-3.972,11.305-3.972,14.057c0,2.443,2.753,3.055,4.581,3.055v2.444h-16.806v-2.444c3.056,0,5.501-0.306,7.639-6.721
		l15.585-49.806c-0.919-2.137-2.138-2.75-4.275-3.056v-2.137h13.751l16.495,52.25c1.53,5.499,3.056,8.251,5.501,9.47
		c3.668-1.221,4.587-2.443,4.587-9.47v-43.999c-2.753-3.667-3.062-6.111-8.254-6.111v-2.137h15.584l25.667,43.692v-33.303
		c0-6.724-1.525-8.251-6.724-8.251v-2.137h34.223v2.137c-2.138,0-3.972,0.918-3.972,3.056c0,1.528,0.612,3.056,1.222,4.89
		l9.779,21.084l9.473-20.472c1.525-2.75,1.834-4.277,1.834-5.805c0-1.834-1.227-2.752-3.971-2.752v-2.137h16.191v2.137
		c-3.972,0-6.42,3.668-8.249,7.943l-12.528,25.667v16.807c0,7.336,1.833,9.168,6.723,9.168v2.443h-23.224v-2.443
		c4.89,0,6.724-1.832,6.724-9.168v-14.359l-13.447-28.417c-2.44-5.5-3.358-6.721-4.889-7.64c-3.057,1.222-3.972,3.362-3.972,8.251
		v47.054c0,0,0.309,3.668,0.612,7.942l-3.972,0.307L391.778,233.806L391.778,233.806z M353.584,230.75l-8.558,27.807h17.722
		L353.584,230.75z"/>
	<path d="M315.692,258.558h-4.581v13.136c0,6.724,1.829,8.251,7.027,8.251v2.444h-23.527v-2.444c4.89,0,6.724-1.831,6.724-8.555
		v-43.083c0-6.721-1.834-7.942-6.724-7.942v-2.138h17.722c17.11,0,27.19,5.193,27.19,19.247
		C339.525,252.141,327.305,258.558,315.692,258.558z M312.636,222.501h-1.525v31.469h2.747c10.088,0,15.281-4.583,15.281-16.193
		S324.553,222.501,312.636,222.501z M209.055,270.166c-11.611,0-19.557-8.252-19.557-20.166c0-11.305,8.252-20.166,19.557-20.166
		c11,0,19.249,8.555,19.249,20.166C228.307,261.305,219.749,270.166,209.055,270.166z M209.055,233.5
		c-7.943,0-10.695,7.639-10.695,16.5c0,8.252,2.446,16.5,10.695,16.5c7.944,0,10.389-8.251,10.389-16.806
		C219.446,241.445,216.39,233.5,209.055,233.5z M74.615,266.5v-2.14c3.056,0,3.667-0.916,3.667-1.831
		c0-1.225-0.306-2.141-0.611-3.057c0,0-0.612-2.445-1.223-4.277H64.532l-1.222,3.972c-0.304,0.919-0.609,1.834-0.609,3.056
		c0,1.225,1.222,2.138,3.056,2.138v2.14H53.84v-2.14c3.056,0,4.277-0.916,5.499-4.274l9.167-27.502
		c-0.306-1.224-1.225-2.14-3.056-2.14v-2.14h9.774c3.334,9.788,6.695,19.566,10.082,29.334c1.528,5.193,3.056,6.722,5.5,6.722v2.14
		H74.615z M70.335,236.862l-4.584,14.972h9.474L70.335,236.862z"/>
</g>
</svg>
