<svg width="160" height="60" xmlns="http://www.w3.org/2000/svg"><title>Artboard 2</title><g id="HOME" fill="none" fill-rule="evenodd"><g id="Artboard-2" fill-rule="nonzero" fill="#0E2240"><g id="Volata_home_highsnobiety" transform="translate(1 24)"><g id="Layer_1"><g id="HOME"><g id="Artboard"><g id="Highsnobiety"><g id="Layer_1"><g id="Group"><path d="M10.24 11.655H8.487v-.388c.488-.096.683-.484.683-.872V6.132H2.833v4.263c0 .291.195.679.683.872v.388H.006v-.388c.488-.096.683-.581.683-.872V1.578c0-.291-.195-.679-.682-.873V.318h3.509v.387c-.488.194-.683.582-.683.873v3.585h6.433V1.578c0-.388-.195-.679-.682-.873V.318h3.411v.387c-.487.194-.682.582-.682.873v8.817c0 .291.195.679.682.872v.388c-.39.097-1.462 0-1.754 0zm8.383 0h-2.047v-.388c.682-.193.975-.387.975-.872V1.578c0-.388-.195-.679-.975-.873V.318h3.996v.387C19.89.9 19.5 1.19 19.5 1.578v8.817c0 .388.195.679 1.072.872v.388c-.292.097-1.754 0-1.95 0zm16.764-3.876v3.488s-.585.097-1.56.291c-.487.194-1.754.29-2.826.29-3.801 0-6.628-2.131-6.628-5.91 0-3.585 2.73-5.814 6.53-5.814 1.073 0 1.755.194 2.632.388.487.097.682.097.975.097l.097 2.131h-.39c-.585-1.066-1.95-1.647-3.216-1.647-2.632 0-4.484 2.132-4.484 4.748 0 3.004 1.755 5.233 4.679 5.233.877 0 1.852-.485 2.144-.679V7.78c0-.29-.097-.678-1.072-.872v-.485h3.509v.388c-.195.194-.39.678-.39.97zm15.204 3.876h-1.754v-.388c.487-.096.682-.484.682-.872V6.132h-6.432v4.263c0 .291.195.679.682.872v.388H40.26v-.388c.487-.096.682-.581.682-.872V1.578c0-.291-.195-.679-.682-.873V.318h3.509v.387c-.487.194-.682.582-.682.873v3.585h6.335V1.578c0-.388-.195-.679-.682-.873V.318h3.41v.387c-.486.194-.681.582-.681.873v8.817c0 .291.195.679.682.872v.388c-.195.097-1.365 0-1.56 0zm9.552.29c-1.072 0-2.144-.193-3.314-.58l-.097-2.132h.487c.195.58.585 1.065.975 1.26.487.29 1.267.484 1.95.484 1.266 0 2.338-.485 2.338-1.648 0-.58-.195-1.162-.682-1.453-1.072-.678-2.34-1.066-3.509-1.647-1.072-.485-1.852-1.26-1.852-2.907 0-2.326 2.047-3.295 4.289-3.295.975 0 1.95.194 3.119.194l.097 2.326h-.39C63.164 1.48 61.897.899 60.728.899c-1.267 0-2.242.679-2.242 1.744 0 .776.39 1.357 1.072 1.648 1.072.581 2.534 1.066 3.607 1.647.877.484 1.267 1.163 1.267 2.326-.195 2.422-1.95 3.682-4.289 3.682zM79.831 1.579v10.27h-.585s-1.072-.774-1.56-1.259l-6.724-7.655v7.461c0 .485.195.679.974.872v.388h-3.118v-.388c.682-.193 1.072-.387 1.072-.872V1.771c0-.581-.195-1.066-.683-1.162V.318h1.95l7.602 8.624V1.674c0-.387-.195-.678-.975-.872V.318h3.12v.387c-.878.194-1.073.388-1.073.873zm10.332 10.368c-3.704 0-6.043-2.713-6.043-5.814S86.459.22 90.163.22c3.606 0 6.042 2.81 6.042 5.91 0 3.102-2.436 5.815-6.042 5.815zm0-10.95c-2.73 0-3.9 2.52-3.9 4.942 0 2.616 1.17 4.942 3.9 4.942 2.729 0 3.898-2.326 3.898-4.942-.097-2.52-1.17-4.942-3.898-4.942zm13.45 10.756c-.585 0-1.95-.097-2.534-.097h-1.852v-.388c.585-.096.877-.581.877-1.065V1.48c0-.291-.195-.679-.877-.872V.22h1.852c.487 0 1.462-.097 2.144-.097 2.144 0 4.094.678 4.094 3.004 0 1.163-.683 2.132-1.755 2.616 1.462.485 2.34 1.647 2.34 3.004 0 2.229-2.242 3.004-4.29 3.004zM102.736.996c-.293 0-.39 0-.683.097v4.07h.683c1.462 0 2.241-.582 2.241-2.132.098-1.163-.682-2.035-2.241-2.035zm.584 5.136h-1.267v4.554c.293.097.683.097 1.17.097 1.657 0 2.534-.872 2.534-2.326 0-1.453-1.17-2.325-2.437-2.325zm11.014 5.523h-2.047v-.388c.683-.193.975-.387.975-.872V1.578c0-.388-.195-.679-.975-.873V.318h3.996v.387c-.682.194-.974.485-.974.873v8.817c0 .388.195.679.974.872v.388c-.39.097-1.657 0-1.949 0zm15.205.097c-1.072-.097-1.755-.097-3.022-.097h-5.36v-.388c.584-.096.877-.581.877-1.065V1.48c0-.291-.195-.679-.877-.872V.22h7.115c.195 0 .487 0 .682-.194h.39l-.098 2.229h-.39c-.194-.678-.877-1.163-1.754-1.163h-3.216v3.876h2.826c.488 0 .682-.194 1.072-.678h.488c-.098.29-.098.872-.098 1.162v1.163h-.39a1.199 1.199 0 0 0-1.072-.678h-2.826v4.457h3.119c1.072 0 1.754-.387 2.046-1.066l.488.097v2.326zm14.327-9.205h-.487c-.195-.873-.682-1.26-1.462-1.26h-2.34v9.108c0 .291.293.679 1.073.872v.485h-3.996v-.388c.682-.097 1.072-.581 1.072-.872V1.384h-2.34c-.682 0-1.169.484-1.461 1.26h-.39l-.098-2.326c.878.097 1.56.194 5.361.194 3.704 0 4.483-.097 5.166-.194l-.098 2.229zm12.476-.194l-2.632 3.973v3.972c0 .291.195.679.877.873v.387h-3.606v-.387c.682-.097.877-.582.877-.873V6.326l-3.021-4.458c-.39-.581-1.072-1.163-1.56-1.26v-.29h3.412v.387c-.195 0-.293.194-.293.291 0 .097.098.388.195.678l2.34 3.586 2.339-3.586c.195-.29.292-.581.292-.678 0-.097-.097-.194-.487-.29V.317h2.924v.387c-.585.291-1.17.873-1.657 1.648z" id="Shape"/></g></g></g></g></g></g></g></g></g></svg>