<svg xmlns="http://www.w3.org/2000/svg" viewBox="-713 984.2 300 49.8"><path d="M-658.7 1034v-5.6c1.3-.1 2.5-.1 3.6-.2 2.2-.2 2.7-.7 2.8-2.7.1-6.4 0-12.8 0-19.1 0-1.8-.9-2.5-2.6-2.4-1.4.1-2.7 0-4.3 0v-6.2h18.4c.2 1.3.3 2.7.5 4.4 2.9-2.6 5.8-4.5 9.5-4.7 2.8-.2 5.7-.4 8.5 0 5.4.7 8.7 4.7 8.8 10.3.1 4.7 0 9.4 0 14 0 7.3.5 6 6.4 6.6v5.6h-23.6v-5.6c5.1-.4 5.3-.5 5.4-5.3.1-4.4 0-8.9-.2-13.3-.2-3.7-2.6-5.8-6.3-5.7-4.4.1-8.1 3.3-8.4 8-.3 4.5-.1 9.1-.2 13.7 0 1.6.7 2.4 2.3 2.5 1.1.1 2.3.2 3.6.2v5.6c-8.1-.1-16.1-.1-24.2-.1m-54.3-36.4h17.7c.1 1.1.2 2 .2 3 0 6.7.1 13.4.1 20.1 0 2.8.7 5.5 3.5 6.6 3.1 1.2 6.2.5 8.6-1.8 1.2-1.2 2.4-3 2.5-4.6.3-5.4.1-10.8.1-16.6-2.1-.1-4.1-.2-6.2-.4v-6.1h18.1c.1.9.2 1.8.2 2.7v23.3c.1 3.9.5 4.4 4.4 4.5.5 0 1 .1 2 .1v5.6h-17.9v-4.4c-2.2 1.6-3.9 3-5.7 4.4h-15.3c-5.3-3.1-6.6-7.9-6.3-13.6.2-4.1.1-8.3 0-12.4 0-1.2-.3-2.5-.4-4h-5.6v-6.4m188.4 36.4c-1.9-1.7-3.9-3.2-4.5-5.9-1.3-5.4.9-9.9 6.1-11.8 2.9-1 6-1.4 9-2.1 2.3-.6 4.6-1 6.7-1.9 2.7-1 3.6-2.7 3.4-5.4-.2-2.4-1.5-4.1-4-4.8-3.6-1-7.3-1.1-10.7.4.7 1.6 1.6 2.9 1.8 4.4.4 2.9-1.7 5-4.7 5.2-3.2.3-5.8-1.5-6.2-4.2-.4-2.6.1-5 2.3-6.6 1.8-1.3 3.7-2.5 5.8-3.2 6.2-2 12.6-2 18.9-.6 6.1 1.3 8.7 4.9 8.7 11.1v14.7c0 1.1.2 2.3.5 3.4.2.6 1 1.3 1.5 1.2.5 0 1.3-.7 1.5-1.3.4-1 .4-2.1.5-3.1.1-.9.1-1.9.2-3h4.3c.9 4.8.3 9.3-2.9 13.3h-13.4c-1.1-1.4-2.3-2.9-3.1-4-2.2 1.4-4.3 2.7-6.4 4-5.1.2-10.2.2-15.3.2m21.1-17.7c-2 .7-3.6 1.2-5.1 1.8-2 .7-4 1.3-5.9 2.2-2.3 1.1-2.9 2.5-2.5 4.9.3 1.9 1.7 3.2 3.9 3.5 4 .7 7.7-1.6 8.7-5.6.6-2.1.6-4.4.9-6.8m63.1 17.7c-1.6-.9-3.2-1.6-4.7-2.7-7.3-5.3-8.6-11.9-7.2-20 1.2-7.3 7.5-13.2 15-14.2 3.4-.5 7.1-.5 10.4.1 8 1.5 13.1 7.9 13.8 16.2.1 1.2 0 2.3 0 3.9h-27.1c-1 5 1.6 10.4 5.8 11.3 5.6 1.2 9.9 1.1 13.3-7.3h7.4c-.7 5.4-3.9 8.7-7.7 11.5l-1.8 1.2h-17.2m15.8-22.5c-.1-6.4-3.8-9.1-7.7-8.9-4.8.2-7.3 2.8-7.9 8.9h15.6m-171.6 22.5c-1.7-1.2-3.6-2.2-5.2-3.6-6.4-5.6-7-12.9-5-20.5 2-7.4 7.3-11.5 14.7-12.9 5.6-1 11.3-.8 16.3 2.4 3.7 2.3 6.3 5.4 5.9 10.1-.2 2.9-2 5.2-4.6 5.8-3.1.8-6.6-.2-8.1-2.4-1.4-2.1-1-5 1-6.6.7-.6 1.6-1 2.4-1.5-3-3.2-9.1-3.2-12.5.1-5 4.8-4.8 17.4.3 22 5 4.5 12.6 2.3 14.4-4 .3-.9.6-1.8.9-2.8h6c.2 6.2-3 10.4-7.6 13.8-6.1.1-12.5.1-18.9.1m127.7-49.8v13.3h11.9v6.4h-11.6c-.1 1.1-.2 1.9-.2 2.7v15.6c0 1.3.3 2.5.4 3.8.1 1.3.8 2.2 2.1 2.4 1.4.3 2.7 0 3.4-1.2.7-1.4 1.2-2.9 1.5-4.4.3-1.4.2-2.9.3-4.6h5.5c.4 6 .5 11.7-4.9 15.8h-15.3c-3.6-3.4-5.1-7.5-4.9-12.5.2-4.7.1-9.4.1-14v-3.4h-6.5v-6.3c.4-.1.8-.1 1.2-.2 6.8-.4 9.5-5.4 10.2-10.3.2-1 .3-2.1.4-3.1h6.4m-98.9 49.8v-5.6c1.4-.1 2.7-.2 3.9-.3 1.7-.1 2.8-.9 2.8-2.8 0-2 .2-4 .2-6v-10.8c0-4.2-.3-4.4-4.6-4.5h-2.4v-6.2h18.4c.1 1.2.2 2.4.3 4.3.9-1 1.6-1.7 2.2-2.4 2.9-3.4 8.2-4.4 12.1-2.3 3.1 1.7 4.6 5.3 3.6 8.7-.9 3.3-3.8 4.9-7.5 4.2-2.8-.5-4.3-2.8-4-6.3.1-.6.2-1.2.3-2.1-3.8 1-5.9 3.5-6.2 6.7-.6 5.7-.6 11.4-.7 17.1 0 1.5 1.2 2.2 2.6 2.2 1.7.1 3.4 0 5.5 0v5.9c-8.6.2-17.6.2-26.5.2" fill="#333"/></svg>