<svg xmlns="http://www.w3.org/2000/svg" width="455.885" height="67.832" viewBox="22.059 216.084 455.885 67.832"><path d="M238.696 234.418c0 9.167-.916 37.584-.916 37.584 0 5.499 1.832 7.942 7.027 7.942v2.444h-20.472v-2.444c5.193 0 7.943-2.443 7.943-7.942l1.833-46.445c-1.527-3.668-3.056-4.89-7.026-5.193v-2.138h15.582l16.5 43.389 16.806-43.389h14.055v2.138c-3.972 0-6.109 1.834-6.109 6.111l1.834 44.917c0 6.723 1.222 8.555 6.724 8.555v2.443H268.95v-2.443c4.581 0 6.724-1.527 6.415-8.555 0 0-.918-31.473-1.222-36.972l-11.302 31.166a116.405 116.405 0 0 0-4.28 13.444l-3.662.307c-.919-3.361-3.362-9.471-3.362-9.471s-9.482-26.587-12.841-35.448zm-19.25 48.276c-1.222-.306-2.443-.306-3.668-.306-2.443 0-6.724 1.221-11.916 1.221-19.862 0-34.528-11.916-34.528-33.916 0-18.637 13.751-32.998 34.832-32.998 4.887 0 10.389.918 14.972 2.75.916-.918 1.222-1.528 2.138-2.443h1.834c-.307 3.362-1.528 14.36-1.528 14.36h-1.834c-1.222-6.415-4.583-10.695-15.278-10.695-12.832 0-24.442 10.083-24.442 28.723 0 21.084 11.917 30.248 25.055 30.248 8.558 0 13.751-4.887 17.112-10.998l2.141.918-4.89 13.136zm-57.752-52.553h-2.137c-.307-5.805-2.141-7.639-6.724-7.639h-8.861v47.973c0 7.942 1.528 9.47 6.724 9.47v2.444h-22.917v-2.444c5.195 0 6.723-1.527 6.723-9.778v-47.665h-8.86c-5.806 0-6.724 1.528-8.252 7.639h-2.137l1.527-13.75 1.528.306c.609 1.528 1.834 1.528 5.499 1.528h29.639c5.502 0 6.724 0 7.945-1.834h1.834l-1.531 13.75z"/><path d="M96.918 283.916c-4.277 0-7.64-.609-10.083-1.527-2.443-.61-4.277-1.528-5.193-2.138-1.222 1.222-2.14 2.749-2.14 2.749l-1.834-.609 1.527-14.359 2.141.306c1.222 6.721 5.805 11.61 15.278 11.61 7.333 0 12.223-6.109 12.223-12.832 0-5.5-2.14-8.252-9.474-13.751-2.443-1.528-4.583-2.749-6.417-4.277-6.721-4.275-11.001-9.165-11.001-17.11 0-9.167 7.64-15.278 17.722-15.278 5.806 0 9.474 1.834 10.695 2.444l2.137-2.444 1.528.306-1.528 13.139-2.137-.306c0-6.109-3.668-8.861-9.779-8.861-5.806 0-10.083 3.056-10.083 8.861 0 5.195 3.972 8.555 8.555 11.613a230.2 230.2 0 0 1 6.109 3.972c10.694 7.637 13.138 12.525 13.138 19.859.006 10.69-8.246 18.633-21.384 18.633zm-34.832-53.775h-2.443c0-5.502-2.443-7.639-7.333-7.639H38.559v24.139h8.861c4.583 0 5.502-2.443 6.111-6.417h2.138v17.112h-2.138c-.609-4.584-1.528-6.418-6.418-6.418h-8.555v20.475c0 7.637 1.834 8.555 6.724 8.555v2.443H22.059v-2.443c5.806 0 6.721-1.527 6.721-8.555v-44.92c0-4.277-1.834-6.111-6.721-6.111v-2.137h31.776c5.499 0 6.721-.306 7.639-2.14h2.141l-1.529 14.056zm329.692 3.665v36.666c0 7.942 1.828 9.47 6.718 9.47v2.444h-36.05v-2.444c2.752 0 5.192-.918 5.192-2.749 0-1.224-.304-3.362-.918-5.502l-2.752-8.86h-20.163c-.309 1.225-3.972 11.305-3.972 14.057 0 2.443 2.753 3.055 4.581 3.055v2.444h-16.806v-2.444c3.056 0 5.501-.306 7.639-6.721l15.585-49.806c-.919-2.137-2.138-2.75-4.275-3.056v-2.137h13.751l16.495 52.25c1.53 5.499 3.056 8.251 5.501 9.47 3.668-1.221 4.587-2.443 4.587-9.47v-43.999c-2.753-3.667-3.062-6.111-8.254-6.111v-2.137h15.584l25.667 43.692v-33.303c0-6.724-1.525-8.251-6.724-8.251v-2.137h34.223v2.137c-2.138 0-3.972.918-3.972 3.056 0 1.528.612 3.056 1.222 4.89l9.779 21.084 9.473-20.472c1.525-2.75 1.834-4.277 1.834-5.805 0-1.834-1.227-2.752-3.971-2.752v-2.137h16.191v2.137c-3.972 0-6.42 3.668-8.249 7.943l-12.528 25.667v16.807c0 7.336 1.833 9.168 6.723 9.168v2.443h-23.224v-2.443c4.89 0 6.724-1.832 6.724-9.168v-14.359l-13.447-28.417c-2.44-5.5-3.358-6.721-4.889-7.64-3.057 1.222-3.972 3.362-3.972 8.251v47.054s.309 3.668.612 7.942l-3.972.307-29.943-50.114zm-38.194-3.056l-8.558 27.807h17.722l-9.164-27.807z"/><path d="M315.692 258.558h-4.581v13.136c0 6.724 1.829 8.251 7.027 8.251v2.444h-23.527v-2.444c4.89 0 6.724-1.831 6.724-8.555v-43.083c0-6.721-1.834-7.942-6.724-7.942v-2.138h17.722c17.11 0 27.19 5.193 27.19 19.247.002 14.667-12.218 21.084-23.831 21.084zm-3.056-36.057h-1.525v31.469h2.747c10.088 0 15.281-4.583 15.281-16.193s-4.586-15.276-16.503-15.276zm-103.581 47.665c-11.611 0-19.557-8.252-19.557-20.166 0-11.305 8.252-20.166 19.557-20.166 11 0 19.249 8.555 19.249 20.166.003 11.305-8.555 20.166-19.249 20.166zm0-36.666c-7.943 0-10.695 7.639-10.695 16.5 0 8.252 2.446 16.5 10.695 16.5 7.944 0 10.389-8.251 10.389-16.806.002-8.249-3.054-16.194-10.389-16.194zm-134.44 33v-2.14c3.056 0 3.667-.916 3.667-1.831 0-1.225-.306-2.141-.611-3.057 0 0-.612-2.445-1.223-4.277H64.532l-1.222 3.972c-.304.919-.609 1.834-.609 3.056 0 1.225 1.222 2.138 3.056 2.138v2.14H53.84v-2.14c3.056 0 4.277-.916 5.499-4.274l9.167-27.502c-.306-1.224-1.225-2.14-3.056-2.14v-2.14h9.774a5663.975 5663.975 0 0 0 10.082 29.334c1.528 5.193 3.056 6.722 5.5 6.722v2.14H74.615zm-4.28-29.638l-4.584 14.972h9.474l-4.89-14.972z"/></svg>