<svg xmlns="http://www.w3.org/2000/svg" viewBox="0 0 170.2 24"><path fill="#0A9600" d="M64 9.4V20h-3.9V9.4h-3.9V6h11.7v3.4H64zm13 6.4h-6.2c.1 1.2.8 1.7 1.8 1.7.9 0 1.7-.2 2.7-.7l1.4 2.3c-1.3.8-2.6 1.2-4.3 1.2-3.2 0-4.9-2.2-4.9-5.5 0-3.6 2-5.5 4.8-5.5 2.9 0 4.7 1.9 4.7 5.8v.7zm-4.8-3.9c-.8 0-1.3.6-1.4 1.6h3c-.2-1-.5-1.6-1.6-1.6zm11.5 8.3c-3.1 0-4.9-2-4.9-5.5 0-3.2 1.6-5.4 5-5.4 2 0 3.1.9 4 2.4l-2.5 1.9c-.5-.9-.8-1.4-1.6-1.4-.9 0-1.4.9-1.4 2.6 0 1.7.5 2.5 1.5 2.5.7 0 1.2-.4 1.8-1.4l2.3 1.8c-1.2 1.8-2.4 2.5-4.2 2.5zm12.2-.2v-6c0-1.4-.5-1.7-1.2-1.7-.8 0-1.2.4-1.2 1.7v6h-3.6V6.9l3.6-1.4v4.8c.7-.5 1.4-.9 2.6-.9 2.3 0 3.4 1.5 3.4 4.3V20h-3.6z"/><path d="M108.2 20.2c-4.2 0-6.4-3.1-6.4-7.2 0-4.5 2.6-7.2 6.4-7.2 3.4 0 4.8 1.5 5.8 4.1l-3.5 1.4c-.5-1.3-1-2.1-2.3-2.1-1.6 0-2.3 1.6-2.3 3.8 0 2.1.7 3.8 2.4 3.8 1.2 0 1.7-.7 2.5-2l3.3 1.7c-1 1.9-2.6 3.7-5.9 3.7zm14.7-6.7c-.5-.5-1-.9-1.7-.9-.9 0-1.4.4-1.4 1.7V20h-3.6V9.5h3.6v.8c.6-.6 1.3-1 2.2-1 .8 0 1.3.2 1.7.4l-.8 3.8zm8.5 6.5v-.7c-.6.5-1.4.9-2.6.9-2.3 0-3.4-1.5-3.4-4.3V9.5h3.6v6c0 1.4.5 1.7 1.2 1.7s1.2-.4 1.2-1.7v-6h3.6V20h-3.6zm12.3 0v-6c0-1.4-.5-1.7-1.2-1.7-.8 0-1.2.4-1.2 1.7v6h-3.6V9.5h3.6v.7c.7-.5 1.4-.9 2.6-.9 2.3 0 3.4 1.5 3.4 4.3V20h-3.6zm10.6.2c-3.1 0-4.9-2-4.9-5.5 0-3.2 1.6-5.4 5-5.4 2 0 3.1.9 4 2.4l-2.5 1.9c-.5-.9-.8-1.4-1.6-1.4-.9 0-1.4.9-1.4 2.6 0 1.7.5 2.5 1.5 2.5.7 0 1.2-.4 1.8-1.4l2.3 1.8c-1.2 1.8-2.3 2.5-4.2 2.5zm12.3-.2v-6c0-1.4-.5-1.7-1.2-1.7-.8 0-1.2.4-1.2 1.7v6h-3.6V6.9l3.6-1.4v4.8c.7-.5 1.4-.9 2.6-.9 2.3 0 3.4 1.5 3.4 4.3V20h-3.6z"/><path d="M0 0v8h8v16h8V8h8V0zm32 16V8h-8v16h24v-8zm0-16h16v8H32z" fill="#0A9600"/></svg>