<?xml version="1.0" encoding="utf-8"?>
<!-- Generator: Adobe Illustrator 16.0.0, SVG Export Plug-In . SVG Version: 6.00 Build 0)  -->
<!DOCTYPE svg PUBLIC "-//W3C//DTD SVG 1.1//EN" "http://www.w3.org/Graphics/SVG/1.1/DTD/svg11.dtd">
<svg version="1.1" id="Layer_1" xmlns="http://www.w3.org/2000/svg" xmlns:xlink="http://www.w3.org/1999/xlink" x="0px" y="0px"
	 width="605px" height="170px" viewBox="0 0 605 170" enable-background="new 0 0 605 170" xml:space="preserve">
<g>
	<g>
		<path fill="#DB2629" d="M301.324,70.773c0,1.498-1.762,2.566-3.271,2.566c-1.511,0-3.021-1.068-3.021-2.566V39.54
			c0-1.284,1.51-2.354,3.021-2.354c1.512,0,3.271,1.07,3.271,2.354V70.773z M190.903,65.638v-4.063
			c0-12.408-7.802-17.541-32.215-22.463c-7.299-1.498-10.067-2.994-10.067-7.486v-2.782c0-2.14,2.013-3.208,3.774-3.208
			c2.518,0,3.775,1.498,3.775,3.208v8.771h33.474v-5.348c0-14.548-7.802-22.248-39.011-22.248c-22.651,0-39.514,6.846-39.514,22.034
			v2.78c0,13.265,6.796,19.255,32.215,24.602c8.055,1.713,10.823,1.926,10.823,6.633v2.781c0,2.78-0.756,3.85-3.776,3.85
			c-3.522,0-3.774-1.924-3.774-4.063v-7.273H111.12v3.423c0,17.971,11.829,23.317,40.27,23.317
			C178.319,88.102,190.903,83.182,190.903,65.638z M425.084,85.318V67.775h-6.039c-3.525,0-4.279-0.854-4.279-2.779V44.459h10.066
			V25.206h-10.066v-8.56h-31.209v52.414c0,11.553,7.805,16.258,23.91,16.258H425.084L425.084,85.318z M332.281,66.064V44.245
			c0-15.189-14.852-20.109-34.229-20.109c-19.883,0-34.479,4.92-34.479,20.109v21.819c0,14.978,14.598,20.109,34.479,20.109
			C317.432,86.175,332.281,81.042,332.281,66.064z M493.006,66.708v-2.567c0-7.701-4.027-11.767-26.932-17.113
			c-6.291-1.498-9.063-2.141-9.063-4.92v-2.781c0-1.498,1.514-2.141,2.771-2.141c1.762,0,3.02,0.643,3.02,2.141v6.203h28.691v-4.707
			c0-12.621-13.086-16.687-31.963-16.687c-17.869,0-33.475,4.064-33.475,16.9v2.354c0,7.487,2.77,13.903,27.686,19.896
			c6.041,1.497,9.061,2.353,9.061,5.134v2.995c0,1.497-1.258,1.926-3.02,1.926c-1.258,0-2.771-0.644-2.771-2.14v-5.99h-30.955v3.209
			c0,12.408,8.559,17.971,33.727,17.971C479.162,86.389,493.006,82.753,493.006,66.708z M261.339,67.35V42.962
			c0-15.188-12.332-17.756-25.671-17.756h-42.534v70.383h31.208V85.318h9.815C247.246,85.318,261.339,82.322,261.339,67.35z
			 M47.868,158.695V73.552h-34.48v85.144H47.868z M588.609,158.695V82.538h-31.207v16.045H546.58
			c-11.578,0-25.924,3.637-25.924,17.543v24.813c0,13.905,12.836,17.756,24.412,17.756H588.609L588.609,158.695z M117.949,158.695
			V85.747h-31.46v72.948H117.949z M82.818,158.695V85.747H51.359v72.948H82.818z M449.748,158.695v-17.541h-5.535
			c-3.271,0-4.027-0.854-4.027-2.567v-21.179h9.563V98.583h-9.563v-8.558h-31.209v52.199c0,11.979,7.803,16.471,23.91,16.471
			H449.748z M300.066,158.695v-17.541h-5.789c-3.021,0-4.027-0.854-4.027-2.567v-21.179h9.816V98.583h-9.816v-8.558h-31.208v52.199
			c0,11.979,7.802,16.471,23.91,16.471H300.066z M518.676,139.443v-4.278h-31.209v8.983c0,1.498-1.258,2.141-3.02,2.141
			c-1.51,0-3.021-0.643-3.021-2.141v-11.553h37.248v-14.76c0-14.975-14.598-20.323-34.229-20.323s-33.979,4.921-33.979,20.109
			v21.392c0,15.404,14.348,20.538,33.979,20.538S518.676,154.847,518.676,139.443z M189.392,158.695V98.583h-31.208v46.637h-3.271
			c-2.014,0-2.518-0.854-2.518-2.567V98.585h-31.208v42.356c0,11.768,9.312,17.756,24.413,17.756h43.792V158.695L189.392,158.695z
			 M257.816,140.3v-2.567c0-7.701-4.026-11.767-26.932-17.112c-6.292-1.498-9.061-2.14-9.061-4.923v-2.778
			c0-1.498,1.511-2.142,2.769-2.142c1.764,0,3.021,0.644,3.021,2.142v6.203h29.698v-4.92c0-12.621-13.845-16.474-32.721-16.474
			c-17.869,0-33.725,3.853-33.725,16.688v2.564c0,7.488,2.517,13.906,27.433,19.896c6.04,1.498,9.063,2.354,9.063,5.135v2.995
			c0,1.497-1.258,1.925-3.021,1.925c-1.258,0-2.768-0.642-2.768-2.139v-5.99h-30.957v3.209c0,12.408,8.558,17.971,33.725,17.971
			C243.722,159.982,257.816,156.344,257.816,140.3z M230.383,70.13c0,1.284-1.511,2.567-3.521,2.567h-2.52v-34.87h2.52
			c2.013,0,3.521,1.282,3.521,2.565V70.13z M487.719,119.334h-6.291v-7.061c0-1.496,1.51-2.565,3.021-2.565
			c2.014,0,3.271,1.069,3.271,2.565L487.719,119.334L487.719,119.334z M557.402,146.075h-2.268c-2.518,0-3.271-0.855-3.271-2.354
			v-30.164c0-1.068,0.754-2.354,3.271-2.354h2.268V146.075z M381.576,24.35c-4.279,0-12.332,1.498-15.604,7.488v-6.632h-31.209
			v60.112h31.209V53.443c0-4.92,3.523-7.916,9.564-7.916h6.039L381.576,24.35L381.576,24.35z M406.492,158.695V116.98
			c0-11.979-5.285-19.469-31.207-19.469h-20.387c-11.074,0-17.869,4.278-21.395,11.124V98.581h-31.208v60.112h31.46v-32.729
			c0-4.92,3.775-7.916,9.563-7.916h25.924v-8.557h2.77c2.016,0,3.271,1.069,3.271,2.78v7.914h-12.082
			c-11.576,0-26.426,3.637-26.426,17.543v3.209c0,13.905,13.34,17.756,24.916,17.756h44.8V158.695z M375.285,145.648h-2.014
			c-3.523,0-4.027-0.854-4.027-2.565v-7.272c0-2.142,1.258-3.425,4.279-3.425h1.762V145.648L375.285,145.648z"/>
		<g>
			<path fill="#DB2629" d="M596.551,82.495c1.973,0,3.621,1.555,3.621,3.592c0,2.076-1.65,3.631-3.621,3.631
				c-1.979,0-3.639-1.555-3.639-3.631C592.912,84.05,594.572,82.495,596.551,82.495z M596.551,89.188
				c1.672,0,2.965-1.334,2.965-3.101c0-1.729-1.293-3.062-2.965-3.062c-1.688,0-2.98,1.332-2.98,3.062
				C593.568,87.854,594.861,89.188,596.551,89.188z M595.143,83.99h1.633c1.004,0,1.477,0.396,1.477,1.207
				c0,0.764-0.482,1.082-1.109,1.148l1.207,1.864h-0.705l-1.146-1.815h-0.695v1.815h-0.656v-4.219L595.143,83.99L595.143,83.99z
				 M595.799,85.863h0.688c0.577,0,1.107-0.028,1.107-0.694c0-0.56-0.48-0.646-0.926-0.646h-0.869V85.863L595.799,85.863z"/>
		</g>
	</g>
</g>
</svg>
