<svg id="Layer_1" xmlns="http://www.w3.org/2000/svg" width="605" height="170"><path fill="#DB2629" d="M301.324 70.773c0 1.498-1.762 2.566-3.271 2.566-1.511 0-3.021-1.068-3.021-2.566V39.54c0-1.284 1.51-2.354 3.021-2.354 1.512 0 3.271 1.07 3.271 2.354v31.233zm-110.421-5.135v-4.063c0-12.408-7.802-17.541-32.215-22.463-7.299-1.498-10.067-2.994-10.067-7.486v-2.782c0-2.14 2.013-3.208 3.774-3.208 2.518 0 3.775 1.498 3.775 3.208v8.771h33.474v-5.348c0-14.548-7.802-22.248-39.011-22.248-22.651 0-39.514 6.846-39.514 22.034v2.78c0 13.265 6.796 19.255 32.215 24.602 8.055 1.713 10.823 1.926 10.823 6.633v2.781c0 2.78-.756 3.85-3.776 3.85-3.522 0-3.774-1.924-3.774-4.063v-7.273H111.12v3.423c0 17.971 11.829 23.317 40.27 23.317 26.929-.001 39.513-4.921 39.513-22.465zm234.181 19.68V67.775h-6.039c-3.525 0-4.279-.854-4.279-2.779V44.459h10.066V25.206h-10.066v-8.56h-31.209V69.06c0 11.553 7.805 16.258 23.91 16.258h17.617zm-92.803-19.254V44.245c0-15.189-14.852-20.109-34.229-20.109-19.883 0-34.479 4.92-34.479 20.109v21.819c0 14.978 14.598 20.109 34.479 20.109 19.38.002 34.229-5.131 34.229-20.109zm160.725.644v-2.567c0-7.701-4.027-11.767-26.932-17.113-6.291-1.498-9.063-2.141-9.063-4.92v-2.781c0-1.498 1.514-2.141 2.771-2.141 1.762 0 3.02.643 3.02 2.141v6.203h28.691v-4.707c0-12.621-13.086-16.687-31.963-16.687-17.869 0-33.475 4.064-33.475 16.9v2.354c0 7.487 2.77 13.903 27.686 19.896 6.041 1.497 9.061 2.353 9.061 5.134v2.995c0 1.497-1.258 1.926-3.02 1.926-1.258 0-2.771-.644-2.771-2.14v-5.99h-30.955v3.209c0 12.408 8.559 17.971 33.727 17.971 19.379-.002 33.223-3.638 33.223-19.683zm-231.667.642V42.962c0-15.188-12.332-17.756-25.671-17.756h-42.534v70.383h31.208V85.318h9.815c13.089 0 27.182-2.996 27.182-17.968zM47.868 158.695V73.552h-34.48v85.144h34.48zm540.741 0V82.538h-31.207v16.045H546.58c-11.578 0-25.924 3.637-25.924 17.543v24.813c0 13.905 12.836 17.756 24.412 17.756h43.541zm-470.66 0V85.747h-31.46v72.948h31.46zm-35.131 0V85.747H51.359v72.948h31.459zm366.93 0v-17.541h-5.535c-3.271 0-4.027-.854-4.027-2.567v-21.179h9.563V98.583h-9.563v-8.558h-31.209v52.199c0 11.979 7.803 16.471 23.91 16.471h16.861zm-149.682 0v-17.541h-5.789c-3.021 0-4.027-.854-4.027-2.567v-21.179h9.816V98.583h-9.816v-8.558h-31.208v52.199c0 11.979 7.802 16.471 23.91 16.471h17.114zm218.61-19.252v-4.278h-31.209v8.983c0 1.498-1.258 2.141-3.02 2.141-1.51 0-3.021-.643-3.021-2.141v-11.553h37.248v-14.76c0-14.975-14.598-20.323-34.229-20.323s-33.979 4.921-33.979 20.109v21.392c0 15.404 14.348 20.538 33.979 20.538s34.231-4.704 34.231-20.108zm-329.284 19.252V98.583h-31.208v46.637h-3.271c-2.014 0-2.518-.854-2.518-2.567V98.585h-31.208v42.356c0 11.768 9.312 17.756 24.413 17.756h43.792v-.002zm68.424-18.395v-2.567c0-7.701-4.026-11.767-26.932-17.112-6.292-1.498-9.061-2.14-9.061-4.923v-2.778c0-1.498 1.511-2.142 2.769-2.142 1.764 0 3.021.644 3.021 2.142v6.203h29.698v-4.92c0-12.621-13.845-16.474-32.721-16.474-17.869 0-33.725 3.853-33.725 16.688v2.564c0 7.488 2.517 13.906 27.433 19.896 6.04 1.498 9.063 2.354 9.063 5.135v2.995c0 1.497-1.258 1.925-3.021 1.925-1.258 0-2.768-.642-2.768-2.139v-5.99h-30.957v3.209c0 12.408 8.558 17.971 33.725 17.971 19.382-.001 33.476-3.639 33.476-19.683zm-27.433-70.17c0 1.284-1.511 2.567-3.521 2.567h-2.52v-34.87h2.52c2.013 0 3.521 1.282 3.521 2.565V70.13zm257.336 49.204h-6.291v-7.061c0-1.496 1.51-2.565 3.021-2.565 2.014 0 3.271 1.069 3.271 2.565l-.001 7.061zm69.683 26.741h-2.268c-2.518 0-3.271-.855-3.271-2.354v-30.164c0-1.068.754-2.354 3.271-2.354h2.268v34.872zM381.576 24.35c-4.279 0-12.332 1.498-15.604 7.488v-6.632h-31.209v60.112h31.209V53.443c0-4.92 3.523-7.916 9.564-7.916h6.039l.001-21.177zm24.916 134.345V116.98c0-11.979-5.285-19.469-31.207-19.469h-20.387c-11.074 0-17.869 4.278-21.395 11.124V98.581h-31.208v60.112h31.46v-32.729c0-4.92 3.775-7.916 9.563-7.916h25.924v-8.557h2.77c2.016 0 3.271 1.069 3.271 2.78v7.914h-12.082c-11.576 0-26.426 3.637-26.426 17.543v3.209c0 13.905 13.34 17.756 24.916 17.756h44.8v.002zm-31.207-13.047h-2.014c-3.523 0-4.027-.854-4.027-2.565v-7.272c0-2.142 1.258-3.425 4.279-3.425h1.762v13.262zm221.266-63.153c1.973 0 3.621 1.555 3.621 3.592a3.6 3.6 0 0 1-3.621 3.631c-1.979 0-3.639-1.555-3.639-3.631 0-2.037 1.66-3.592 3.639-3.592zm0 6.693c1.672 0 2.965-1.334 2.965-3.101 0-1.729-1.293-3.062-2.965-3.062-1.688 0-2.98 1.332-2.98 3.062-.003 1.767 1.29 3.101 2.98 3.101zm-1.408-5.198h1.633c1.004 0 1.477.396 1.477 1.207 0 .764-.482 1.082-1.109 1.148l1.207 1.864h-.705l-1.146-1.815h-.695v1.815h-.656V83.99h-.006zm.656 1.873h.688c.577 0 1.107-.028 1.107-.694 0-.56-.48-.646-.926-.646h-.869v1.34z"/></svg>