<?xml version="1.0" encoding="UTF-8" standalone="no"?>
<!-- Created with Inkscape (http://www.inkscape.org/) -->

<svg
   xmlns:dc="http://purl.org/dc/elements/1.1/"
   xmlns:cc="http://creativecommons.org/ns#"
   xmlns:rdf="http://www.w3.org/1999/02/22-rdf-syntax-ns#"
   xmlns:svg="http://www.w3.org/2000/svg"
   xmlns="http://www.w3.org/2000/svg"
   xmlns:sodipodi="http://sodipodi.sourceforge.net/DTD/sodipodi-0.dtd"
   xmlns:inkscape="http://www.inkscape.org/namespaces/inkscape"
   width="1000"
   height="408.87253"
   id="svg4436"
   version="1.1"
   inkscape:version="0.48.5 r10040"
   sodipodi:docname="A.svg">
  <defs
     id="defs4438" />
  <sodipodi:namedview
     id="base"
     pagecolor="#ffffff"
     bordercolor="#666666"
     borderopacity="1.0"
     inkscape:pageopacity="0.0"
     inkscape:pageshadow="2"
     inkscape:zoom="0.39153276"
     inkscape:cx="701.87401"
     inkscape:cy="29.053756"
     inkscape:document-units="px"
     inkscape:current-layer="layer1"
     showgrid="false"
     fit-margin-left="0.5"
     fit-margin-bottom="0.5"
     fit-margin-top="0.5"
     fit-margin-right="0.5"
     inkscape:window-width="1040"
     inkscape:window-height="1007"
     inkscape:window-x="877"
     inkscape:window-y="-14"
     inkscape:window-maximized="0" />
  <metadata
     id="metadata4441">
    <rdf:RDF>
      <cc:Work
         rdf:about="">
        <dc:format>image/svg+xml</dc:format>
        <dc:type
           rdf:resource="http://purl.org/dc/dcmitype/StillImage" />
        <dc:title></dc:title>
      </cc:Work>
    </rdf:RDF>
  </metadata>
  <g
     inkscape:label="Layer 1"
     inkscape:groupmode="layer"
     id="layer1"
     transform="translate(-894.03403,-572.36596)">
    <path
       inkscape:connector-curvature="0"
       id="path5349"
       style="fill:#231f20;fill-opacity:1;fill-rule:nonzero;stroke:none"
       d="m 1698.6571,740.79518 c -8.5585,0 -11.3383,-5.54877 -11.3383,-32.61407 0,-27.06531 2.3202,-31.92459 11.3383,-31.92459 8.3286,0 11.3383,4.85928 11.3383,32.61408 0,26.83547 -2.3202,31.92458 -11.3383,31.92458 m -0.9303,94.78877 c -20.8161,0 -27.2951,-8.13163 -27.2951,-20.85988 0,-9.01812 1.6197,-15.17977 4.1588,-17.94868 l 40.2642,0 c 14.8076,0 21.7573,4.38867 21.7573,15.95682 0,14.33706 -12.7283,22.85174 -38.8852,22.85174 m -5.3189,6.70887 c 41.1835,0 71.4992,-19.3824 71.4992,-51.76664 0,-24.97494 -17.8173,-32.15442 -40.494,-32.15442 l -47.2028,0 c -7.6392,0 -9.9484,-2.53908 -9.9484,-6.23826 0,-4.39962 2.0794,-7.86897 3.4693,-9.71856 6.9497,2.77986 18.2771,4.85928 28.9259,4.85928 30.075,0 52.5218,-14.57783 52.5218,-40.48304 0,-11.32738 -7.869,-20.35644 -16.8871,-26.36487 l 0,-0.45966 c 5.5488,-3.93996 12.0278,-5.78955 14.5778,1.38992 2.0685,5.77861 3.929,9.01813 11.5572,9.01813 9.0291,0 12.2796,-6.24921 12.2796,-12.95808 0,-9.71856 -6.7199,-14.11818 -15.5081,-14.11818 -10.6379,0 -19.8968,6.48999 -27.0763,13.42869 -7.858,-3.93996 -19.1963,-6.9387 -31.4649,-6.9387 -30.086,0 -52.5218,14.79672 -52.5218,40.48304 0,13.86646 6.9387,23.35518 18.9665,29.60439 l 0,0.44828 c -8.5585,5.08911 -18.7367,15.27827 -18.7367,29.15567 0,12.7173 6.7089,21.27576 23.1363,25.44555 l 0,0.45966 c -20.1266,2.30925 -30.5346,11.94025 -30.5346,23.04874 0,16.18665 17.1169,23.85862 53.4411,23.85862" />
    <path
       inkscape:connector-curvature="0"
       id="path5351"
       style="fill:#231f20;fill-opacity:1;fill-rule:nonzero;stroke:none"
       d="m 1496.0558,794.45519 71.2585,0 0,-3.92901 -3.4694,-0.91932 c -7.858,-2.09037 -8.3286,-2.30926 -8.3286,-14.11818 l 0,-80.49548 c 3.94,-0.91932 8.7883,-1.37899 15.2673,-1.37899 8.5694,0 13.6585,3.45841 13.6585,15.95682 l 0,65.91765 c 0,11.56815 -0.2302,12.02781 -8.3395,14.11818 l -3.4694,0.91932 0,3.92901 71.5102,0 0,-3.92901 -4.1807,-1.1601 c -9.248,-2.53908 -9.9375,-2.99874 -9.9375,-13.8774 l 0,-74.70594 c 0,-20.58626 -12.2576,-30.99431 -29.8561,-30.99431 -18.266,0 -32.3842,9.24795 -44.8826,18.96651 l -0.69,0 0,-17.58753 -1.8495,-1.37898 -57.6219,6.00843 0,2.30925 7.3984,5.31894 c 7.1794,5.10005 7.4093,6.01938 7.4093,16.1976 l 0,75.86603 c 0,10.64883 -0.4597,11.33832 -9.7186,13.8774 l -4.1588,1.1601 0,3.92901 z" />
    <path
       inkscape:connector-curvature="0"
       id="path5353"
       style="fill:#231f20;fill-opacity:1;fill-rule:nonzero;stroke:none"
       d="m 1454.5878,662.25873 c 13.363,0 23.574,-8.26296 23.574,-21.61503 0,-13.12224 -10.211,-21.61503 -23.574,-21.61503 -13.1113,0 -23.5631,8.49279 -23.5631,21.61503 0,13.35207 10.4518,21.61503 23.5631,21.61503" />
    <path
       inkscape:connector-curvature="0"
       id="path5355"
       style="fill:#231f20;fill-opacity:1;fill-rule:nonzero;stroke:none"
       d="m 1418.3074,794.45519 73.3488,0 0,-3.92901 -4.1588,-1.1601 c -9.2589,-2.53908 -9.7186,-3.22857 -9.7186,-13.8774 l 0,-74.70594 c 0,-10.17821 0.2303,-18.27701 0.9193,-29.61533 l -1.8496,-1.37898 -59.9311,6.00843 0,2.07942 7.4093,5.31894 c 7.1686,5.08911 7.8581,6.01938 7.8581,16.18665 l 0,76.10681 c 0,10.64883 -0.4597,11.33832 -9.7186,13.8774 l -4.1588,1.1601 0,3.92901 z" />
    <path
       inkscape:connector-curvature="0"
       id="path5357"
       style="fill:#231f20;fill-opacity:1;fill-rule:nonzero;stroke:none"
       d="m 1266.0609,794.45519 71.2694,0 0,-3.92901 -3.4693,-0.91932 c -7.869,-2.09037 -8.3287,-2.30926 -8.3287,-14.11818 l 0,-80.49548 c 3.9291,-0.91932 8.7883,-1.37899 15.2674,-1.37899 8.5584,0 13.6585,3.45841 13.6585,15.95682 l 0,65.91765 c 0,11.56815 -0.2408,12.02781 -8.3286,14.11818 l -3.4803,0.91932 0,3.92901 71.4992,0 0,-3.92901 -4.1698,-1.1601 c -9.2589,-2.53908 -9.9484,-2.99874 -9.9484,-13.8774 l 0,-74.70594 c 0,-20.58626 -12.2576,-30.99431 -29.8451,-30.99431 -18.277,0 -32.3952,9.24795 -44.8827,18.96651 l -0.7004,0 0,-17.58753 -1.8496,-1.37898 -57.6219,6.00843 0,2.30925 7.4093,5.31894 c 7.1686,5.10005 7.4093,6.01938 7.4093,16.1976 l 0,75.86603 c 0,10.64883 -0.4701,11.33832 -9.7185,13.8774 l -4.1698,1.1601 0,3.92901 z" />
    <path
       inkscape:connector-curvature="0"
       id="path5359"
       style="fill:#231f20;fill-opacity:1;fill-rule:nonzero;stroke:none"
       d="m 1211,676.25652 c 11.0976,0 14.1073,8.5694 14.1073,41.41331 l -31.0053,2.30925 c 0.2408,-35.39393 7.4093,-43.72256 16.898,-43.72256 m 0.9193,120.97853 c 26.3759,0 44.6529,-14.57784 52.5218,-25.67538 l 0,-4.39962 c -6.4571,4.78267 -17.6641,8.0988 -30.1625,8.0988 -24.7561,0 -39.4762,-8.78829 -40.1766,-49.03056 l 75.1984,0 c -1.1491,-40.25321 -22.4468,-56.43986 -56.4508,-56.43986 -30.5456,0 -63.6303,19.78733 -63.6303,63.49895 0,40.25321 21.046,63.94767 62.7,63.94767" />
    <path
       inkscape:connector-curvature="0"
       id="path5361"
       style="fill:#231f20;fill-opacity:1;fill-rule:nonzero;stroke:none"
       d="m 1088.8286,794.45519 21.5165,0 36.554,-94.14305 c 6.2492,-16.18665 9.4888,-19.88583 16.1976,-22.43586 l 3.0097,-1.14915 0,-3.93996 -40.7238,0 0,3.93996 5.0891,1.61976 c 5.7786,1.84959 9.0291,4.39961 9.0291,9.00717 0,3.93996 -1.6198,10.18917 -4.1698,17.3577 l -16.4274,48.11123 -0.7005,0 -19.1963,-51.12092 c -2.0794,-5.31894 -3.2505,-9.24795 -3.2505,-13.64757 0,-5.7786 2.7908,-7.85802 9.0291,-9.70761 l 5.3189,-1.61976 0,-3.93996 -80.5173,0 0,3.93996 3.4693,1.14915 c 6.0194,2.09037 8.0988,4.62945 14.5778,19.89678 l 41.1945,96.68213 z" />
    <path
       inkscape:connector-curvature="0"
       id="path5363"
       style="fill:#231f20;fill-opacity:1;fill-rule:nonzero;stroke:none"
       d="m 894.53403,794.45519 135.12957,0 3.2395,-61.52897 -4.6295,0 c -6.7088,17.11691 -11.5681,27.0653 -18.277,38.17379 -7.6391,12.25764 -10.87864,15.49716 -28.46616,15.49716 -16.42743,0 -17.81736,-3.00969 -17.81736,-15.49716 l 0,-55.9802 6.01938,0 c 15.27827,0 17.81736,1.84959 20.59721,7.16853 3.46935,6.9387 6.00844,15.03749 7.6282,22.20602 l 4.16983,0 0,-64.99832 -4.16983,0 c -1.8496,7.63914 -4.38868,15.0375 -7.6282,21.2867 -2.55002,4.85928 -4.85928,6.9387 -20.36738,6.9387 l -6.24921,0 0,-64.30883 c 2.55003,-0.68993 6.5666,-1.37898 15.82549,-1.37898 13.41774,0 19.43712,2.76891 26.37583,13.86645 5.0891,8.0988 9.4887,16.65726 15.4971,30.77543 l 4.3997,0 -2.0795,-52.51085 -129.19767,0 0,3.92901 6.24921,1.61976 c 8.55846,2.3202 10.17822,2.77986 10.17822,18.73668 l 0,111.73058 c 0,15.95682 -1.61976,16.41648 -10.17822,18.72573 l -6.24921,1.61976 0,3.92901 z" />
    <path
       inkscape:connector-curvature="0"
       id="path5365"
       style="fill:#231f20;fill-opacity:1;fill-rule:nonzero;stroke:none"
       d="m 1822.4047,960.14127 c -16.8982,0 -25.1393,-11.79798 -25.1393,-47.89235 0,-40.45021 9.2589,-52.23725 22.2062,-52.23725 7.8685,0 11.5677,3.92901 14.8186,9.93745 l 0,87.42323 c -2.7798,1.1601 -7.2565,2.76892 -11.8855,2.76892 m -24.9095,20.59721 c 15.9678,0 27.3059,-7.85802 36.5648,-16.65726 l 0.6916,0 0,14.57784 3.0102,2.07942 55.7722,-8.0988 0,-3.00969 -5.5597,-2.07942 c -7.6391,-2.77985 -7.8694,-4.15884 -7.8694,-16.42742 l 0,-118.86628 c 0,-15.49715 0.9193,-27.98462 0.9193,-27.98462 l -1.8491,-1.38993 -61.7809,5.31894 0,3.23952 9.2481,5.08911 c 6.7199,3.69918 7.6506,4.6185 7.6506,15.95682 l 0,23.13629 c -4.3892,-1.38993 -8.0988,-2.30925 -15.0489,-2.30925 -37.0135,0 -68.4893,19.64506 -68.4893,70.51426 0,38.63345 20.1375,56.91047 46.7432,56.91047" />
    <path
       inkscape:connector-curvature="0"
       id="path5367"
       style="fill:#231f20;fill-opacity:1;fill-rule:nonzero;stroke:none"
       d="m 1644.6578,977.95862 74.2791,0 0,-4.15884 -5.0891,-0.91932 c -8.5694,-1.61976 -9.7186,-2.3202 -9.7186,-13.88835 l 0,-78.64589 c 2.3093,-2.06847 6.2493,-3.22857 9.4888,-3.22857 2.7689,0 3.929,1.1601 5.5487,4.62945 3.2396,7.15758 7.4093,12.23575 18.5069,12.23575 11.3383,0 19.4371,-7.6282 19.4371,-21.02404 0,-12.94714 -7.869,-19.42617 -18.9665,-19.42617 -15.0484,0 -27.5359,11.32737 -34.2448,19.656 l -0.7004,0 0,-18.49591 -1.8496,-1.37898 -57.6109,5.99749 0,2.32019 7.3983,5.308 c 7.1795,5.08911 7.4093,6.01938 7.4093,15.95682 l 0,76.09586 c 0,10.63788 -0.4701,11.33832 -9.7185,13.88835 l -4.1698,1.14915 0,3.92901 z" />
    <path
       inkscape:connector-curvature="0"
       id="path5369"
       style="fill:#231f20;fill-opacity:1;fill-rule:nonzero;stroke:none"
       d="m 1449.0609,960.14127 c -16.898,0 -25.1391,-11.79798 -25.1391,-47.89235 0,-40.45021 9.2589,-52.23725 22.217,-52.23725 7.858,0 11.5681,3.92901 14.8076,9.93745 l 0,87.42323 c -2.7798,1.1601 -7.267,2.76892 -11.8855,2.76892 m -24.9093,20.59721 c 15.9678,0 27.3061,-7.85802 36.5541,-16.65726 l 0.7109,0 0,14.57784 2.9987,2.07942 55.7614,-8.0988 0,-3.00969 -5.5488,-2.07942 c -7.6392,-2.77985 -7.869,-4.15884 -7.869,-16.42742 l 0,-118.86628 c 0,-15.49715 0.9193,-27.98462 0.9193,-27.98462 l -1.8386,-1.38993 -61.7916,5.31894 0,3.23952 9.2589,5.08911 c 6.7088,3.69918 7.6391,4.6185 7.6391,15.95682 l 0,23.13629 c -4.3996,-1.38993 -8.0988,-2.30925 -15.0375,-2.30925 -37.0246,0 -68.5005,19.64506 -68.5005,70.51426 0,38.63345 20.1375,56.91047 46.7432,56.91047" />
    <path
       inkscape:connector-curvature="0"
       id="path5371"
       style="fill:#231f20;fill-opacity:1;fill-rule:nonzero;stroke:none"
       d="m 1230.4262,977.95862 71.2694,0 0,-3.92901 -3.4693,-0.93027 c -7.88,-2.07942 -8.3287,-2.30925 -8.3287,-14.10723 l 0,-80.49548 c 3.929,-0.91932 8.7883,-1.37898 15.2674,-1.37898 8.5584,0 13.6475,3.46935 13.6475,15.94587 l 0,65.92859 c 0,11.56815 -0.2302,12.02781 -8.3286,14.10723 l -3.4693,0.93027 0,3.92901 71.4992,0 0,-3.92901 -4.1698,-1.14915 c -9.2479,-2.55003 -9.9484,-3.00969 -9.9484,-13.88835 l 0,-74.70593 c 0,-20.57533 -12.2576,-30.97243 -29.8451,-30.97243 -18.2771,0 -32.3952,9.23701 -44.8936,18.94462 l -0.6891,0 0,-17.56564 -1.8496,-1.37898 -57.6109,5.99749 0,2.32019 7.3984,5.308 c 7.1685,5.08911 7.4093,6.01938 7.4093,16.18665 l 0,75.86603 c 0,10.63788 -0.4702,11.33832 -9.7186,13.88835 l -4.1698,1.14915 0,3.92901 z" />
    <path
       inkscape:connector-curvature="0"
       id="path5373"
       style="fill:#231f20;fill-opacity:1;fill-rule:nonzero;stroke:none"
       d="m 1162.1665,963.39173 c -6.2492,0 -11.3384,-4.85928 -11.3384,-20.82704 0,-16.18665 4.1698,-20.8161 14.5779,-21.51654 l 5.3299,-0.45966 0,38.63345 c -1.6198,2.77986 -4.6295,4.16979 -8.5694,4.16979 m -22.2061,17.34675 c 17.3468,0 26.146,-7.63914 32.3952,-15.0375 l 0.9193,0 c 3.4694,9.71856 12.7283,15.0375 27.3061,15.0375 16.6573,0 26.354,-5.83332 31.2351,-10.7911 l 0,-3.45841 c -2.0794,0 -7.3983,-0.71181 -10.408,-2.32019 -4.3996,-2.30925 -5.0891,-5.55972 -5.0891,-15.73794 l 0,-62.07619 c 0,-24.49339 -19.2073,-33.0409 -48.8336,-33.0409 -39.5637,0 -56.4508,10.62693 -56.4508,26.34298 0,9.70761 6.2492,15.02655 18.7476,15.02655 13.8774,0 18.7367,-5.08911 19.8968,-24.96399 0.4597,-8.31769 3.4693,-9.47779 9.2479,-9.47779 9.4888,0 11.809,7.39837 11.809,28.66318 l 0,22.19508 -26.3868,7.16853 c -19.6669,5.32989 -37.944,11.33832 -37.944,33.54435 0,18.05813 12.9581,28.92584 33.5553,28.92584" />
    <path
       inkscape:connector-curvature="0"
       id="path5375"
       style="fill:#231f20;fill-opacity:1;fill-rule:nonzero;stroke:none"
       d="m 1576.3981,963.39173 c -6.2492,0 -11.3274,-4.85928 -11.3274,-20.82704 0,-16.18665 4.1588,-20.8161 14.5778,-21.51654 l 5.319,-0.45966 0,38.63345 c -1.6307,2.77986 -4.6295,4.16979 -8.5694,4.16979 m -22.2061,17.34675 c 17.3577,0 26.146,-7.63914 32.3952,-15.0375 l 0.9194,0 c 3.4693,9.71856 12.7282,15.0375 27.306,15.0375 16.6573,0 26.354,-5.83332 31.2351,-10.7911 l 0,-3.45841 c -2.0794,0 -7.3983,-0.71181 -10.408,-2.32019 -4.3996,-2.30925 -5.0891,-5.55972 -5.0891,-15.73794 l 0,-62.07619 c 0,-24.49339 -19.2073,-33.0409 -48.8226,-33.0409 -39.5638,0 -56.4618,10.62693 -56.4618,26.34298 0,9.70761 6.2492,15.02655 18.7476,15.02655 13.8774,0 18.7367,-5.08911 19.8968,-24.96399 0.4597,-8.31769 3.4694,-9.47779 9.248,-9.47779 9.4887,0 11.8089,7.39837 11.8089,28.66318 l 0,22.19508 -26.3868,7.16853 c -19.656,5.32989 -37.9439,11.33832 -37.9439,33.54435 0,18.05813 12.958,28.92584 33.5552,28.92584" />
    <path
       inkscape:connector-curvature="0"
       id="path5377"
       style="fill:#231f20;fill-opacity:1;fill-rule:nonzero;stroke:none"
       d="m 1064.9918,980.73848 c 21.7464,0 32.8549,-9.94839 39.1041,-17.34675 l 0,-3.93995 c -3.4694,0.93026 -9.7186,1.84959 -15.0484,1.84959 -12.4875,0 -15.0375,-3.46935 -15.0375,-17.11692 l 0,-75.39543 27.7657,0 1.8496,-12.47653 -29.6153,0 0,-32.38424 -11.5682,0 c -7.6391,17.11691 -25.9599,32.08875 -46.0865,39.48711 l 0,5.37366 12.0716,0 0,75.1656 c 0,25.91615 10.6488,36.78386 36.5649,36.78386" />
    <path
       inkscape:connector-curvature="0"
       id="path5379"
       style="fill:#231f20;fill-opacity:1;fill-rule:nonzero;stroke:none"
       d="m 951.0505,980.73848 c 40.72382,0 65.447,-25.81765 65.447,-56.35231 0,-25.21572 -15.9896,-40.5706 -52.78442,-53.27696 -24.75605,-8.78829 -31.23509,-15.95682 -31.23509,-28.21446 0,-13.1879 9.21512,-21.27576 23.09252,-21.27576 9.02906,0 16.23043,2.07943 24.78889,11.32738 8.32862,9.02906 12.93618,21.04593 18.48496,33.07374 l 4.85924,0 -2.3092,-43.94145 c -8.32865,-3.92902 -22.90648,-7.16853 -42.11377,-7.16853 -36.7948,0 -62.66718,21.36331 -62.66718,51.88702 0,25.65349 10.64883,41.0631 44.89361,52.63124 24.75605,8.32863 38.26134,12.38897 38.26134,33.19413 0,14.33706 -11.3602,21.40709 -26.16787,21.40709 -12.72824,0 -23.20196,-4.85928 -31.76042,-15.49716 -7.17947,-9.02906 -13.19885,-19.89677 -20.36738,-34.47461 l -4.85928,0 3.00969,49.51211 c 11.04282,3.5569 28.29107,7.16853 51.42736,7.16853" />
    <path
       inkscape:connector-curvature="0"
       id="path5381"
       style="fill:#231f20;fill-opacity:1;fill-rule:nonzero;stroke:none"
       d="m 1339.8366,649.19121 31.06,0 0,-2.36397 -1.5104,-0.4045 c -3.4255,-0.90838 -3.6335,-1.00688 -3.6335,-6.15071 l 0,-34.43083 c 1.7183,-0.40451 3.8305,-0.61289 6.6542,-0.61289 3.732,0 5.9537,1.51032 5.9537,6.96059 l 0,28.08313 c 0,5.03439 -0.099,5.24233 -3.6335,6.15071 l -1.5213,0.4045 0,2.36397 31.1804,0 0,-2.36397 -1.8168,-0.50344 c -4.0384,-1.11632 -4.3339,-1.31332 -4.3339,-6.05221 l 0,-31.91364 c 0,-8.97434 -5.3518,-13.51623 -13.0128,-13.51623 -7.9784,0 -14.1291,4.03845 -19.5685,8.2739 l -0.3064,0 0,-7.66102 -0.7994,-0.61288 -25.1172,2.62663 0,1.66354 3.2286,2.3202 c 3.1191,2.21075 3.2285,2.61569 3.2285,7.05908 l 0,31.76042 c 0,4.6404 -0.2083,4.93589 -4.2354,6.05221 l -1.8168,0.50344 0,2.36397 z" />
    <path
       inkscape:connector-curvature="0"
       id="path5383"
       style="fill:#231f20;fill-opacity:1;fill-rule:nonzero;stroke:none"
       d="m 1311.4142,646.82724 c -5.8443,0 -8.3724,-2.17792 -8.3724,-25.35799 0,-20.26888 3.13,-23.04874 7.8689,-23.04874 5.0454,0 8.4709,1.87148 8.4709,24.85455 0,21.8777 -2.7142,23.55218 -7.9674,23.55218 m -0.197,3.56785 c 14.4136,0 28.7398,-7.56253 28.7398,-27.91896 0,-18.85707 -13.9212,-27.63441 -28.7398,-27.63441 -14.1291,0 -28.7508,7.56252 -28.7508,28.0284 0,18.75857 13.8227,27.52497 28.7508,27.52497" />
    <path
       inkscape:connector-curvature="0"
       id="path5385"
       style="fill:#231f20;fill-opacity:1;fill-rule:nonzero;stroke:none"
       d="m 1250.717,641.43169 c -7.3546,0 -10.3753,-5.14383 -10.3753,-20.87082 0,-17.65319 4.0276,-22.14036 9.6748,-22.14036 3.4256,0 5.0454,1.71826 6.4572,4.33395 l 0,37.46241 c -1.2148,0.50344 -3.732,1.21482 -5.7567,1.21482 m -10.2768,8.9634 c 6.9497,0 11.8965,-3.42557 15.935,-7.25609 l 0.295,0 0,6.35866 1.3134,0.89743 24.3073,-3.52407 0,-1.95903 -2.4187,-0.90838 c -3.3271,-1.20388 -3.4256,-1.81676 -3.4256,-7.15759 l 0,-51.17565 c 0,-6.75264 0.394,-12.20291 0.394,-12.20291 l -0.7994,-0.6015 -26.9339,2.32019 0,2.05754 4.0384,2.22169 c 2.9222,1.61976 3.3271,2.01376 3.3271,6.96059 l 0,9.42306 c -1.9153,-0.59099 -3.535,-1.00688 -6.5556,-1.00688 -16.132,0 -29.8562,8.56941 -29.8562,30.75355 0,16.84331 8.7774,24.79983 20.3784,24.79983" />
    <path
       inkscape:connector-curvature="0"
       id="path5387"
       style="fill:#231f20;fill-opacity:1;fill-rule:nonzero;stroke:none"
       d="m 1155.1293,649.19121 31.0709,0 0,-2.36397 -1.5103,-0.4045 c -3.4365,-0.90838 -3.6335,-1.00688 -3.6335,-6.15071 l 0,-34.43083 c 1.7182,-0.40451 3.8305,-0.61289 6.6541,-0.61289 3.732,0 5.9537,1.51032 5.9537,6.96059 l 0,28.08313 c 0,5.03439 -0.1094,5.24233 -3.6335,6.15071 l -1.5103,0.4045 0,2.36397 31.1585,0 0,-2.36397 -1.8058,-0.50344 c -4.0385,-1.11632 -4.3449,-1.31332 -4.3449,-6.05221 l 0,-31.91364 c 0,-8.97434 -5.3409,-13.51623 -13.0128,-13.51623 -7.9566,0 -14.1182,4.03845 -19.5575,8.2739 l -0.3065,0 0,-7.66102 -0.8099,-0.61288 -25.1172,2.62663 0,1.66354 3.2395,2.3202 c 3.1192,2.21075 3.2177,2.61569 3.2177,7.05908 l 0,31.76042 c 0,4.6404 -0.197,4.93589 -4.2355,6.05221 l -1.8167,0.50344 0,2.36397 z" />
    <path
       inkscape:connector-curvature="0"
       id="path5389"
       style="fill:#231f20;fill-opacity:1;fill-rule:nonzero;stroke:none"
       d="m 1126.4114,646.82724 c -5.8443,0 -8.3724,-2.17792 -8.3724,-25.35799 0,-20.26888 3.13,-23.04874 7.8689,-23.04874 5.0454,0 8.4709,1.87148 8.4709,24.85455 0,21.8777 -2.7251,23.55218 -7.9674,23.55218 m -0.197,3.56785 c 14.4246,0 28.7398,-7.56253 28.7398,-27.91896 0,-18.85707 -13.9212,-27.63441 -28.7398,-27.63441 -14.1182,0 -28.7508,7.56252 -28.7508,28.0284 0,18.75857 13.8227,27.52497 28.7508,27.52497" />
    <path
       inkscape:connector-curvature="0"
       id="path5391"
       style="fill:#231f20;fill-opacity:1;fill-rule:nonzero;stroke:none"
       d="m 1034.7965,649.19121 57.589,0 2.0137,-28.1269 -2.6594,0 c -3.0316,7.66102 -5.9647,14.31517 -8.3725,18.34268 -3.338,5.54877 -3.7867,6.44621 -11.3602,6.44621 -6.3477,0 -7.059,-1.20388 -7.059,-6.54471 l 0,-48.75695 c 0,-6.94964 0.5034,-7.35458 4.4433,-8.16446 l 3.3271,-0.70044 0,-2.36397 -37.922,0 0,2.36397 2.7141,0.70044 c 3.743,1.00688 4.4434,1.21482 4.4434,8.16446 l 0,47.39986 c 0,6.96059 -0.7004,7.15758 -4.4434,8.1754 l -2.7141,0.70044 0,2.36397 z" />
  </g>
</svg>
