<svg id="Layer_1" xmlns="http://www.w3.org/2000/svg" viewBox="0 0 213.9 41.7"><style>.st0{fill-rule:evenodd;clip-rule:evenodd;fill:#172146}</style><path class="st0" d="M33.5 1.6h-6.8v22.6c0 3.6-.9 6.3-2.6 8.2-1.8 1.8-4.2 2.7-7.3 2.7-3.1 0-5.5-1-7.3-2.9-1.8-1.9-2.6-4.7-2.6-8.3V1.6H0v22.6c0 2.8.4 5.3 1.2 7.5.8 2 1.9 3.8 3.3 5.3 1.5 1.5 3.2 2.5 5.3 3.3 2.1.7 4.3 1.1 6.9 1.1 2.6 0 4.9-.4 7-1.1 2.1-.7 3.8-1.8 5.3-3.3 1.5-1.5 2.6-3.3 3.4-5.5.8-2.2 1.2-4.8 1.2-7.7V1.6h-.1zm16.1 39.1h26.5v-4.1H54v-35h-4.4v39.1zM109 1.3h-4.1L87 40.7h4.5l4.6-10.4 1.7-3.9 9-20 8.9 20 1.7 3.9 4.6 10.4h4.8L109 1.3zm48.4.3h-16.6v39.2h17.4c2.1 0 4.1-.2 5.8-.7 1.7-.5 3.2-1.2 4.5-2.1 1.2-.9 2.2-2 2.9-3.4.7-1.3 1-2.9 1-4.5 0-1.3-.2-2.5-.7-3.6-.4-1-1-1.9-1.8-2.7-.7-.7-1.6-1.4-2.6-1.9s-2.1-1-3.3-1.3c.8-.3 1.5-.8 2.3-1.3.7-.5 1.4-1.1 2-1.9.6-.7 1.1-1.6 1.4-2.6.4-1 .5-2.1.5-3.4 0-1.5-.3-2.8-.9-4.1-.6-1.2-1.5-2.2-2.6-3.1-1.1-.8-2.5-1.5-4-2-1.6-.4-3.4-.6-5.3-.6zm-.7 17.4h-11.6V5.5H157c2.8 0 4.9.6 6.4 1.7 1.5 1.2 2.2 2.7 2.2 4.7 0 2.3-.8 4.1-2.5 5.3-1.6 1.2-3.7 1.8-6.4 1.8zm1.6 17.8h-13.1V22.9h12.3c3.4 0 6 .6 7.8 1.8 1.7 1.2 2.6 2.9 2.6 5 0 2.2-.9 4-2.6 5.2-1.7 1.3-4 1.9-7 1.9zm32.4-25.5c0-.9.2-1.7.6-2.5.4-.8 1-1.5 1.7-2 .7-.6 1.6-1 2.6-1.3 1-.3 2.2-.5 3.4-.5 2 0 3.9.3 5.8 1 1.8.7 3.7 1.8 5.5 3.2l2.6-3.4c-2-1.6-4.1-2.8-6.2-3.6-2.2-.8-4.7-1.2-7.5-1.2-1.9 0-3.6.3-5.1.8-1.6.5-2.9 1.3-4.1 2.2-1.2 1-2.1 2.1-2.7 3.4-.6 1.3-1 2.8-1 4.3 0 1.6.3 3.1.8 4.3.5 1.2 1.3 2.2 2.4 3.1 1.1.9 2.5 1.7 4.1 2.3 1.7.6 3.6 1.2 5.9 1.7 2.1.4 3.7.9 5.1 1.4 1.3.5 2.4 1 3.1 1.6.8.6 1.3 1.3 1.6 2 .3.7.4 1.6.4 2.5 0 2-.8 3.6-2.4 4.9-1.6 1.2-3.7 1.8-6.4 1.8s-5.1-.5-7.2-1.4c-2.1-.9-4.2-2.3-6.2-4.2l-2.7 3.2c2.4 2.1 4.8 3.7 7.4 4.7 2.6 1 5.5 1.5 8.6 1.5 1.9 0 3.7-.3 5.4-.8 1.6-.5 3-1.3 4.2-2.2 1.2-1 2.1-2.1 2.7-3.5.7-1.4 1-2.9 1-4.6 0-3-1-5.4-3.1-7.1-2.1-1.7-5.3-3.1-9.7-4-2.2-.4-3.9-.9-5.3-1.4-1.4-.5-2.5-1.1-3.2-1.7-.8-.6-1.3-1.3-1.6-2.1-.3-.6-.5-1.5-.5-2.4z"/></svg>