<?xml version="1.0" encoding="utf-8"?>
<!-- Generator: Adobe Illustrator 19.0.0, SVG Export Plug-In . SVG Version: 6.00 Build 0)  -->
<svg version="1.1" id="Layer_1" xmlns="http://www.w3.org/2000/svg" xmlns:xlink="http://www.w3.org/1999/xlink" x="0px" y="0px"
	 viewBox="0 0 213.9 41.7" style="enable-background:new 0 0 213.9 41.7;" xml:space="preserve">
<style type="text/css">
	.st0{fill-rule:evenodd;clip-rule:evenodd;fill:#FFFFFF;}
</style>
<path class="st0" d="M33.5,1.6h-6.8v22.6c0,3.6-0.9,6.3-2.6,8.2c-1.8,1.8-4.2,2.7-7.3,2.7c-3.1,0-5.5-1-7.3-2.9
	c-1.8-1.9-2.6-4.7-2.6-8.3V1.6H0v22.6c0,2.8,0.4,5.3,1.2,7.5C2,33.7,3.1,35.5,4.5,37c1.5,1.5,3.2,2.5,5.3,3.3
	c2.1,0.7,4.3,1.1,6.9,1.1c2.6,0,4.9-0.4,7-1.1c2.1-0.7,3.8-1.8,5.3-3.3c1.5-1.5,2.6-3.3,3.4-5.5c0.8-2.2,1.2-4.8,1.2-7.7V1.6
	L33.5,1.6z M49.6,40.7h26.5v-4.1H54V1.6h-4.4V40.7L49.6,40.7z M109,1.3h-4.1L87,40.7h4.5l4.6-10.4l1.7-3.9l9-20l8.9,20l1.7,3.9
	l4.6,10.4h4.8L109,1.3L109,1.3z M157.4,1.6h-16.6v39.2h17.4c2.1,0,4.1-0.2,5.8-0.7c1.7-0.5,3.2-1.2,4.5-2.1c1.2-0.9,2.2-2,2.9-3.4
	c0.7-1.3,1-2.9,1-4.5c0-1.3-0.2-2.5-0.7-3.6c-0.4-1-1-1.9-1.8-2.7c-0.7-0.7-1.6-1.4-2.6-1.9c-1-0.5-2.1-1-3.3-1.3
	c0.8-0.3,1.5-0.8,2.3-1.3c0.7-0.5,1.4-1.1,2-1.9c0.6-0.7,1.1-1.6,1.4-2.6c0.4-1,0.5-2.1,0.5-3.4c0-1.5-0.3-2.8-0.9-4.1
	c-0.6-1.2-1.5-2.2-2.6-3.1c-1.1-0.8-2.5-1.5-4-2C161.1,1.8,159.3,1.6,157.4,1.6L157.4,1.6z M156.7,19h-11.6V5.5h11.9
	c2.8,0,4.9,0.6,6.4,1.7c1.5,1.2,2.2,2.7,2.2,4.7c0,2.3-0.8,4.1-2.5,5.3C161.5,18.4,159.4,19,156.7,19L156.7,19z M158.3,36.8h-13.1
	V22.9h12.3c3.4,0,6,0.6,7.8,1.8c1.7,1.2,2.6,2.9,2.6,5c0,2.2-0.9,4-2.6,5.2C163.6,36.2,161.3,36.8,158.3,36.8L158.3,36.8z
	 M190.7,11.3c0-0.9,0.2-1.7,0.6-2.5c0.4-0.8,1-1.5,1.7-2c0.7-0.6,1.6-1,2.6-1.3c1-0.3,2.2-0.5,3.4-0.5c2,0,3.9,0.3,5.8,1
	c1.8,0.7,3.7,1.8,5.5,3.2l2.6-3.4c-2-1.6-4.1-2.8-6.2-3.6C204.5,1.4,202,1,199.2,1c-1.9,0-3.6,0.3-5.1,0.8c-1.6,0.5-2.9,1.3-4.1,2.2
	c-1.2,1-2.1,2.1-2.7,3.4c-0.6,1.3-1,2.8-1,4.3c0,1.6,0.3,3.1,0.8,4.3c0.5,1.2,1.3,2.2,2.4,3.1c1.1,0.9,2.5,1.7,4.1,2.3
	c1.7,0.6,3.6,1.2,5.9,1.7c2.1,0.4,3.7,0.9,5.1,1.4c1.3,0.5,2.4,1,3.1,1.6c0.8,0.6,1.3,1.3,1.6,2c0.3,0.7,0.4,1.6,0.4,2.5
	c0,2-0.8,3.6-2.4,4.9c-1.6,1.2-3.7,1.8-6.4,1.8c-2.7,0-5.1-0.5-7.2-1.4c-2.1-0.9-4.2-2.3-6.2-4.2l-2.7,3.2c2.4,2.1,4.8,3.7,7.4,4.7
	c2.6,1,5.5,1.5,8.6,1.5c1.9,0,3.7-0.3,5.4-0.8c1.6-0.5,3-1.3,4.2-2.2c1.2-1,2.1-2.1,2.7-3.5c0.7-1.4,1-2.9,1-4.6c0-3-1-5.4-3.1-7.1
	c-2.1-1.7-5.3-3.1-9.7-4c-2.2-0.4-3.9-0.9-5.3-1.4c-1.4-0.5-2.5-1.1-3.2-1.7c-0.8-0.6-1.3-1.3-1.6-2.1
	C190.9,13.1,190.7,12.2,190.7,11.3z"/>
</svg>
