<?xml version="1.0" standalone="no"?><!DOCTYPE svg PUBLIC "-//W3C//DTD SVG 1.1//EN" "http://www.w3.org/Graphics/SVG/1.1/DTD/svg11.dtd" ><svg xmlns="http://www.w3.org/2000/svg"><metadata></metadata><defs><font id="RyoichiTsunekawa: Bebas Neue Book: 2014" horiz-adv-x="852"><font-face font-family="Bebas Neue Book" font-weight="400" font-stretch="normal" units-per-em="1000" panose-1="0 0 5 0 0 0 0 0 0 0" ascent="750" descent="-250" x-height="0" bbox="-45 -179 814 880" underline-thickness="50" underline-position="-85" unicode-range="U+0000-f6c3" /><missing-glyph horiz-adv-x="548" d="M50 700 l448 0 l0 -700 l-448 0 l0 700 ZM251 360 l-127 -291 l34 0 l114 262 l115 -262 l38 0 l-127 291 l118 270 l-33 0 l-107 -242 l-107 242 l-37 0 l119 -270 Z" /><glyph glyph-name="NULL" unicode="" d="" /><glyph glyph-name="nonmarkingreturn" unicode="" d="" /><glyph glyph-name="space" unicode=" " d="" /><glyph glyph-name="Acircumflex" unicode="â" d="M155 737 l-43 0 l84 90 l40 0 l85 -90 l-44 0 l-61 63 l-61 -63 ZM107 155 l-35 -155 l-42 0 l153 701 l67 0 l156 -701 l-46 0 l-35 155 l-218 0 ZM114 195 l204 0 l-103 453 l-101 -453 Z" /><glyph glyph-name="Adieresis" unicode="ä" d="M188 821 l0 -84 l-41 0 l0 84 l41 0 ZM285 821 l0 -84 l-41 0 l0 84 l41 0 ZM107 155 l-35 -155 l-42 0 l153 701 l67 0 l156 -701 l-46 0 l-35 155 l-218 0 ZM114 195 l204 0 l-103 453 l-101 -453 Z" /><glyph glyph-name="Agrave" unicode="à" d="M185 832 l71 -95 l-36 0 l-85 95 l50 0 ZM107 155 l-35 -155 l-42 0 l153 701 l67 0 l156 -701 l-46 0 l-35 155 l-218 0 ZM114 195 l204 0 l-103 453 l-101 -453 Z" /><glyph glyph-name="Amacron" unicode="&#x100;" d="M314 793 l0 -33 l-195 0 l0 33 l195 0 ZM107 155 l-35 -155 l-42 0 l153 701 l67 0 l156 -701 l-46 0 l-35 155 l-218 0 ZM114 195 l204 0 l-103 453 l-101 -453 Z" /><glyph glyph-name="Aogonek" unicode="&#x104;" d="M397 0 q-23 -18 -37 -40 q-14 -22 -12 -41 q1 -17 13 -23 q12 -6 27 -6 q14 0 24.5 3.5 q10.5 3.5 19.5 9.5 l0 -30 q-25 -13 -56 -13 q-27 1 -45 13 q-18 12 -19 38 q-1 23 12.5 46 q13.5 23 35.5 41 l-35 157 l-218 0 l-35 -155 l-42 0 l153 701 l67 0 l156 -701 l-9 0 ZM114 195 l204 0 l-103 453 l-101 -453 Z" /><glyph glyph-name="Aring" unicode="å" d="M216 872 q28 0 47.5 -19 q19.5 -19 19.5 -47 q0 -29 -19.5 -48 q-19.5 -19 -47.5 -19 q-29 0 -48 19 q-19 19 -19 48 q0 28 19 47 q19 19 48 19 ZM216 847 q-18 0 -30.5 -11.5 q-12.5 -11.5 -12.5 -29.5 q0 -19 12.5 -30.5 q12.5 -11.5 30.5 -11.5 q17 0 30 11.5 q13 11.5 13 30.5 q0 18 -13 29.5 q-13 11.5 -30 11.5 ZM107 155 l-35 -155 l-42 0 l153 701 l67 0 l156 -701 l-46 0 l-35 155 l-218 0 ZM114 195 l204 0 l-103 453 l-101 -453 Z" /><glyph glyph-name="Atilde" unicode="ã" d="M170 814 q14 0 26 -5.5 q12 -5.5 23.5 -12 q11.5 -6.5 22 -11.5 q10.5 -5 21.5 -5 q13 1 21.5 9 q8.5 8 15.5 22 l25 -17 q-10 -22 -24 -34.5 q-14 -12.5 -34 -12.5 q-14 -1 -25.5 4.5 q-11.5 5.5 -22.5 12 q-11 6.5 -22 11.5 q-11 5 -23 5 q-26 0 -42 -30 l-25 16 q21 46 63 48 ZM107 155 l-35 -155 l-42 0 l153 701 l67 0 l156 -701 l-46 0 l-35 155 l-218 0 ZM114 195 l204 0 l-103 453 l-101 -453 Z" /><glyph glyph-name="AE" unicode="æ" d="M518 376 l0 -42 l-169 0 l0 -292 l204 0 l0 -42 l-250 0 l0 157 l-175 0 l-57 -157 l-44 0 l249 700 l277 0 l0 -42 l-204 0 l0 -282 l169 0 ZM140 198 l163 0 l0 445 l-163 -445 Z" /><glyph glyph-name="AEacute" unicode="&#x1fc;" d="M412 840 l-84 -95 l-35 0 l71 95 l48 0 ZM518 376 l0 -42 l-169 0 l0 -292 l204 0 l0 -42 l-250 0 l0 157 l-175 0 l-57 -157 l-44 0 l249 700 l277 0 l0 -42 l-204 0 l0 -282 l169 0 ZM140 198 l163 0 l0 445 l-163 -445 Z" /><glyph glyph-name="B" unicode="b" d="M187 700 q79 0 111 -38 q32 -38 32 -111 l0 -40 q0 -57 -19.5 -92 q-19.5 -35 -72.5 -46 q57 -11 81 -50.5 q24 -39.5 24 -99.5 l0 -61 q0 -76 -36 -119 q-36 -43 -117 -43 l-150 0 l0 700 l147 0 ZM164 391 q31 0 53.5 5 q22.5 5 37.5 17.5 q15 12.5 22 34 q7 21.5 7 54.5 l0 45 q0 55 -21 83 q-21 28 -77 28 l-100 0 l0 -267 l78 0 ZM190 42 q58 0 82.5 31 q24.5 31 24.5 90 l0 63 q0 68 -31 95.5 q-31 27.5 -93 27.5 l-87 0 l0 -307 l104 0 Z" /><glyph glyph-name="C" unicode="c" d="M188 706 q40 0 68.5 -13.5 q28.5 -13.5 47 -37 q18.5 -23.5 27 -56 q8.5 -32.5 8.5 -70.5 l0 -58 l-44 0 l0 61 q0 28 -5.5 52 q-5.5 24 -18.5 42 q-13 18 -33 28 q-20 10 -49 10 q-29 0 -49 -10 q-20 -10 -33 -28 q-13 -18 -18.5 -42 q-5.5 -24 -5.5 -52 l0 -364 q0 -28 5.5 -52 q5.5 -24 18.5 -41.5 q13 -17.5 33 -27.5 q20 -10 49 -10 q29 0 49 10 q20 10 33 27.5 q13 17.5 18.5 41.5 q5.5 24 5.5 52 l0 83 l44 0 l0 -80 q0 -38 -8.5 -70.5 q-8.5 -32.5 -27 -56 q-18.5 -23.5 -47 -37 q-28.5 -13.5 -68.5 -13.5 q-40 0 -68.5 13.5 q-28.5 13.5 -47 37 q-18.5 23.5 -27 56 q-8.5 32.5 -8.5 70.5 l0 358 q0 38 8.5 70.5 q8.5 32.5 27 56 q18.5 23.5 47 37 q28.5 13.5 68.5 13.5 Z" /><glyph glyph-name="Cacute" unicode="&#x106;" d="M273 842 l-84 -95 l-35 0 l71 95 l48 0 ZM188 706 q40 0 68.5 -13.5 q28.5 -13.5 47 -37 q18.5 -23.5 27 -56 q8.5 -32.5 8.5 -70.5 l0 -58 l-44 0 l0 61 q0 28 -5.5 52 q-5.5 24 -18.5 42 q-13 18 -33 28 q-20 10 -49 10 q-29 0 -49 -10 q-20 -10 -33 -28 q-13 -18 -18.5 -42 q-5.5 -24 -5.5 -52 l0 -364 q0 -28 5.5 -52 q5.5 -24 18.5 -41.5 q13 -17.5 33 -27.5 q20 -10 49 -10 q29 0 49 10 q20 10 33 27.5 q13 17.5 18.5 41.5 q5.5 24 5.5 52 l0 83 l44 0 l0 -80 q0 -38 -8.5 -70.5 q-8.5 -32.5 -27 -56 q-18.5 -23.5 -47 -37 q-28.5 -13.5 -68.5 -13.5 q-40 0 -68.5 13.5 q-28.5 13.5 -47 37 q-18.5 23.5 -27 56 q-8.5 32.5 -8.5 70.5 l0 358 q0 38 8.5 70.5 q8.5 32.5 27 56 q18.5 23.5 47 37 q28.5 13.5 68.5 13.5 Z" /><glyph glyph-name="Ccaron" unicode="&#x10c;" d="M131 834 l62 -64 l61 64 l43 0 l-84 -90 l-40 0 l-84 90 l42 0 ZM188 706 q40 0 68.5 -13.5 q28.5 -13.5 47 -37 q18.5 -23.5 27 -56 q8.5 -32.5 8.5 -70.5 l0 -58 l-44 0 l0 61 q0 28 -5.5 52 q-5.5 24 -18.5 42 q-13 18 -33 28 q-20 10 -49 10 q-29 0 -49 -10 q-20 -10 -33 -28 q-13 -18 -18.5 -42 q-5.5 -24 -5.5 -52 l0 -364 q0 -28 5.5 -52 q5.5 -24 18.5 -41.5 q13 -17.5 33 -27.5 q20 -10 49 -10 q29 0 49 10 q20 10 33 27.5 q13 17.5 18.5 41.5 q5.5 24 5.5 52 l0 83 l44 0 l0 -80 q0 -38 -8.5 -70.5 q-8.5 -32.5 -27 -56 q-18.5 -23.5 -47 -37 q-28.5 -13.5 -68.5 -13.5 q-40 0 -68.5 13.5 q-28.5 13.5 -47 37 q-18.5 23.5 -27 56 q-8.5 32.5 -8.5 70.5 l0 358 q0 38 8.5 70.5 q8.5 32.5 27 56 q18.5 23.5 47 37 q28.5 13.5 68.5 13.5 Z" /><glyph glyph-name="Ccedilla" unicode="ç" d="M188 706 q40 0 68.5 -13.5 q28.5 -13.5 47 -37 q18.5 -23.5 27 -56 q8.5 -32.5 8.5 -70.5 l0 -58 l-44 0 l0 61 q0 28 -5.5 52 q-5.5 24 -18.5 42 q-13 18 -33 28 q-20 10 -49 10 q-29 0 -49 -10 q-20 -10 -33 -28 q-13 -18 -18.5 -42 q-5.5 -24 -5.5 -52 l0 -364 q0 -28 5.5 -52 q5.5 -24 18.5 -41.5 q13 -17.5 33 -27.5 q20 -10 49 -10 q29 0 49 10 q20 10 33 27.5 q13 17.5 18.5 41.5 q5.5 24 5.5 52 l0 83 l44 0 l0 -80 q0 -36 -8 -67.5 q-8 -31.5 -25 -55.5 q-17 -24 -43.5 -38 q-26.5 -14 -63.5 -16 l0 -28 q35 -1 55 -15.5 q20 -14.5 20 -40.5 q0 -31 -23.5 -48 q-23.5 -17 -65.5 -16 q-42 0 -65 16.5 q-23 16.5 -23 46.5 l0 6 l32 0 l0 -5 q0 -17 15 -27 q15 -10 41 -12 q27 0 42 10.5 q15 10.5 15 29.5 q0 17 -15.5 27 q-15.5 10 -44.5 10 l-7 0 l0 47 q-37 2 -63 16 q-26 14 -42.5 37.5 q-16.5 23.5 -24.5 55 q-8 31.5 -8 67.5 l0 358 q0 38 8.5 70.5 q8.5 32.5 27 56 q18.5 23.5 47 37 q28.5 13.5 68.5 13.5 Z" /><glyph glyph-name="Ccircumflex" unicode="&#x108;" d="M130 743 l-43 0 l84 90 l40 0 l85 -90 l-44 0 l-61 64 l-61 -64 ZM188 706 q40 0 68.5 -13.5 q28.5 -13.5 47 -37 q18.5 -23.5 27 -56 q8.5 -32.5 8.5 -70.5 l0 -58 l-44 0 l0 61 q0 28 -5.5 52 q-5.5 24 -18.5 42 q-13 18 -33 28 q-20 10 -49 10 q-29 0 -49 -10 q-20 -10 -33 -28 q-13 -18 -18.5 -42 q-5.5 -24 -5.5 -52 l0 -364 q0 -28 5.5 -52 q5.5 -24 18.5 -41.5 q13 -17.5 33 -27.5 q20 -10 49 -10 q29 0 49 10 q20 10 33 27.5 q13 17.5 18.5 41.5 q5.5 24 5.5 52 l0 83 l44 0 l0 -80 q0 -38 -8.5 -70.5 q-8.5 -32.5 -27 -56 q-18.5 -23.5 -47 -37 q-28.5 -13.5 -68.5 -13.5 q-40 0 -68.5 13.5 q-28.5 13.5 -47 37 q-18.5 23.5 -27 56 q-8.5 32.5 -8.5 70.5 l0 358 q0 38 8.5 70.5 q8.5 32.5 27 56 q18.5 23.5 47 37 q28.5 13.5 68.5 13.5 Z" /><glyph glyph-name="Cdotaccent" unicode="&#x10a;" d="M208 824 l0 -84 l-41 0 l0 84 l41 0 ZM188 706 q40 0 68.5 -13.5 q28.5 -13.5 47 -37 q18.5 -23.5 27 -56 q8.5 -32.5 8.5 -70.5 l0 -58 l-44 0 l0 61 q0 28 -5.5 52 q-5.5 24 -18.5 42 q-13 18 -33 28 q-20 10 -49 10 q-29 0 -49 -10 q-20 -10 -33 -28 q-13 -18 -18.5 -42 q-5.5 -24 -5.5 -52 l0 -364 q0 -28 5.5 -52 q5.5 -24 18.5 -41.5 q13 -17.5 33 -27.5 q20 -10 49 -10 q29 0 49 10 q20 10 33 27.5 q13 17.5 18.5 41.5 q5.5 24 5.5 52 l0 83 l44 0 l0 -80 q0 -38 -8.5 -70.5 q-8.5 -32.5 -27 -56 q-18.5 -23.5 -47 -37 q-28.5 -13.5 -68.5 -13.5 q-40 0 -68.5 13.5 q-28.5 13.5 -47 37 q-18.5 23.5 -27 56 q-8.5 32.5 -8.5 70.5 l0 358 q0 38 8.5 70.5 q8.5 32.5 27 56 q18.5 23.5 47 37 q28.5 13.5 68.5 13.5 Z" /><glyph glyph-name="D" unicode="d" d="M194 700 q40 0 69.5 -12.5 q29.5 -12.5 48.5 -35.5 q19 -23 28 -55 q9 -32 9 -71 l0 -352 q0 -39 -9 -71 q-9 -32 -28 -55 q-19 -23 -48.5 -35.5 q-29.5 -12.5 -69.5 -12.5 l-154 0 l0 700 l154 0 ZM193 42 q59 0 84.5 36 q25.5 36 25.5 94 l0 356 q0 58 -26 94 q-26 36 -84 36 l-107 0 l0 -616 l107 0 Z" /><glyph glyph-name="Eth" unicode="ð" d="M194 700 q40 0 69.5 -12.5 q29.5 -12.5 48.5 -35.5 q19 -23 28 -55 q9 -32 9 -71 l0 -352 q0 -39 -9 -71 q-9 -32 -28 -55 q-19 -23 -48.5 -35.5 q-29.5 -12.5 -69.5 -12.5 l-154 0 l0 331 l-46 0 l0 38 l46 0 l0 331 l154 0 ZM175 331 l-89 0 l0 -289 l107 0 q59 0 84.5 36 q25.5 36 25.5 94 l0 356 q0 58 -26 94 q-26 36 -84 36 l-107 0 l0 -289 l89 0 l0 -38 Z" /><glyph glyph-name="Dcaron" unicode="&#x10e;" d="M121 830 l61 -64 l61 64 l44 0 l-85 -90 l-40 0 l-84 90 l43 0 ZM194 700 q40 0 69.5 -12.5 q29.5 -12.5 48.5 -35.5 q19 -23 28 -55 q9 -32 9 -71 l0 -352 q0 -39 -9 -71 q-9 -32 -28 -55 q-19 -23 -48.5 -35.5 q-29.5 -12.5 -69.5 -12.5 l-154 0 l0 700 l154 0 ZM193 42 q59 0 84.5 36 q25.5 36 25.5 94 l0 356 q0 58 -26 94 q-26 36 -84 36 l-107 0 l0 -616 l107 0 Z" /><glyph glyph-name="Dcroat" unicode="&#x110;" d="M194 700 q40 0 69.5 -12.5 q29.5 -12.5 48.5 -35.5 q19 -23 28 -55 q9 -32 9 -71 l0 -352 q0 -39 -9 -71 q-9 -32 -28 -55 q-19 -23 -48.5 -35.5 q-29.5 -12.5 -69.5 -12.5 l-154 0 l0 330 l-42 0 l0 38 l42 0 l0 332 l154 0 ZM176 330 l-90 0 l0 -288 l107 0 q59 0 84.5 36 q25.5 36 25.5 94 l0 356 q0 58 -26 94 q-26 36 -84 36 l-107 0 l0 -290 l90 0 l0 -38 Z" /><glyph glyph-name="E" unicode="e" d="M277 376 l0 -42 l-191 0 l0 -292 l230 0 l0 -42 l-276 0 l0 700 l276 0 l0 -42 l-230 0 l0 -282 l191 0 Z" /><glyph glyph-name="Eacute" unicode="é" d="M260 835 l-84 -95 l-35 0 l71 95 l48 0 ZM277 376 l0 -42 l-191 0 l0 -292 l230 0 l0 -42 l-276 0 l0 700 l276 0 l0 -42 l-230 0 l0 -282 l191 0 Z" /><glyph glyph-name="Ebreve" unicode="&#x114;" d="M274 832 q-2 -42 -29 -65 q-27 -23 -69 -23 q-42 0 -68.5 23 q-26.5 23 -27.5 65 l30 0 q1 -31 20.5 -44 q19.5 -13 45.5 -13 q27 0 46.5 13 q19.5 13 21.5 44 l30 0 ZM277 376 l0 -42 l-191 0 l0 -292 l230 0 l0 -42 l-276 0 l0 700 l276 0 l0 -42 l-230 0 l0 -282 l191 0 Z" /><glyph glyph-name="Ecaron" unicode="&#x11a;" d="M119 831 l61 -64 l61 64 l43 0 l-84 -90 l-40 0 l-84 90 l43 0 ZM277 376 l0 -42 l-191 0 l0 -292 l230 0 l0 -42 l-276 0 l0 700 l276 0 l0 -42 l-230 0 l0 -282 l191 0 Z" /><glyph glyph-name="Ecircumflex" unicode="ê" d="M116 741 l-43 0 l84 90 l40 0 l85 -90 l-44 0 l-61 64 l-61 -64 ZM277 376 l0 -42 l-191 0 l0 -292 l230 0 l0 -42 l-276 0 l0 700 l276 0 l0 -42 l-230 0 l0 -282 l191 0 Z" /><glyph glyph-name="Edieresis" unicode="ë" d="M149 825 l0 -85 l-40 0 l0 85 l40 0 ZM246 825 l0 -85 l-41 0 l0 85 l41 0 ZM277 376 l0 -42 l-191 0 l0 -292 l230 0 l0 -42 l-276 0 l0 700 l276 0 l0 -42 l-230 0 l0 -282 l191 0 Z" /><glyph glyph-name="Edotaccent" unicode="&#x116;" d="M200 827 l0 -85 l-41 0 l0 85 l41 0 ZM277 376 l0 -42 l-191 0 l0 -292 l230 0 l0 -42 l-276 0 l0 700 l276 0 l0 -42 l-230 0 l0 -282 l191 0 Z" /><glyph glyph-name="Egrave" unicode="è" d="M153 842 l71 -95 l-37 0 l-84 95 l50 0 ZM277 376 l0 -42 l-191 0 l0 -292 l230 0 l0 -42 l-276 0 l0 700 l276 0 l0 -42 l-230 0 l0 -282 l191 0 Z" /><glyph glyph-name="Emacron" unicode="&#x112;" d="M269 796 l0 -34 l-188 0 l0 34 l188 0 ZM277 376 l0 -42 l-191 0 l0 -292 l230 0 l0 -42 l-276 0 l0 700 l276 0 l0 -42 l-230 0 l0 -282 l191 0 Z" /><glyph glyph-name="Eogonek" unicode="&#x118;" d="M277 376 l0 -42 l-191 0 l0 -292 l230 0 l0 -42 l-22 0 q-19 -15 -33 -38 q-14 -23 -13 -42 q1 -17 12.5 -24.5 q11.5 -7.5 26.5 -7.5 q14 0 24.5 3.5 q10.5 3.5 19.5 9.5 l0 -30 q-25 -13 -57 -13 q-27 1 -44 14 q-17 13 -19 39 q-1 24 14.5 48 q15.5 24 38.5 41 l-224 0 l0 700 l276 0 l0 -42 l-230 0 l0 -282 l191 0 Z" /><glyph glyph-name="F" unicode="f" d="M267 359 l0 -42 l-181 0 l0 -317 l-46 0 l0 700 l266 0 l0 -42 l-220 0 l0 -299 l181 0 Z" /><glyph glyph-name="G" unicode="g" d="M188 706 q40 0 68.5 -13.5 q28.5 -13.5 47 -37 q18.5 -23.5 27 -56 q8.5 -32.5 8.5 -70.5 l0 -52 l-44 0 l0 55 q0 28 -5.5 52 q-5.5 24 -18.5 42 q-13 18 -33 28 q-20 10 -49 10 q-29 0 -49 -10 q-20 -10 -33 -28 q-13 -18 -18.5 -42 q-5.5 -24 -5.5 -52 l0 -364 q0 -28 5.5 -52 q5.5 -24 18.5 -41.5 q13 -17.5 33 -27.5 q20 -10 49 -10 q29 0 49 10 q20 10 33 27.5 q13 17.5 18.5 41.5 q5.5 24 5.5 52 l0 151 l-93 0 l0 42 l137 0 l0 -190 q0 -38 -8.5 -70.5 q-8.5 -32.5 -27 -56 q-18.5 -23.5 -47 -37 q-28.5 -13.5 -68.5 -13.5 q-40 0 -68.5 13.5 q-28.5 13.5 -47 37 q-18.5 23.5 -27 56 q-8.5 32.5 -8.5 70.5 l0 358 q0 38 8.5 70.5 q8.5 32.5 27 56 q18.5 23.5 47 37 q28.5 13.5 68.5 13.5 Z" /><glyph glyph-name="Gbreve" unicode="&#x11e;" d="M286 834 q-1 -42 -28 -65 q-27 -23 -69 -23 q-42 0 -69 23 q-27 23 -28 65 l30 0 q2 -31 21 -44 q19 -13 46 -13 q26 0 45.5 13 q19.5 13 21.5 44 l30 0 ZM188 706 q40 0 68.5 -13.5 q28.5 -13.5 47 -37 q18.5 -23.5 27 -56 q8.5 -32.5 8.5 -70.5 l0 -52 l-44 0 l0 55 q0 28 -5.5 52 q-5.5 24 -18.5 42 q-13 18 -33 28 q-20 10 -49 10 q-29 0 -49 -10 q-20 -10 -33 -28 q-13 -18 -18.5 -42 q-5.5 -24 -5.5 -52 l0 -364 q0 -28 5.5 -52 q5.5 -24 18.5 -41.5 q13 -17.5 33 -27.5 q20 -10 49 -10 q29 0 49 10 q20 10 33 27.5 q13 17.5 18.5 41.5 q5.5 24 5.5 52 l0 151 l-93 0 l0 42 l137 0 l0 -190 q0 -38 -8.5 -70.5 q-8.5 -32.5 -27 -56 q-18.5 -23.5 -47 -37 q-28.5 -13.5 -68.5 -13.5 q-40 0 -68.5 13.5 q-28.5 13.5 -47 37 q-18.5 23.5 -27 56 q-8.5 32.5 -8.5 70.5 l0 358 q0 38 8.5 70.5 q8.5 32.5 27 56 q18.5 23.5 47 37 q28.5 13.5 68.5 13.5 Z" /><glyph glyph-name="Gcircumflex" unicode="&#x11c;" d="M128 747 l-43 0 l84 90 l40 0 l84 -90 l-43 0 l-61 64 l-61 -64 ZM188 706 q40 0 68.5 -13.5 q28.5 -13.5 47 -37 q18.5 -23.5 27 -56 q8.5 -32.5 8.5 -70.5 l0 -52 l-44 0 l0 55 q0 28 -5.5 52 q-5.5 24 -18.5 42 q-13 18 -33 28 q-20 10 -49 10 q-29 0 -49 -10 q-20 -10 -33 -28 q-13 -18 -18.5 -42 q-5.5 -24 -5.5 -52 l0 -364 q0 -28 5.5 -52 q5.5 -24 18.5 -41.5 q13 -17.5 33 -27.5 q20 -10 49 -10 q29 0 49 10 q20 10 33 27.5 q13 17.5 18.5 41.5 q5.5 24 5.5 52 l0 151 l-93 0 l0 42 l137 0 l0 -190 q0 -38 -8.5 -70.5 q-8.5 -32.5 -27 -56 q-18.5 -23.5 -47 -37 q-28.5 -13.5 -68.5 -13.5 q-40 0 -68.5 13.5 q-28.5 13.5 -47 37 q-18.5 23.5 -27 56 q-8.5 32.5 -8.5 70.5 l0 358 q0 38 8.5 70.5 q8.5 32.5 27 56 q18.5 23.5 47 37 q28.5 13.5 68.5 13.5 Z" /><glyph glyph-name="Gdotaccent" unicode="&#x120;" d="M214 828 l0 -85 l-40 0 l0 85 l40 0 ZM188 706 q40 0 68.5 -13.5 q28.5 -13.5 47 -37 q18.5 -23.5 27 -56 q8.5 -32.5 8.5 -70.5 l0 -52 l-44 0 l0 55 q0 28 -5.5 52 q-5.5 24 -18.5 42 q-13 18 -33 28 q-20 10 -49 10 q-29 0 -49 -10 q-20 -10 -33 -28 q-13 -18 -18.5 -42 q-5.5 -24 -5.5 -52 l0 -364 q0 -28 5.5 -52 q5.5 -24 18.5 -41.5 q13 -17.5 33 -27.5 q20 -10 49 -10 q29 0 49 10 q20 10 33 27.5 q13 17.5 18.5 41.5 q5.5 24 5.5 52 l0 151 l-93 0 l0 42 l137 0 l0 -190 q0 -38 -8.5 -70.5 q-8.5 -32.5 -27 -56 q-18.5 -23.5 -47 -37 q-28.5 -13.5 -68.5 -13.5 q-40 0 -68.5 13.5 q-28.5 13.5 -47 37 q-18.5 23.5 -27 56 q-8.5 32.5 -8.5 70.5 l0 358 q0 38 8.5 70.5 q8.5 32.5 27 56 q18.5 23.5 47 37 q28.5 13.5 68.5 13.5 Z" /><glyph glyph-name="H" unicode="h" d="M86 329 l0 -329 l-46 0 l0 700 l46 0 l0 -329 l218 0 l0 329 l47 0 l0 -700 l-47 0 l0 329 l-218 0 Z" /><glyph glyph-name="Hbar" unicode="&#x126;" d="M352 525 l0 -525 l-46 0 l0 329 l-218 0 l0 -329 l-46 0 l0 525 l-38 0 l0 35 l38 0 l0 140 l46 0 l0 -140 l218 0 l0 140 l46 0 l0 -140 l37 0 l0 -35 l-37 0 ZM306 525 l-218 0 l0 -154 l218 0 l0 154 Z" /><glyph glyph-name="Hcircumflex" unicode="&#x124;" d="M134 745 l-43 0 l84 90 l40 0 l85 -90 l-44 0 l-61 64 l-61 -64 ZM86 329 l0 -329 l-46 0 l0 700 l46 0 l0 -329 l218 0 l0 329 l47 0 l0 -700 l-47 0 l0 329 l-218 0 Z" /><glyph glyph-name="I" unicode="i" d="M86 700 l0 -700 l-46 0 l0 700 l46 0 Z" /><glyph glyph-name="IJ" unicode="&#x132;" d="M86 700 l0 -700 l-46 0 l0 700 l46 0 ZM341 172 q0 -47 -10 -79 q-10 -32 -29 -52.5 q-19 -20.5 -45.5 -30 q-26.5 -9.5 -59.5 -11.5 q-11 0 -21 0 q-10 0 -21 1 l0 42 l37 0 q54 4 78.5 33 q24.5 29 24.5 94 l0 531 l46 0 l0 -528 Z" /><glyph glyph-name="Iacute" unicode="í" d="M96 836 l48 0 l-84 -95 l-35 0 l71 95 ZM40 700 l46 0 l0 -700 l-46 0 l0 700 Z" /><glyph glyph-name="Ibreve" unicode="&#x12c;" d="M160 828 q-1 -42 -28 -65.5 q-27 -23.5 -69 -23.5 q-42 0 -69 23.5 q-27 23.5 -28 65.5 l30 0 q2 -31 21.5 -44.5 q19.5 -13.5 45.5 -13.5 q26 0 45.5 13.5 q19.5 13.5 21.5 44.5 l30 0 ZM40 700 l46 0 l0 -700 l-46 0 l0 700 Z" /><glyph glyph-name="Icircumflex" unicode="î" d="M83 830 l84 -90 l-43 0 l-61 64 l-61 -64 l-43 0 l84 90 l40 0 ZM40 700 l46 0 l0 -700 l-46 0 l0 700 Z" /><glyph glyph-name="Idieresis" unicode="ï" d="M35 825 l0 -84 l-41 0 l0 84 l41 0 ZM132 825 l0 -84 l-41 0 l0 84 l41 0 ZM86 700 l0 -700 l-46 0 l0 700 l46 0 Z" /><glyph glyph-name="Idotaccent" unicode="&#x130;" d="M83 825 l0 -84 l-40 0 l0 84 l40 0 ZM86 700 l0 -700 l-46 0 l0 700 l46 0 Z" /><glyph glyph-name="Igrave" unicode="ì" d="M-24 835 l49 0 l71 -95 l-36 0 l-84 95 ZM40 700 l46 0 l0 -700 l-46 0 l0 700 Z" /><glyph glyph-name="Imacron" unicode="&#x12a;" d="M147 793 l0 -33 l-168 0 l0 33 l168 0 ZM86 700 l0 -700 l-46 0 l0 700 l46 0 Z" /><glyph glyph-name="Iogonek" unicode="&#x12e;" d="M80 0 q-20 -17 -32.5 -39 q-12.5 -22 -11.5 -41 q1 -17 12.5 -24.5 q11.5 -7.5 26.5 -7.5 q26 0 44 13 l0 -30 q-25 -13 -56 -13 q-26 1 -44 14 q-18 13 -20 39 q-1 23 11.5 46.5 q12.5 23.5 36.5 42.5 l-8 0 l1 700 l46 0 l0 -700 l-6 0 Z" /><glyph glyph-name="Itilde" unicode="&#x128;" d="M173 799 q-20 -47 -58 -48 q-14 0 -26 5 q-12 5 -23 11.5 q-11 6.5 -22 11.5 q-11 5 -23 5 q-25 0 -41 -30 l-25 17 q22 47 62 47 q15 0 27 -5 q12 -5 23.5 -11.5 q11.5 -6.5 22 -11.5 q10.5 -5 21.5 -5 q12 0 21 8.5 q9 8.5 16 21.5 l25 -16 ZM86 700 l0 -700 l-46 0 l0 700 l46 0 Z" /><glyph glyph-name="J" unicode="j" d="M29 42 q11 -1 21 -0.5 q10 0.5 20 1.5 q50 4 74.5 32.5 q24.5 28.5 24.5 93.5 l0 531 l46 0 l0 -528 q0 -92 -38 -130.5 q-38 -38.5 -102 -41.5 q-22 -1 -46 0 l0 42 Z" /><glyph glyph-name="Jcircumflex" unicode="&#x134;" d="M124 741 l-43 0 l84 90 l40 0 l85 -90 l-44 0 l-61 64 l-61 -64 ZM215 172 q0 -92 -38 -130.5 q-38 -38.5 -102 -41.5 q-22 -1 -46 0 l0 42 q11 -1 21 -0.5 q10 0.5 20 1.5 q50 4 74.5 32.5 q24.5 28.5 24.5 93.5 l0 531 l46 0 l0 -528 Z" /><glyph glyph-name="K" unicode="k" d="M134 329 l-48 -76 l0 -253 l-46 0 l0 700 l46 0 l0 -370 l228 370 l48 0 l-200 -326 l213 -374 l-48 0 l-193 329 Z" /><glyph glyph-name="L" unicode="l" d="M40 0 l0 700 l46 0 l0 -658 l220 0 l0 -42 l-266 0 Z" /><glyph glyph-name="Lacute" unicode="&#x139;" d="M165 835 l-84 -95 l-35 0 l72 95 l47 0 ZM40 0 l0 700 l46 0 l0 -658 l220 0 l0 -42 l-266 0 Z" /><glyph glyph-name="Lcaron" unicode="&#x13d;" d="M40 0 l0 700 l46 0 l0 -658 l220 0 l0 -42 l-266 0 ZM231 612 l-16 0 l0 88 l45 0 l0 -84 l-29 -80 l-20 0 l20 76 Z" /><glyph glyph-name="Ldot" unicode="&#x13f;" d="M40 0 l0 700 l46 0 l0 -658 l220 0 l0 -42 l-266 0 ZM230 397 l0 -88 l-45 0 l0 88 l45 0 Z" /><glyph glyph-name="Lslash" unicode="&#x141;" d="M99 317 l0 -275 l220 0 l0 -42 l-266 0 l0 268 l-53 -49 l0 44 l53 49 l0 388 l46 0 l0 -339 l96 96 l0 -45 l-96 -95 Z" /><glyph glyph-name="M" unicode="m" d="M275 1 l-46 0 l-148 619 l0 -620 l-41 0 l0 700 l66 0 l147 -619 l146 619 l66 0 l0 -700 l-44 0 l0 622 l-146 -621 Z" /><glyph glyph-name="N" unicode="n" d="M82 0 l-42 0 l0 700 l60 0 l210 -591 l0 591 l42 0 l0 -700 l-51 0 l-219 624 l0 -624 Z" /><glyph glyph-name="Nacute" unicode="&#x143;" d="M282 837 l-84 -95 l-35 0 l72 95 l47 0 ZM82 1 l-42 0 l0 700 l60 0 l210 -591 l0 591 l42 0 l0 -700 l-51 0 l-219 624 l0 -624 Z" /><glyph glyph-name="Ncaron" unicode="&#x147;" d="M136 835 l61 -63 l61 63 l43 0 l-84 -90 l-40 0 l-84 90 l43 0 ZM82 0 l-42 0 l0 700 l60 0 l210 -591 l0 591 l42 0 l0 -700 l-51 0 l-219 624 l0 -624 Z" /><glyph glyph-name="Ntilde" unicode="ñ" d="M305 802 q-19 -45 -58 -47 q-14 0 -25.5 5 q-11.5 5 -22.5 11.5 q-11 6.5 -22 11.5 q-11 5 -23 5 q-25 0 -42 -30 l-24 16 q19 46 62 48 q14 0 26 -5 q12 -5 23.5 -11.5 q11.5 -6.5 22 -12 q10.5 -5.5 21.5 -4.5 q13 0 22 8.5 q9 8.5 16 21.5 l24 -17 ZM82 0 l-42 0 l0 700 l60 0 l210 -591 l0 591 l42 0 l0 -700 l-51 0 l-219 624 l0 -624 Z" /><glyph glyph-name="O" unicode="o" d="M37 529 q0 38 9 70.5 q9 32.5 27.5 56 q18.5 23.5 47.5 37 q29 13.5 69 13.5 q40 0 69.5 -13.5 q29.5 -13.5 48.5 -37 q19 -23.5 28 -56 q9 -32.5 9 -70.5 l0 -358 q0 -38 -9 -70.5 q-9 -32.5 -28 -56 q-19 -23.5 -48.5 -37 q-29.5 -13.5 -69.5 -13.5 q-40 0 -69 13.5 q-29 13.5 -47.5 37 q-18.5 23.5 -27.5 56 q-9 32.5 -9 70.5 l0 358 ZM83 168 q0 -57 24.5 -94.5 q24.5 -37.5 82.5 -37.5 q58 0 83.5 37.5 q25.5 37.5 25.5 94.5 l0 364 q0 57 -25.5 94.5 q-25.5 37.5 -83.5 37.5 q-58 0 -82.5 -37.5 q-24.5 -37.5 -24.5 -94.5 l0 -364 Z" /><glyph glyph-name="Oacute" unicode="ó" d="M271 842 l-84 -95 l-35 0 l71 95 l48 0 ZM190 706 q40 0 69.5 -13.5 q29.5 -13.5 48.5 -37 q19 -23.5 28 -56 q9 -32.5 9 -70.5 l0 -358 q0 -38 -9 -70.5 q-9 -32.5 -28 -56 q-19 -23.5 -48.5 -37 q-29.5 -13.5 -69.5 -13.5 q-40 0 -69 13.5 q-29 13.5 -47.5 37 q-18.5 23.5 -27.5 56 q-9 32.5 -9 70.5 l0 358 q0 38 9 70.5 q9 32.5 27.5 56 q18.5 23.5 47.5 37 q29 13.5 69 13.5 ZM190 664 q-58 0 -82.5 -37.5 q-24.5 -37.5 -24.5 -94.5 l0 -364 q0 -57 24.5 -94.5 q24.5 -37.5 82.5 -37.5 q58 0 83.5 37.5 q25.5 37.5 25.5 94.5 l0 364 q0 57 -25.5 94.5 q-25.5 37.5 -83.5 37.5 Z" /><glyph glyph-name="Obreve" unicode="&#x14e;" d="M288 834 q-2 -42 -29 -65 q-27 -23 -69 -23 q-42 0 -68.5 23 q-26.5 23 -27.5 65 l29 0 q2 -31 21.5 -44 q19.5 -13 45.5 -13 q26 0 46 13 q20 13 22 44 l30 0 ZM190 706 q40 0 69.5 -13.5 q29.5 -13.5 48.5 -37 q19 -23.5 28 -56 q9 -32.5 9 -70.5 l0 -358 q0 -38 -9 -70.5 q-9 -32.5 -28 -56 q-19 -23.5 -48.5 -37 q-29.5 -13.5 -69.5 -13.5 q-40 0 -69 13.5 q-29 13.5 -47.5 37 q-18.5 23.5 -27.5 56 q-9 32.5 -9 70.5 l0 358 q0 38 9 70.5 q9 32.5 27.5 56 q18.5 23.5 47.5 37 q29 13.5 69 13.5 ZM190 664 q-58 0 -82.5 -37.5 q-24.5 -37.5 -24.5 -94.5 l0 -364 q0 -57 24.5 -94.5 q24.5 -37.5 82.5 -37.5 q58 0 83.5 37.5 q25.5 37.5 25.5 94.5 l0 364 q0 57 -25.5 94.5 q-25.5 37.5 -83.5 37.5 Z" /><glyph glyph-name="Ocircumflex" unicode="ô" d="M129 745 l-43 0 l84 90 l40 0 l84 -90 l-43 0 l-61 64 l-61 -64 ZM190 706 q40 0 69.5 -13.5 q29.5 -13.5 48.5 -37 q19 -23.5 28 -56 q9 -32.5 9 -70.5 l0 -358 q0 -38 -9 -70.5 q-9 -32.5 -28 -56 q-19 -23.5 -48.5 -37 q-29.5 -13.5 -69.5 -13.5 q-40 0 -69 13.5 q-29 13.5 -47.5 37 q-18.5 23.5 -27.5 56 q-9 32.5 -9 70.5 l0 358 q0 38 9 70.5 q9 32.5 27.5 56 q18.5 23.5 47.5 37 q29 13.5 69 13.5 ZM190 664 q-58 0 -82.5 -37.5 q-24.5 -37.5 -24.5 -94.5 l0 -364 q0 -57 24.5 -94.5 q24.5 -37.5 82.5 -37.5 q58 0 83.5 37.5 q25.5 37.5 25.5 94.5 l0 364 q0 57 -25.5 94.5 q-25.5 37.5 -83.5 37.5 Z" /><glyph glyph-name="Odieresis" unicode="ö" d="M162 830 l0 -85 l-41 0 l0 85 l41 0 ZM259 830 l0 -85 l-41 0 l0 85 l41 0 ZM190 706 q40 0 69.5 -13.5 q29.5 -13.5 48.5 -37 q19 -23.5 28 -56 q9 -32.5 9 -70.5 l0 -358 q0 -38 -9 -70.5 q-9 -32.5 -28 -56 q-19 -23.5 -48.5 -37 q-29.5 -13.5 -69.5 -13.5 q-40 0 -69 13.5 q-29 13.5 -47.5 37 q-18.5 23.5 -27.5 56 q-9 32.5 -9 70.5 l0 358 q0 38 9 70.5 q9 32.5 27.5 56 q18.5 23.5 47.5 37 q29 13.5 69 13.5 ZM190 664 q-58 0 -82.5 -37.5 q-24.5 -37.5 -24.5 -94.5 l0 -364 q0 -57 24.5 -94.5 q24.5 -37.5 82.5 -37.5 q58 0 83.5 37.5 q25.5 37.5 25.5 94.5 l0 364 q0 57 -25.5 94.5 q-25.5 37.5 -83.5 37.5 Z" /><glyph glyph-name="Ograve" unicode="ò" d="M158 842 l71 -95 l-37 0 l-84 95 l50 0 ZM190 706 q40 0 69.5 -13.5 q29.5 -13.5 48.5 -37 q19 -23.5 28 -56 q9 -32.5 9 -70.5 l0 -358 q0 -38 -9 -70.5 q-9 -32.5 -28 -56 q-19 -23.5 -48.5 -37 q-29.5 -13.5 -69.5 -13.5 q-40 0 -69 13.5 q-29 13.5 -47.5 37 q-18.5 23.5 -27.5 56 q-9 32.5 -9 70.5 l0 358 q0 38 9 70.5 q9 32.5 27.5 56 q18.5 23.5 47.5 37 q29 13.5 69 13.5 ZM190 664 q-58 0 -82.5 -37.5 q-24.5 -37.5 -24.5 -94.5 l0 -364 q0 -57 24.5 -94.5 q24.5 -37.5 82.5 -37.5 q58 0 83.5 37.5 q25.5 37.5 25.5 94.5 l0 364 q0 57 -25.5 94.5 q-25.5 37.5 -83.5 37.5 Z" /><glyph glyph-name="Ohungarumlaut" unicode="&#x150;" d="M228 842 l-77 -95 l-33 0 l65 95 l45 0 ZM313 842 l-78 -95 l-32 0 l65 95 l45 0 ZM190 706 q40 0 69.5 -13.5 q29.5 -13.5 48.5 -37 q19 -23.5 28 -56 q9 -32.5 9 -70.5 l0 -358 q0 -38 -9 -70.5 q-9 -32.5 -28 -56 q-19 -23.5 -48.5 -37 q-29.5 -13.5 -69.5 -13.5 q-40 0 -69 13.5 q-29 13.5 -47.5 37 q-18.5 23.5 -27.5 56 q-9 32.5 -9 70.5 l0 358 q0 38 9 70.5 q9 32.5 27.5 56 q18.5 23.5 47.5 37 q29 13.5 69 13.5 ZM190 664 q-58 0 -82.5 -37.5 q-24.5 -37.5 -24.5 -94.5 l0 -364 q0 -57 24.5 -94.5 q24.5 -37.5 82.5 -37.5 q58 0 83.5 37.5 q25.5 37.5 25.5 94.5 l0 364 q0 57 -25.5 94.5 q-25.5 37.5 -83.5 37.5 Z" /><glyph glyph-name="Omacron" unicode="&#x14c;" d="M285 794 l0 -34 l-187 0 l0 34 l187 0 ZM190 706 q40 0 69.5 -13.5 q29.5 -13.5 48.5 -37 q19 -23.5 28 -56 q9 -32.5 9 -70.5 l0 -358 q0 -38 -9 -70.5 q-9 -32.5 -28 -56 q-19 -23.5 -48.5 -37 q-29.5 -13.5 -69.5 -13.5 q-40 0 -69 13.5 q-29 13.5 -47.5 37 q-18.5 23.5 -27.5 56 q-9 32.5 -9 70.5 l0 358 q0 38 9 70.5 q9 32.5 27.5 56 q18.5 23.5 47.5 37 q29 13.5 69 13.5 ZM190 664 q-58 0 -82.5 -37.5 q-24.5 -37.5 -24.5 -94.5 l0 -364 q0 -57 24.5 -94.5 q24.5 -37.5 82.5 -37.5 q58 0 83.5 37.5 q25.5 37.5 25.5 94.5 l0 364 q0 57 -25.5 94.5 q-25.5 37.5 -83.5 37.5 Z" /><glyph glyph-name="Oslash" unicode="ø" d="M316 645 q15 -23 22 -52 q7 -29 7 -64 l0 -358 q0 -38 -9 -70.5 q-9 -32.5 -28 -56 q-19 -23.5 -48.5 -37 q-29.5 -13.5 -69.5 -13.5 q-35 0 -62 10.5 q-27 10.5 -45 29.5 l-20 -51 l-23 8 l25 66 q-28 44 -28 114 l0 358 q0 38 9 70.5 q9 32.5 27.5 56 q18.5 23.5 47.5 37 q29 13.5 69 13.5 q36 0 62.5 -10.5 q26.5 -10.5 45.5 -29.5 l19 49 l22 -8 l-23 -62 ZM83 168 q0 -14 1.5 -26.5 q1.5 -12.5 3.5 -24.5 l192 501 q-13 21 -35 33.5 q-22 12.5 -55 12.5 q-58 0 -82.5 -37.5 q-24.5 -37.5 -24.5 -94.5 l0 -364 ZM299 532 q0 28 -6 54 l-192 -503 q13 -22 34.5 -34.5 q21.5 -12.5 54.5 -12.5 q58 0 83.5 37.5 q25.5 37.5 25.5 94.5 l0 364 Z" /><glyph glyph-name="Oslashacute" unicode="&#x1fe;" d="M230 842 l48 0 l-84 -95 l-35 0 l71 95 ZM316 645 q15 -23 22 -52 q7 -29 7 -64 l0 -358 q0 -38 -9 -70.5 q-9 -32.5 -28 -56 q-19 -23.5 -48.5 -37 q-29.5 -13.5 -69.5 -13.5 q-35 0 -62 10.5 q-27 10.5 -45 29.5 l-20 -51 l-23 8 l25 66 q-28 44 -28 114 l0 358 q0 38 9 70.5 q9 32.5 27.5 56 q18.5 23.5 47.5 37 q29 13.5 69 13.5 q36 0 62.5 -10.5 q26.5 -10.5 45.5 -29.5 l19 49 l22 -8 l-23 -62 ZM83 168 q0 -14 1.5 -26.5 q1.5 -12.5 3.5 -24.5 l192 501 q-13 21 -35 33.5 q-22 12.5 -55 12.5 q-58 0 -82.5 -37.5 q-24.5 -37.5 -24.5 -94.5 l0 -364 ZM299 532 q0 28 -6 54 l-192 -503 q13 -22 34.5 -34.5 q21.5 -12.5 54.5 -12.5 q58 0 83.5 37.5 q25.5 37.5 25.5 94.5 l0 364 Z" /><glyph glyph-name="Otilde" unicode="õ" d="M303 800 q-9 -22 -23.5 -34.5 q-14.5 -12.5 -34.5 -13.5 q-14 0 -25.5 5 q-11.5 5 -22.5 11.5 q-11 6.5 -22 12 q-11 5.5 -23 5.5 q-27 0 -42 -31 l-25 17 q22 47 63 47 q14 0 26 -5 q12 -5 23.5 -11.5 q11.5 -6.5 22 -11.5 q10.5 -5 21.5 -5 q13 1 22 9 q9 8 15 21 l25 -16 ZM190 706 q40 0 69.5 -13.5 q29.5 -13.5 48.5 -37 q19 -23.5 28 -56 q9 -32.5 9 -70.5 l0 -358 q0 -38 -9 -70.5 q-9 -32.5 -28 -56 q-19 -23.5 -48.5 -37 q-29.5 -13.5 -69.5 -13.5 q-40 0 -69 13.5 q-29 13.5 -47.5 37 q-18.5 23.5 -27.5 56 q-9 32.5 -9 70.5 l0 358 q0 38 9 70.5 q9 32.5 27.5 56 q18.5 23.5 47.5 37 q29 13.5 69 13.5 ZM190 664 q-58 0 -82.5 -37.5 q-24.5 -37.5 -24.5 -94.5 l0 -364 q0 -57 24.5 -94.5 q24.5 -37.5 82.5 -37.5 q58 0 83.5 37.5 q25.5 37.5 25.5 94.5 l0 364 q0 57 -25.5 94.5 q-25.5 37.5 -83.5 37.5 Z" /><glyph glyph-name="OE" unicode="&#x152;" d="M497 376 l0 -42 l-170 0 l0 -292 l205 0 l0 -42 l-350 0 q-39 0 -67 13.5 q-28 13.5 -45.5 37 q-17.5 23.5 -25.5 55.5 q-8 32 -8 68 l0 352 q0 36 8 68 q8 32 25.5 55.5 q17.5 23.5 45.5 37 q28 13.5 67 13.5 l350 0 l0 -42 l-205 0 l0 -282 l170 0 ZM183 658 q-28 0 -47 -10.5 q-19 -10.5 -31 -28 q-12 -17.5 -17.5 -41 q-5.5 -23.5 -5.5 -50.5 l0 -356 q0 -27 5.5 -50.5 q5.5 -23.5 17.5 -41 q12 -17.5 31 -28 q19 -10.5 47 -10.5 l98 0 l0 616 l-98 0 Z" /><glyph glyph-name="P" unicode="p" d="M185 700 q81 0 115.5 -46.5 q34.5 -46.5 34.5 -123.5 l0 -76 q0 -84 -39 -125 q-39 -41 -123 -41 l-87 0 l0 -288 l-46 0 l0 700 l145 0 ZM173 330 q61 0 88.5 28.5 q27.5 28.5 27.5 92.5 l0 82 q0 57 -22.5 91 q-22.5 34 -81.5 34 l-99 0 l0 -328 l87 0 Z" /><glyph glyph-name="Thorn" unicode="þ" d="M185 578 q81 0 115.5 -46.5 q34.5 -46.5 34.5 -123.5 l0 -76 q0 -84 -39 -125 q-39 -41 -123 -41 l-87 0 l0 -166 l-46 0 l0 700 l46 0 l0 -122 l99 0 ZM173 208 q61 0 88.5 28.5 q27.5 28.5 27.5 92.5 l0 81 q0 58 -22.5 91.5 q-22.5 33.5 -81.5 33.5 l-99 0 l0 -327 l87 0 Z" /><glyph glyph-name="Q" unicode="q" d="M191 706 q40 0 69 -13.5 q29 -13.5 48 -37 q19 -23.5 28 -56 q9 -32.5 9 -70.5 l0 -358 q0 -36 -8 -67 q-8 -31 -25 -54 q9 -16 22.5 -22 q13.5 -6 32.5 -6 l11 0 l0 -41 l-12 0 q-58 0 -83 41 q-17 -13 -40 -20.5 q-23 -7.5 -52 -7.5 q-40 0 -69 13.5 q-29 13.5 -48 37 q-19 23.5 -28 56 q-9 32.5 -9 70.5 l0 358 q0 38 9 70.5 q9 32.5 28 56 q19 23.5 48 37 q29 13.5 69 13.5 ZM191 664 q-58 0 -83 -37.5 q-25 -37.5 -25 -94.5 l0 -364 q0 -57 25 -94.5 q25 -37.5 83 -37.5 q58 0 83 37.5 q25 37.5 25 94.5 l0 364 q0 57 -25 94.5 q-25 37.5 -83 37.5 Z" /><glyph glyph-name="R" unicode="r" d="M186 700 q80 0 115 -42 q35 -42 35 -116 l0 -61 q0 -122 -101 -145 q54 -12 77.5 -49 q23.5 -37 23.5 -94 l0 -109 q0 -22 3 -44.5 q3 -22.5 14 -39.5 l-48 0 q-9 16 -12 35.5 q-3 19.5 -3 48.5 l0 110 q0 35 -9 58 q-9 23 -26.5 36.5 q-17.5 13.5 -41.5 19 q-24 5.5 -54 5.5 l-73 0 l0 -313 l-46 0 l0 700 l146 0 ZM160 355 q31 0 55 5 q24 5 40.5 18 q16.5 13 25.5 36 q9 23 9 58 l0 66 q0 57 -24 88.5 q-24 31.5 -81 31.5 l-99 0 l0 -303 l74 0 Z" /><glyph glyph-name="Racute" unicode="&#x154;" d="M261 842 l-84 -95 l-35 0 l71 95 l48 0 ZM186 700 q80 0 115 -42 q35 -42 35 -116 l0 -61 q0 -122 -101 -145 q54 -12 77.5 -49 q23.5 -37 23.5 -94 l0 -109 q0 -22 3 -44.5 q3 -22.5 14 -39.5 l-48 0 q-9 16 -12 35.5 q-3 19.5 -3 48.5 l0 110 q0 35 -9 58 q-9 23 -26.5 36.5 q-17.5 13.5 -41.5 19 q-24 5.5 -54 5.5 l-73 0 l0 -313 l-46 0 l0 700 l146 0 ZM160 355 q31 0 55 5 q24 5 40.5 18 q16.5 13 25.5 36 q9 23 9 58 l0 66 q0 57 -24 88.5 q-24 31.5 -81 31.5 l-99 0 l0 -303 l74 0 Z" /><glyph glyph-name="Rcaron" unicode="&#x158;" d="M116 836 l61 -64 l61 64 l44 0 l-85 -90 l-40 0 l-84 90 l43 0 ZM186 700 q80 0 115 -42 q35 -42 35 -116 l0 -61 q0 -122 -101 -145 q54 -12 77.5 -49 q23.5 -37 23.5 -94 l0 -109 q0 -22 3 -44.5 q3 -22.5 14 -39.5 l-48 0 q-9 16 -12 35.5 q-3 19.5 -3 48.5 l0 110 q0 35 -9 58 q-9 23 -26.5 36.5 q-17.5 13.5 -41.5 19 q-24 5.5 -54 5.5 l-73 0 l0 -313 l-46 0 l0 700 l146 0 ZM160 355 q31 0 55 5 q24 5 40.5 18 q16.5 13 25.5 36 q9 23 9 58 l0 66 q0 57 -24 88.5 q-24 31.5 -81 31.5 l-99 0 l0 -303 l74 0 Z" /><glyph glyph-name="S" unicode="s" d="M186 706 q40 0 68 -13 q28 -13 46 -36.5 q18 -23.5 26.5 -55.5 q8.5 -32 8.5 -70 l0 -15 l-44 0 l0 18 q0 28 -5.5 51.5 q-5.5 23.5 -18 41 q-12.5 17.5 -32.5 27.5 q-20 10 -48 10 q-57 0 -80.5 -36.5 q-23.5 -36.5 -23.5 -92.5 q0 -43 18.5 -73 q18.5 -30 47 -54.5 q28.5 -24.5 61 -47 q32.5 -22.5 61 -49 q28.5 -26.5 47 -60.5 q18.5 -34 18.5 -82 q0 -38 -8.5 -70 q-8.5 -32 -27 -55.5 q-18.5 -23.5 -47 -36.5 q-28.5 -13 -68.5 -13 q-40 0 -68.5 13 q-28.5 13 -47 36.5 q-18.5 23.5 -27 55.5 q-8.5 32 -8.5 70 l0 36 l44 0 l0 -39 q0 -56 24 -92.5 q24 -36.5 82 -36.5 q58 0 82 36.5 q24 36.5 24 92.5 q0 42 -18.5 72 q-18.5 30 -47 54.5 q-28.5 24.5 -61 46.5 q-32.5 22 -61 48.5 q-28.5 26.5 -47 61 q-18.5 34.5 -18.5 83.5 q0 79 35.5 126 q35.5 47 113.5 48 Z" /><glyph glyph-name="Sacute" unicode="&#x15a;" d="M273 842 l-84 -95 l-35 0 l71 95 l48 0 ZM186 706 q40 0 68 -13 q28 -13 46 -36.5 q18 -23.5 26.5 -55.5 q8.5 -32 8.5 -70 l0 -15 l-44 0 l0 18 q0 28 -5.5 51.5 q-5.5 23.5 -18 41 q-12.5 17.5 -32.5 27.5 q-20 10 -48 10 q-57 0 -80.5 -36.5 q-23.5 -36.5 -23.5 -92.5 q0 -43 18.5 -73 q18.5 -30 47 -54.5 q28.5 -24.5 61 -47 q32.5 -22.5 61 -49 q28.5 -26.5 47 -60.5 q18.5 -34 18.5 -82 q0 -38 -8.5 -70 q-8.5 -32 -27 -55.5 q-18.5 -23.5 -47 -36.5 q-28.5 -13 -68.5 -13 q-40 0 -68.5 13 q-28.5 13 -47 36.5 q-18.5 23.5 -27 55.5 q-8.5 32 -8.5 70 l0 36 l44 0 l0 -39 q0 -56 24 -92.5 q24 -36.5 82 -36.5 q58 0 82 36.5 q24 36.5 24 92.5 q0 42 -18.5 72 q-18.5 30 -47 54.5 q-28.5 24.5 -61 46.5 q-32.5 22 -61 48.5 q-28.5 26.5 -47 61 q-18.5 34.5 -18.5 83.5 q0 79 35.5 126 q35.5 47 113.5 48 Z" /><glyph glyph-name="Scaron" unicode="&#x160;" d="M126 836 l62 -64 l61 64 l43 0 l-84 -90 l-41 0 l-83 90 l42 0 ZM186 706 q40 0 68 -13 q28 -13 46 -36.5 q18 -23.5 26.5 -55.5 q8.5 -32 8.5 -70 l0 -15 l-44 0 l0 18 q0 28 -5.5 51.5 q-5.5 23.5 -18 41 q-12.5 17.5 -32.5 27.5 q-20 10 -48 10 q-57 0 -80.5 -36.5 q-23.5 -36.5 -23.5 -92.5 q0 -43 18.5 -73 q18.5 -30 47 -54.5 q28.5 -24.5 61 -47 q32.5 -22.5 61 -49 q28.5 -26.5 47 -60.5 q18.5 -34 18.5 -82 q0 -38 -8.5 -70 q-8.5 -32 -27 -55.5 q-18.5 -23.5 -47 -36.5 q-28.5 -13 -68.5 -13 q-40 0 -68.5 13 q-28.5 13 -47 36.5 q-18.5 23.5 -27 55.5 q-8.5 32 -8.5 70 l0 36 l44 0 l0 -39 q0 -56 24 -92.5 q24 -36.5 82 -36.5 q58 0 82 36.5 q24 36.5 24 92.5 q0 42 -18.5 72 q-18.5 30 -47 54.5 q-28.5 24.5 -61 46.5 q-32.5 22 -61 48.5 q-28.5 26.5 -47 61 q-18.5 34.5 -18.5 83.5 q0 79 35.5 126 q35.5 47 113.5 48 Z" /><glyph glyph-name="Scedilla" unicode="&#x15e;" d="M197 -34 q35 -1 55 -15.5 q20 -14.5 20 -40.5 q0 -31 -23.5 -48 q-23.5 -17 -65.5 -16 q-42 0 -65 16.5 q-23 16.5 -23 46.5 l0 6 l32 0 l0 -5 q0 -17 15 -27 q15 -10 41 -12 q27 0 42 10.5 q15 10.5 15 29.5 q0 17 -15.5 27 q-15.5 10 -44.5 10 l-7 0 l0 47 q-37 1 -63.5 15 q-26.5 14 -43 37 q-16.5 23 -24.5 54.5 q-8 31.5 -8 67.5 l0 36 l44 0 l0 -39 q0 -56 24 -92.5 q24 -36.5 82 -36.5 q58 0 82 36.5 q24 36.5 24 92.5 q0 42 -18.5 72 q-18.5 30 -47 54.5 q-28.5 24.5 -61 46.5 q-32.5 22 -61 48.5 q-28.5 26.5 -47 61 q-18.5 34.5 -18.5 83.5 q0 79 35.5 126 q35.5 47 113.5 48 q40 0 68 -13 q28 -13 46 -36.5 q18 -23.5 26.5 -55.5 q8.5 -32 8.5 -70 l0 -15 l-44 0 l0 18 q0 28 -5.5 51.5 q-5.5 23.5 -18 41 q-12.5 17.5 -32.5 27.5 q-20 10 -48 10 q-57 0 -80.5 -36.5 q-23.5 -36.5 -23.5 -92.5 q0 -43 18.5 -73 q18.5 -30 47 -54.5 q28.5 -24.5 61 -47 q32.5 -22.5 61 -49 q28.5 -26.5 47 -60.5 q18.5 -34 18.5 -82 q0 -74 -33 -122.5 q-33 -48.5 -106 -52.5 l0 -28 Z" /><glyph glyph-name="Scircumflex" unicode="&#x15c;" d="M129 745 l-43 0 l84 90 l40 0 l84 -90 l-43 0 l-61 64 l-61 -64 ZM186 706 q40 0 68 -13 q28 -13 46 -36.5 q18 -23.5 26.5 -55.5 q8.5 -32 8.5 -70 l0 -15 l-44 0 l0 18 q0 28 -5.5 51.5 q-5.5 23.5 -18 41 q-12.5 17.5 -32.5 27.5 q-20 10 -48 10 q-57 0 -80.5 -36.5 q-23.5 -36.5 -23.5 -92.5 q0 -43 18.5 -73 q18.5 -30 47 -54.5 q28.5 -24.5 61 -47 q32.5 -22.5 61 -49 q28.5 -26.5 47 -60.5 q18.5 -34 18.5 -82 q0 -38 -8.5 -70 q-8.5 -32 -27 -55.5 q-18.5 -23.5 -47 -36.5 q-28.5 -13 -68.5 -13 q-40 0 -68.5 13 q-28.5 13 -47 36.5 q-18.5 23.5 -27 55.5 q-8.5 32 -8.5 70 l0 36 l44 0 l0 -39 q0 -56 24 -92.5 q24 -36.5 82 -36.5 q58 0 82 36.5 q24 36.5 24 92.5 q0 42 -18.5 72 q-18.5 30 -47 54.5 q-28.5 24.5 -61 46.5 q-32.5 22 -61 48.5 q-28.5 26.5 -47 61 q-18.5 34.5 -18.5 83.5 q0 79 35.5 126 q35.5 47 113.5 48 Z" /><glyph glyph-name="T" unicode="t" d="M161 0 l0 658 l-143 0 l0 42 l331 0 l0 -42 l-142 0 l0 -658 l-46 0 Z" /><glyph glyph-name="Tbar" unicode="&#x166;" d="M293 465 l0 -35 l-76 0 l0 -430 l-46 0 l0 430 l-76 0 l0 35 l76 0 l0 193 l-143 0 l0 42 l332 0 l0 -42 l-143 0 l0 -193 l76 0 Z" /><glyph glyph-name="Tcaron" unicode="&#x164;" d="M132 831 l62 -63 l61 63 l43 0 l-84 -90 l-41 0 l-83 90 l42 0 ZM171 0 l0 658 l-143 0 l0 42 l332 0 l0 -42 l-143 0 l0 -658 l-46 0 Z" /><glyph glyph-name="U" unicode="u" d="M84 169 q0 -28 5.5 -52.5 q5.5 -24.5 18 -42.5 q12.5 -18 32.5 -28 q20 -10 49 -10 q29 0 49 10 q20 10 32.5 28 q12.5 18 18 42.5 q5.5 24.5 5.5 52.5 l0 531 l43 0 l0 -529 q0 -38 -8 -70 q-8 -32 -26 -56 q-18 -24 -46.5 -37.5 q-28.5 -13.5 -68.5 -13.5 q-40 0 -68.5 13.5 q-28.5 13.5 -46.5 37.5 q-18 24 -26.5 56 q-8.5 32 -8.5 70 l0 529 l46 0 l0 -531 Z" /><glyph glyph-name="Uacute" unicode="ú" d="M275 842 l-84 -95 l-35 0 l71 95 l48 0 ZM337 171 q0 -38 -8 -70 q-8 -32 -26 -56 q-18 -24 -46.5 -37.5 q-28.5 -13.5 -68.5 -13.5 q-40 0 -68.5 13.5 q-28.5 13.5 -46.5 37.5 q-18 24 -26.5 56 q-8.5 32 -8.5 70 l0 529 l46 0 l0 -531 q0 -28 5.5 -52.5 q5.5 -24.5 18 -42.5 q12.5 -18 32.5 -28 q20 -10 49 -10 q29 0 49 10 q20 10 32.5 28 q12.5 18 18 42.5 q5.5 24.5 5.5 52.5 l0 531 l43 0 l0 -529 Z" /><glyph glyph-name="Ubreve" unicode="&#x16c;" d="M286 828 q-1 -42 -28 -65.5 q-27 -23.5 -69 -23.5 q-42 0 -69 23.5 q-27 23.5 -28 65.5 l30 0 q2 -31 21.5 -44.5 q19.5 -13.5 45.5 -13.5 q26 0 46 13.5 q20 13.5 22 44.5 l29 0 ZM337 171 q0 -38 -8 -70 q-8 -32 -26 -56 q-18 -24 -46.5 -37.5 q-28.5 -13.5 -68.5 -13.5 q-40 0 -68.5 13.5 q-28.5 13.5 -46.5 37.5 q-18 24 -26.5 56 q-8.5 32 -8.5 70 l0 529 l46 0 l0 -531 q0 -28 5.5 -52.5 q5.5 -24.5 18 -42.5 q12.5 -18 32.5 -28 q20 -10 49 -10 q29 0 49 10 q20 10 32.5 28 q12.5 18 18 42.5 q5.5 24.5 5.5 52.5 l0 531 l43 0 l0 -529 Z" /><glyph glyph-name="Ucircumflex" unicode="û" d="M128 745 l-43 0 l84 90 l40 0 l85 -90 l-44 0 l-61 64 l-61 -64 ZM337 171 q0 -38 -8 -70 q-8 -32 -26 -56 q-18 -24 -46.5 -37.5 q-28.5 -13.5 -68.5 -13.5 q-40 0 -68.5 13.5 q-28.5 13.5 -46.5 37.5 q-18 24 -26.5 56 q-8.5 32 -8.5 70 l0 529 l46 0 l0 -531 q0 -28 5.5 -52.5 q5.5 -24.5 18 -42.5 q12.5 -18 32.5 -28 q20 -10 49 -10 q29 0 49 10 q20 10 32.5 28 q12.5 18 18 42.5 q5.5 24.5 5.5 52.5 l0 531 l43 0 l0 -529 Z" /><glyph glyph-name="Udieresis" unicode="ü" d="M160 828 l0 -85 l-41 0 l0 85 l41 0 ZM257 828 l0 -85 l-41 0 l0 85 l41 0 ZM337 171 q0 -38 -8 -70 q-8 -32 -26 -56 q-18 -24 -46.5 -37.5 q-28.5 -13.5 -68.5 -13.5 q-40 0 -68.5 13.5 q-28.5 13.5 -46.5 37.5 q-18 24 -26.5 56 q-8.5 32 -8.5 70 l0 529 l46 0 l0 -531 q0 -28 5.5 -52.5 q5.5 -24.5 18 -42.5 q12.5 -18 32.5 -28 q20 -10 49 -10 q29 0 49 10 q20 10 32.5 28 q12.5 18 18 42.5 q5.5 24.5 5.5 52.5 l0 531 l43 0 l0 -529 Z" /><glyph glyph-name="Ugrave" unicode="ù" d="M155 836 l71 -95 l-37 0 l-84 95 l50 0 ZM337 171 q0 -38 -8 -70 q-8 -32 -26 -56 q-18 -24 -46.5 -37.5 q-28.5 -13.5 -68.5 -13.5 q-40 0 -68.5 13.5 q-28.5 13.5 -46.5 37.5 q-18 24 -26.5 56 q-8.5 32 -8.5 70 l0 529 l46 0 l0 -531 q0 -28 5.5 -52.5 q5.5 -24.5 18 -42.5 q12.5 -18 32.5 -28 q20 -10 49 -10 q29 0 49 10 q20 10 32.5 28 q12.5 18 18 42.5 q5.5 24.5 5.5 52.5 l0 531 l43 0 l0 -529 Z" /><glyph glyph-name="Uhungarumlaut" unicode="&#x170;" d="M225 840 l-77 -95 l-33 0 l65 95 l45 0 ZM310 840 l-78 -95 l-32 0 l65 95 l45 0 ZM337 171 q0 -38 -8 -70 q-8 -32 -26 -56 q-18 -24 -46.5 -37.5 q-28.5 -13.5 -68.5 -13.5 q-40 0 -68.5 13.5 q-28.5 13.5 -46.5 37.5 q-18 24 -26.5 56 q-8.5 32 -8.5 70 l0 529 l46 0 l0 -531 q0 -28 5.5 -52.5 q5.5 -24.5 18 -42.5 q12.5 -18 32.5 -28 q20 -10 49 -10 q29 0 49 10 q20 10 32.5 28 q12.5 18 18 42.5 q5.5 24.5 5.5 52.5 l0 531 l43 0 l0 -529 Z" /><glyph glyph-name="Umacron" unicode="&#x16a;" d="M282 793 l0 -33 l-182 0 l0 33 l182 0 ZM337 171 q0 -38 -8 -70 q-8 -32 -26 -56 q-18 -24 -46.5 -37.5 q-28.5 -13.5 -68.5 -13.5 q-40 0 -68.5 13.5 q-28.5 13.5 -46.5 37.5 q-18 24 -26.5 56 q-8.5 32 -8.5 70 l0 529 l46 0 l0 -531 q0 -28 5.5 -52.5 q5.5 -24.5 18 -42.5 q12.5 -18 32.5 -28 q20 -10 49 -10 q29 0 49 10 q20 10 32.5 28 q12.5 18 18 42.5 q5.5 24.5 5.5 52.5 l0 531 l43 0 l0 -529 Z" /><glyph glyph-name="Uogonek" unicode="&#x172;" d="M337 171 q0 -27 -4 -53 q-4 -26 -14 -48 q-10 -22 -26.5 -39.5 q-16.5 -17.5 -41.5 -27.5 q-20 -15 -33 -39.5 q-13 -24.5 -12 -43.5 q2 -17 13 -24.5 q11 -7.5 27 -7.5 q14 0 24.5 3.5 q10.5 3.5 19.5 9.5 l0 -28 q-26 -13 -56 -13 q-27 1 -45 13 q-18 12 -19 38 q-1 23 13 45.5 q14 22.5 35 39.5 q-7 -1 -14.5 -1.5 q-7.5 -0.5 -15.5 -0.5 q-40 0 -68.5 13.5 q-28.5 13.5 -46.5 37.5 q-18 24 -26.5 56 q-8.5 32 -8.5 70 l0 529 l46 0 l0 -531 q0 -28 5.5 -52.5 q5.5 -24.5 18 -42.5 q12.5 -18 32.5 -28 q20 -10 49 -10 q29 0 49 10 q20 10 32.5 28 q12.5 18 18 42.5 q5.5 24.5 5.5 52.5 l0 531 l43 0 l0 -529 Z" /><glyph glyph-name="Uring" unicode="&#x16e;" d="M192 868 q29 0 48.5 -18.5 q19.5 -18.5 19.5 -47.5 q0 -28 -19.5 -47 q-19.5 -19 -48.5 -19 q-28 0 -47.5 19 q-19.5 19 -19.5 47 q0 29 19.5 47.5 q19.5 18.5 47.5 18.5 ZM192 844 q-18 0 -30 -11.5 q-12 -11.5 -12 -30.5 q0 -18 12 -30 q12 -12 30 -12 q18 0 30.5 12 q12.5 12 12.5 30 q0 19 -12.5 30.5 q-12.5 11.5 -30.5 11.5 ZM337 171 q0 -38 -8 -70 q-8 -32 -26 -56 q-18 -24 -46.5 -37.5 q-28.5 -13.5 -68.5 -13.5 q-40 0 -68.5 13.5 q-28.5 13.5 -46.5 37.5 q-18 24 -26.5 56 q-8.5 32 -8.5 70 l0 529 l46 0 l0 -531 q0 -28 5.5 -52.5 q5.5 -24.5 18 -42.5 q12.5 -18 32.5 -28 q20 -10 49 -10 q29 0 49 10 q20 10 32.5 28 q12.5 18 18 42.5 q5.5 24.5 5.5 52.5 l0 531 l43 0 l0 -529 Z" /><glyph glyph-name="Utilde" unicode="&#x168;" d="M298 800 q-9 -22 -23.5 -34.5 q-14.5 -12.5 -34.5 -13.5 q-14 0 -25.5 5 q-11.5 5 -22.5 11.5 q-11 6.5 -22 12 q-11 5.5 -23 5.5 q-27 0 -42 -31 l-25 17 q22 47 63 47 q14 0 26 -5 q12 -5 23.5 -11.5 q11.5 -6.5 22 -11.5 q10.5 -5 21.5 -5 q13 1 22 9 q9 8 15 21 l25 -16 ZM337 171 q0 -38 -8 -70 q-8 -32 -26 -56 q-18 -24 -46.5 -37.5 q-28.5 -13.5 -68.5 -13.5 q-40 0 -68.5 13.5 q-28.5 13.5 -46.5 37.5 q-18 24 -26.5 56 q-8.5 32 -8.5 70 l0 529 l46 0 l0 -531 q0 -28 5.5 -52.5 q5.5 -24.5 18 -42.5 q12.5 -18 32.5 -28 q20 -10 49 -10 q29 0 49 10 q20 10 32.5 28 q12.5 18 18 42.5 q5.5 24.5 5.5 52.5 l0 531 l43 0 l0 -529 Z" /><glyph glyph-name="V" unicode="v" d="M77 700 l142 -647 l142 647 l43 0 l-152 -700 l-68 0 l-154 700 l47 0 Z" /><glyph glyph-name="W" unicode="w" d="M208 0 l-64 0 l-113 700 l45 0 l105 -638 l102 635 l49 0 l98 -633 l101 636 l41 0 l-112 -700 l-60 0 l-94 573 l-98 -573 Z" /><glyph glyph-name="Wacute" unicode="&#x1e82;" d="M382 836 l-84 -95 l-35 0 l72 95 l47 0 ZM208 0 l-64 0 l-113 700 l45 0 l105 -638 l102 635 l49 0 l98 -633 l101 636 l41 0 l-112 -700 l-60 0 l-94 573 l-98 -573 Z" /><glyph glyph-name="Wcircumflex" unicode="&#x174;" d="M243 743 l-43 0 l84 90 l40 0 l84 -90 l-43 0 l-61 64 l-61 -64 ZM208 0 l-64 0 l-113 700 l45 0 l105 -638 l102 635 l49 0 l98 -633 l101 636 l41 0 l-112 -700 l-60 0 l-94 573 l-98 -573 Z" /><glyph glyph-name="Wdieresis" unicode="&#x1e84;" d="M277 830 l0 -85 l-41 0 l0 85 l41 0 ZM374 830 l0 -85 l-41 0 l0 85 l41 0 ZM208 0 l-64 0 l-113 700 l45 0 l105 -638 l102 635 l49 0 l98 -633 l101 636 l41 0 l-112 -700 l-60 0 l-94 573 l-98 -573 Z" /><glyph glyph-name="Wgrave" unicode="&#x1e80;" d="M279 842 l71 -95 l-36 0 l-85 95 l50 0 ZM208 0 l-64 0 l-113 700 l45 0 l105 -638 l102 635 l49 0 l98 -633 l101 636 l41 0 l-112 -700 l-60 0 l-94 573 l-98 -573 Z" /><glyph glyph-name="X" unicode="x" d="M218 326 l-142 -326 l-45 0 l158 363 l-147 337 l48 0 l132 -301 l133 301 l44 0 l-147 -337 l157 -363 l-49 0 l-142 326 Z" /><glyph glyph-name="Y" unicode="y" d="M184 269 l-157 431 l48 0 l134 -368 l134 368 l45 0 l-158 -431 l0 -269 l-46 0 l0 269 Z" /><glyph glyph-name="Yacute" unicode="ý" d="M294 835 l-84 -95 l-35 0 l72 95 l47 0 ZM184 269 l-157 431 l48 0 l134 -368 l134 368 l45 0 l-158 -431 l0 -269 l-46 0 l0 269 Z" /><glyph glyph-name="Ycircumflex" unicode="&#x176;" d="M148 743 l-43 0 l84 90 l40 0 l84 -90 l-43 0 l-61 63 l-61 -63 ZM184 269 l-157 431 l48 0 l134 -368 l134 368 l45 0 l-158 -431 l0 -269 l-46 0 l0 269 Z" /><glyph glyph-name="Ydieresis" unicode="&#x178;" d="M180 825 l0 -84 l-41 0 l0 84 l41 0 ZM277 825 l0 -84 l-41 0 l0 84 l41 0 ZM184 269 l-157 431 l48 0 l134 -368 l134 368 l45 0 l-158 -431 l0 -269 l-46 0 l0 269 Z" /><glyph glyph-name="Ygrave" unicode="&#x1ef2;" d="M176 842 l72 -95 l-37 0 l-84 95 l49 0 ZM184 269 l-157 431 l48 0 l134 -368 l134 368 l45 0 l-158 -431 l0 -269 l-46 0 l0 269 Z" /><glyph glyph-name="Z" unicode="z" d="M349 0 l-315 0 l0 42 l271 616 l-258 0 l0 42 l306 0 l0 -43 l-271 -615 l267 0 l0 -42 Z" /><glyph glyph-name="Zacute" unicode="&#x179;" d="M290 842 l-84 -95 l-35 0 l71 95 l48 0 ZM349 0 l-315 0 l0 42 l271 616 l-258 0 l0 42 l306 0 l0 -43 l-271 -615 l267 0 l0 -42 Z" /><glyph glyph-name="Zcaron" unicode="&#x17d;" d="M139 835 l62 -63 l61 63 l43 0 l-84 -90 l-40 0 l-84 90 l42 0 ZM349 0 l-315 0 l0 42 l271 616 l-258 0 l0 42 l306 0 l0 -43 l-271 -615 l267 0 l0 -42 Z" /><glyph glyph-name="Zdotaccent" unicode="&#x17b;" d="M228 830 l0 -84 l-41 0 l0 84 l41 0 ZM349 0 l-315 0 l0 42 l271 616 l-258 0 l0 42 l306 0 l0 -43 l-271 -615 l267 0 l0 -42 Z" /><glyph glyph-name="uni0122" unicode="&#x122;" d="M188 706 q40 0 68.5 -13.5 q28.5 -13.5 47 -37 q18.5 -23.5 27 -56 q8.5 -32.5 8.5 -70.5 l0 -52 l-44 0 l0 55 q0 28 -5.5 52 q-5.5 24 -18.5 42 q-13 18 -33 28 q-20 10 -49 10 q-29 0 -49 -10 q-20 -10 -33 -28 q-13 -18 -18.5 -42 q-5.5 -24 -5.5 -52 l0 -364 q0 -28 5.5 -52 q5.5 -24 18.5 -41.5 q13 -17.5 33 -27.5 q20 -10 49 -10 q29 0 49 10 q20 10 33 27.5 q13 17.5 18.5 41.5 q5.5 24 5.5 52 l0 151 l-93 0 l0 42 l137 0 l0 -190 q0 -38 -8.5 -70.5 q-8.5 -32.5 -27 -56 q-18.5 -23.5 -47 -37 q-28.5 -13.5 -68.5 -13.5 q-40 0 -68.5 13.5 q-28.5 13.5 -47 37 q-18.5 23.5 -27 56 q-8.5 32.5 -8.5 70.5 l0 358 q0 38 8.5 70.5 q8.5 32.5 27 56 q18.5 23.5 47 37 q28.5 13.5 68.5 13.5 ZM181 -117 l-13 0 l0 83 l39 0 l0 -79 l-27 -63 l-18 0 l19 59 Z" /><glyph glyph-name="uni0136" unicode="&#x136;" d="M134 329 l-48 -76 l0 -253 l-46 0 l0 700 l46 0 l0 -370 l228 370 l48 0 l-200 -326 l213 -374 l-48 0 l-193 329 ZM189 -117 l-14 0 l0 83 l40 0 l0 -79 l-27 -63 l-19 0 l20 59 Z" /><glyph glyph-name="uni013B" unicode="&#x13b;" d="M40 0 l0 700 l46 0 l0 -658 l220 0 l0 -42 l-266 0 ZM172 -120 l-13 0 l0 83 l39 0 l0 -79 l-27 -63 l-18 0 l19 59 Z" /><glyph glyph-name="uni0145" unicode="&#x145;" d="M82 0 l-42 0 l0 700 l60 0 l210 -591 l0 591 l42 0 l0 -700 l-51 0 l-219 624 l0 -624 ZM188 -117 l-13 0 l0 83 l39 0 l0 -79 l-27 -63 l-18 0 l19 59 Z" /><glyph glyph-name="uni0156" unicode="&#x156;" d="M186 700 q80 0 115 -42 q35 -42 35 -116 l0 -61 q0 -122 -101 -145 q54 -12 77.5 -49 q23.5 -37 23.5 -94 l0 -109 q0 -22 3 -44.5 q3 -22.5 14 -39.5 l-48 0 q-9 16 -12 35.5 q-3 19.5 -3 48.5 l0 110 q0 35 -9 58 q-9 23 -26.5 36.5 q-17.5 13.5 -41.5 19 q-24 5.5 -54 5.5 l-73 0 l0 -313 l-46 0 l0 700 l146 0 ZM160 355 q31 0 55 5 q24 5 40.5 18 q16.5 13 25.5 36 q9 23 9 58 l0 66 q0 57 -24 88.5 q-24 31.5 -81 31.5 l-99 0 l0 -303 l74 0 ZM183 -116 l-13 0 l0 83 l39 0 l0 -79 l-27 -63 l-18 0 l19 59 Z" /><glyph glyph-name="uni0162" unicode="&#x162;" d="M208 0 l0 -34 q29 -1 48.5 -14 q19.5 -13 19.5 -44 q0 -18 -7.5 -31 q-7.5 -13 -19.5 -21.5 q-12 -8.5 -27.5 -12 q-15.5 -3.5 -30.5 -3.5 q-15 0 -30 4 q-15 4 -27 11.5 q-12 7.5 -19.5 19.5 q-7.5 12 -7.5 29 l0 6 l28 0 l0 -6 q0 -21 19 -29 q19 -8 37 -9 q19 0 37.5 9 q18.5 9 18.5 32 q0 24 -19 31.5 q-19 7.5 -41 7.5 l-7 0 l0 54 l-9 0 l0 658 l-143 0 l0 42 l332 0 l0 -42 l-143 0 l0 -658 l-9 0 Z" /><glyph glyph-name="uni0218" unicode="&#x218;" d="M186 706 q40 0 68 -13 q28 -13 46 -36.5 q18 -23.5 26.5 -55.5 q8.5 -32 8.5 -70 l0 -15 l-44 0 l0 18 q0 28 -5.5 51.5 q-5.5 23.5 -18 41 q-12.5 17.5 -32.5 27.5 q-20 10 -48 10 q-57 0 -80.5 -36.5 q-23.5 -36.5 -23.5 -92.5 q0 -43 18.5 -73 q18.5 -30 47 -54.5 q28.5 -24.5 61 -47 q32.5 -22.5 61 -49 q28.5 -26.5 47 -60.5 q18.5 -34 18.5 -82 q0 -38 -8.5 -70 q-8.5 -32 -27 -55.5 q-18.5 -23.5 -47 -36.5 q-28.5 -13 -68.5 -13 q-40 0 -68.5 13 q-28.5 13 -47 36.5 q-18.5 23.5 -27 55.5 q-8.5 32 -8.5 70 l0 36 l44 0 l0 -39 q0 -56 24 -92.5 q24 -36.5 82 -36.5 q58 0 82 36.5 q24 36.5 24 92.5 q0 42 -18.5 72 q-18.5 30 -47 54.5 q-28.5 24.5 -61 46.5 q-32.5 22 -61 48.5 q-28.5 26.5 -47 61 q-18.5 34.5 -18.5 83.5 q0 79 35.5 126 q35.5 47 113.5 48 ZM178 -117 l-14 0 l0 83 l40 0 l0 -79 l-27 -63 l-19 0 l20 59 Z" /><glyph glyph-name="uni021A" unicode="&#x21a;" d="M171 0 l0 658 l-143 0 l0 42 l332 0 l0 -42 l-143 0 l0 -658 l-46 0 ZM188 -117 l-14 0 l0 83 l40 0 l0 -79 l-27 -63 l-19 0 l20 59 Z" /><glyph glyph-name="uni1E02" unicode="&#x1e02;" d="M190 827 l0 -85 l-40 0 l0 85 l40 0 ZM187 700 q79 0 111 -38 q32 -38 32 -111 l0 -40 q0 -57 -19.5 -92 q-19.5 -35 -72.5 -46 q57 -11 81 -50.5 q24 -39.5 24 -99.5 l0 -61 q0 -76 -36 -119 q-36 -43 -117 -43 l-150 0 l0 700 l147 0 ZM164 391 q31 0 53.5 5 q22.5 5 37.5 17.5 q15 12.5 22 34 q7 21.5 7 54.5 l0 45 q0 55 -21 83 q-21 28 -77 28 l-100 0 l0 -267 l78 0 ZM190 42 q58 0 82.5 31 q24.5 31 24.5 90 l0 63 q0 68 -31 95.5 q-31 27.5 -93 27.5 l-87 0 l0 -307 l104 0 Z" /><glyph glyph-name="uni1E0A" unicode="&#x1e0a;" d="M197 827 l0 -85 l-41 0 l0 85 l41 0 ZM194 700 q40 0 69.5 -12.5 q29.5 -12.5 48.5 -35.5 q19 -23 28 -55 q9 -32 9 -71 l0 -352 q0 -39 -9 -71 q-9 -32 -28 -55 q-19 -23 -48.5 -35.5 q-29.5 -12.5 -69.5 -12.5 l-154 0 l0 700 l154 0 ZM193 42 q59 0 84.5 36 q25.5 36 25.5 94 l0 356 q0 58 -26 94 q-26 36 -84 36 l-107 0 l0 -616 l107 0 Z" /><glyph glyph-name="uni1E1E" unicode="&#x1e1e;" d="M192 826 l0 -85 l-41 0 l0 85 l41 0 ZM267 359 l0 -42 l-181 0 l0 -317 l-46 0 l0 700 l266 0 l0 -42 l-220 0 l0 -299 l181 0 Z" /><glyph glyph-name="uni1E40" unicode="&#x1e40;" d="M273 831 l0 -86 l-41 0 l0 86 l41 0 ZM275 1 l-46 0 l-148 619 l0 -620 l-41 0 l0 700 l66 0 l147 -619 l146 619 l66 0 l0 -700 l-44 0 l0 622 l-146 -621 Z" /><glyph glyph-name="uni1E56" unicode="&#x1e56;" d="M191 827 l0 -85 l-41 0 l0 85 l41 0 ZM185 700 q81 0 115.5 -46.5 q34.5 -46.5 34.5 -123.5 l0 -76 q0 -84 -39 -125 q-39 -41 -123 -41 l-87 0 l0 -288 l-46 0 l0 700 l145 0 ZM173 330 q61 0 88.5 28.5 q27.5 28.5 27.5 92.5 l0 82 q0 57 -22.5 91 q-22.5 34 -81.5 34 l-99 0 l0 -328 l87 0 Z" /><glyph glyph-name="uni1E60" unicode="&#x1e60;" d="M206 827 l0 -84 l-41 0 l0 84 l41 0 ZM186 706 q40 0 68 -13 q28 -13 46 -36.5 q18 -23.5 26.5 -55.5 q8.5 -32 8.5 -70 l0 -15 l-44 0 l0 18 q0 28 -5.5 51.5 q-5.5 23.5 -18 41 q-12.5 17.5 -32.5 27.5 q-20 10 -48 10 q-57 0 -80.5 -36.5 q-23.5 -36.5 -23.5 -92.5 q0 -43 18.5 -73 q18.5 -30 47 -54.5 q28.5 -24.5 61 -47 q32.5 -22.5 61 -49 q28.5 -26.5 47 -60.5 q18.5 -34 18.5 -82 q0 -38 -8.5 -70 q-8.5 -32 -27 -55.5 q-18.5 -23.5 -47 -36.5 q-28.5 -13 -68.5 -13 q-40 0 -68.5 13 q-28.5 13 -47 36.5 q-18.5 23.5 -27 55.5 q-8.5 32 -8.5 70 l0 36 l44 0 l0 -39 q0 -56 24 -92.5 q24 -36.5 82 -36.5 q58 0 82 36.5 q24 36.5 24 92.5 q0 42 -18.5 72 q-18.5 30 -47 54.5 q-28.5 24.5 -61 46.5 q-32.5 22 -61 48.5 q-28.5 26.5 -47 61 q-18.5 34.5 -18.5 83.5 q0 79 35.5 126 q35.5 47 113.5 48 Z" /><glyph glyph-name="uni1E6A" unicode="&#x1e6a;" d="M214 828 l0 -85 l-40 0 l0 85 l40 0 ZM171 0 l0 658 l-143 0 l0 42 l332 0 l0 -42 l-143 0 l0 -658 l-46 0 Z" /><glyph glyph-name="a" unicode="a" d="M107 155 l-35 -155 l-42 0 l153 701 l67 0 l156 -701 l-46 0 l-35 155 l-218 0 ZM114 195 l204 0 l-103 453 l-101 -453 Z" /><glyph glyph-name="aacute" unicode="á" d="M290 833 l-84 -95 l-35 0 l71 95 l48 0 ZM107 155 l-35 -155 l-42 0 l153 701 l67 0 l156 -701 l-46 0 l-35 155 l-218 0 ZM114 195 l204 0 l-103 453 l-101 -453 Z" /><glyph glyph-name="abreve" unicode="&#x103;" d="M314 821 q-2 -42 -29 -65 q-27 -23 -69 -23 q-42 0 -68.5 23 q-26.5 23 -27.5 65 l30 0 q1 -30 20.5 -43.5 q19.5 -13.5 45.5 -13.5 q26 0 46 13.5 q20 13.5 22 43.5 l30 0 ZM107 155 l-35 -155 l-42 0 l153 701 l67 0 l156 -701 l-46 0 l-35 155 l-218 0 ZM114 195 l204 0 l-103 453 l-101 -453 Z" /><glyph glyph-name="acircumflex" unicode="â" d="M155 737 l-43 0 l84 90 l40 0 l85 -90 l-44 0 l-61 63 l-61 -63 ZM107 155 l-35 -155 l-42 0 l153 701 l67 0 l156 -701 l-46 0 l-35 155 l-218 0 ZM114 195 l204 0 l-103 453 l-101 -453 Z" /><glyph glyph-name="adieresis" unicode="ä" d="M188 821 l0 -84 l-41 0 l0 84 l41 0 ZM285 821 l0 -84 l-41 0 l0 84 l41 0 ZM107 155 l-35 -155 l-42 0 l153 701 l67 0 l156 -701 l-46 0 l-35 155 l-218 0 ZM114 195 l204 0 l-103 453 l-101 -453 Z" /><glyph glyph-name="agrave" unicode="à" d="M185 832 l71 -95 l-36 0 l-85 95 l50 0 ZM107 155 l-35 -155 l-42 0 l153 701 l67 0 l156 -701 l-46 0 l-35 155 l-218 0 ZM114 195 l204 0 l-103 453 l-101 -453 Z" /><glyph glyph-name="amacron" unicode="&#x101;" d="M314 793 l0 -33 l-195 0 l0 33 l195 0 ZM107 155 l-35 -155 l-42 0 l153 701 l67 0 l156 -701 l-46 0 l-35 155 l-218 0 ZM114 195 l204 0 l-103 453 l-101 -453 Z" /><glyph glyph-name="aogonek" unicode="&#x105;" d="M391 0 q-19 -15 -31.5 -38 q-12.5 -23 -10.5 -42 q1 -17 12.5 -24.5 q11.5 -7.5 26.5 -7.5 q14 0 24.5 3.5 q10.5 3.5 19.5 9.5 l0 -28 q-25 -13 -56 -13 q-27 1 -45 13 q-18 12 -19 38 q-1 23 12.5 46 q13.5 23 35.5 41 l-35 157 l-218 0 l-35 -155 l-42 0 l153 701 l67 0 l156 -701 l-15 0 ZM114 195 l204 0 l-103 453 l-101 -453 Z" /><glyph glyph-name="aring" unicode="å" d="M216 872 q28 0 47.5 -19 q19.5 -19 19.5 -47 q0 -29 -19.5 -48 q-19.5 -19 -47.5 -19 q-29 0 -48 19 q-19 19 -19 48 q0 28 19 47 q19 19 48 19 ZM216 847 q-18 0 -30.5 -11.5 q-12.5 -11.5 -12.5 -29.5 q0 -19 12.5 -30.5 q12.5 -11.5 30.5 -11.5 q17 0 30 11.5 q13 11.5 13 30.5 q0 18 -13 29.5 q-13 11.5 -30 11.5 ZM107 155 l-35 -155 l-42 0 l153 701 l67 0 l156 -701 l-46 0 l-35 155 l-218 0 ZM114 195 l204 0 l-103 453 l-101 -453 Z" /><glyph glyph-name="atilde" unicode="ã" d="M170 814 q14 0 26 -5.5 q12 -5.5 23.5 -12 q11.5 -6.5 22 -11.5 q10.5 -5 21.5 -5 q13 1 21.5 9 q8.5 8 15.5 22 l25 -17 q-10 -22 -24 -34.5 q-14 -12.5 -34 -12.5 q-14 -1 -25.5 4.5 q-11.5 5.5 -22.5 12 q-11 6.5 -22 11.5 q-11 5 -23 5 q-26 0 -42 -30 l-25 16 q21 46 63 48 ZM107 155 l-35 -155 l-42 0 l153 701 l67 0 l156 -701 l-46 0 l-35 155 l-218 0 ZM114 195 l204 0 l-103 453 l-101 -453 Z" /><glyph glyph-name="ae" unicode="æ" d="M518 376 l0 -42 l-169 0 l0 -292 l204 0 l0 -42 l-250 0 l0 157 l-175 0 l-57 -157 l-44 0 l249 700 l277 0 l0 -42 l-204 0 l0 -282 l169 0 ZM140 198 l163 0 l0 445 l-163 -445 Z" /><glyph glyph-name="aeacute" unicode="&#x1fd;" d="M412 840 l-84 -95 l-35 0 l71 95 l48 0 ZM518 376 l0 -42 l-169 0 l0 -292 l204 0 l0 -42 l-250 0 l0 157 l-175 0 l-57 -157 l-44 0 l249 700 l277 0 l0 -42 l-204 0 l0 -282 l169 0 ZM140 198 l163 0 l0 445 l-163 -445 Z" /><glyph glyph-name="b" unicode="b" d="M187 700 q79 0 111 -38 q32 -38 32 -111 l0 -40 q0 -57 -19.5 -92 q-19.5 -35 -72.5 -46 q57 -11 81 -50.5 q24 -39.5 24 -99.5 l0 -61 q0 -76 -36 -119 q-36 -43 -117 -43 l-150 0 l0 700 l147 0 ZM164 391 q31 0 53.5 5 q22.5 5 37.5 17.5 q15 12.5 22 34 q7 21.5 7 54.5 l0 45 q0 55 -21 83 q-21 28 -77 28 l-100 0 l0 -267 l78 0 ZM190 42 q58 0 82.5 31 q24.5 31 24.5 90 l0 63 q0 68 -31 95.5 q-31 27.5 -93 27.5 l-87 0 l0 -307 l104 0 Z" /><glyph glyph-name="c" unicode="c" d="M188 706 q40 0 68.5 -13.5 q28.5 -13.5 47 -37 q18.5 -23.5 27 -56 q8.5 -32.5 8.5 -70.5 l0 -58 l-44 0 l0 61 q0 28 -5.5 52 q-5.5 24 -18.5 42 q-13 18 -33 28 q-20 10 -49 10 q-29 0 -49 -10 q-20 -10 -33 -28 q-13 -18 -18.5 -42 q-5.5 -24 -5.5 -52 l0 -364 q0 -28 5.5 -52 q5.5 -24 18.5 -41.5 q13 -17.5 33 -27.5 q20 -10 49 -10 q29 0 49 10 q20 10 33 27.5 q13 17.5 18.5 41.5 q5.5 24 5.5 52 l0 83 l44 0 l0 -80 q0 -38 -8.5 -70.5 q-8.5 -32.5 -27 -56 q-18.5 -23.5 -47 -37 q-28.5 -13.5 -68.5 -13.5 q-40 0 -68.5 13.5 q-28.5 13.5 -47 37 q-18.5 23.5 -27 56 q-8.5 32.5 -8.5 70.5 l0 358 q0 38 8.5 70.5 q8.5 32.5 27 56 q18.5 23.5 47 37 q28.5 13.5 68.5 13.5 Z" /><glyph glyph-name="cacute" unicode="&#x107;" d="M273 842 l-84 -95 l-35 0 l71 95 l48 0 ZM188 706 q40 0 68.5 -13.5 q28.5 -13.5 47 -37 q18.5 -23.5 27 -56 q8.5 -32.5 8.5 -70.5 l0 -58 l-44 0 l0 61 q0 28 -5.5 52 q-5.5 24 -18.5 42 q-13 18 -33 28 q-20 10 -49 10 q-29 0 -49 -10 q-20 -10 -33 -28 q-13 -18 -18.5 -42 q-5.5 -24 -5.5 -52 l0 -364 q0 -28 5.5 -52 q5.5 -24 18.5 -41.5 q13 -17.5 33 -27.5 q20 -10 49 -10 q29 0 49 10 q20 10 33 27.5 q13 17.5 18.5 41.5 q5.5 24 5.5 52 l0 83 l44 0 l0 -80 q0 -38 -8.5 -70.5 q-8.5 -32.5 -27 -56 q-18.5 -23.5 -47 -37 q-28.5 -13.5 -68.5 -13.5 q-40 0 -68.5 13.5 q-28.5 13.5 -47 37 q-18.5 23.5 -27 56 q-8.5 32.5 -8.5 70.5 l0 358 q0 38 8.5 70.5 q8.5 32.5 27 56 q18.5 23.5 47 37 q28.5 13.5 68.5 13.5 Z" /><glyph glyph-name="ccaron" unicode="&#x10d;" d="M131 834 l62 -64 l61 64 l43 0 l-84 -90 l-40 0 l-84 90 l42 0 ZM188 706 q40 0 68.5 -13.5 q28.5 -13.5 47 -37 q18.5 -23.5 27 -56 q8.5 -32.5 8.5 -70.5 l0 -58 l-44 0 l0 61 q0 28 -5.5 52 q-5.5 24 -18.5 42 q-13 18 -33 28 q-20 10 -49 10 q-29 0 -49 -10 q-20 -10 -33 -28 q-13 -18 -18.5 -42 q-5.5 -24 -5.5 -52 l0 -364 q0 -28 5.5 -52 q5.5 -24 18.5 -41.5 q13 -17.5 33 -27.5 q20 -10 49 -10 q29 0 49 10 q20 10 33 27.5 q13 17.5 18.5 41.5 q5.5 24 5.5 52 l0 83 l44 0 l0 -80 q0 -38 -8.5 -70.5 q-8.5 -32.5 -27 -56 q-18.5 -23.5 -47 -37 q-28.5 -13.5 -68.5 -13.5 q-40 0 -68.5 13.5 q-28.5 13.5 -47 37 q-18.5 23.5 -27 56 q-8.5 32.5 -8.5 70.5 l0 358 q0 38 8.5 70.5 q8.5 32.5 27 56 q18.5 23.5 47 37 q28.5 13.5 68.5 13.5 Z" /><glyph glyph-name="ccedilla" unicode="ç" d="M188 706 q40 0 68.5 -13.5 q28.5 -13.5 47 -37 q18.5 -23.5 27 -56 q8.5 -32.5 8.5 -70.5 l0 -58 l-44 0 l0 61 q0 28 -5.5 52 q-5.5 24 -18.5 42 q-13 18 -33 28 q-20 10 -49 10 q-29 0 -49 -10 q-20 -10 -33 -28 q-13 -18 -18.5 -42 q-5.5 -24 -5.5 -52 l0 -364 q0 -28 5.5 -52 q5.5 -24 18.5 -41.5 q13 -17.5 33 -27.5 q20 -10 49 -10 q29 0 49 10 q20 10 33 27.5 q13 17.5 18.5 41.5 q5.5 24 5.5 52 l0 83 l44 0 l0 -80 q0 -36 -8 -67.5 q-8 -31.5 -25 -55.5 q-17 -24 -43.5 -38 q-26.5 -14 -63.5 -16 l0 -28 q35 -1 55 -15.5 q20 -14.5 20 -40.5 q0 -31 -23.5 -48 q-23.5 -17 -65.5 -16 q-42 0 -65 16.5 q-23 16.5 -23 46.5 l0 6 l32 0 l0 -5 q0 -17 15 -27 q15 -10 41 -12 q27 0 42 10.5 q15 10.5 15 29.5 q0 17 -15.5 27 q-15.5 10 -44.5 10 l-7 0 l0 47 q-37 2 -63 16 q-26 14 -42.5 37.5 q-16.5 23.5 -24.5 55 q-8 31.5 -8 67.5 l0 358 q0 38 8.5 70.5 q8.5 32.5 27 56 q18.5 23.5 47 37 q28.5 13.5 68.5 13.5 Z" /><glyph glyph-name="ccircumflex" unicode="&#x109;" d="M130 743 l-43 0 l84 90 l40 0 l85 -90 l-44 0 l-61 64 l-61 -64 ZM188 706 q40 0 68.5 -13.5 q28.5 -13.5 47 -37 q18.5 -23.5 27 -56 q8.5 -32.5 8.5 -70.5 l0 -58 l-44 0 l0 61 q0 28 -5.5 52 q-5.5 24 -18.5 42 q-13 18 -33 28 q-20 10 -49 10 q-29 0 -49 -10 q-20 -10 -33 -28 q-13 -18 -18.5 -42 q-5.5 -24 -5.5 -52 l0 -364 q0 -28 5.5 -52 q5.5 -24 18.5 -41.5 q13 -17.5 33 -27.5 q20 -10 49 -10 q29 0 49 10 q20 10 33 27.5 q13 17.5 18.5 41.5 q5.5 24 5.5 52 l0 83 l44 0 l0 -80 q0 -38 -8.5 -70.5 q-8.5 -32.5 -27 -56 q-18.5 -23.5 -47 -37 q-28.5 -13.5 -68.5 -13.5 q-40 0 -68.5 13.5 q-28.5 13.5 -47 37 q-18.5 23.5 -27 56 q-8.5 32.5 -8.5 70.5 l0 358 q0 38 8.5 70.5 q8.5 32.5 27 56 q18.5 23.5 47 37 q28.5 13.5 68.5 13.5 Z" /><glyph glyph-name="cdotaccent" unicode="&#x10b;" d="M208 824 l0 -84 l-41 0 l0 84 l41 0 ZM188 706 q40 0 68.5 -13.5 q28.5 -13.5 47 -37 q18.5 -23.5 27 -56 q8.5 -32.5 8.5 -70.5 l0 -58 l-44 0 l0 61 q0 28 -5.5 52 q-5.5 24 -18.5 42 q-13 18 -33 28 q-20 10 -49 10 q-29 0 -49 -10 q-20 -10 -33 -28 q-13 -18 -18.5 -42 q-5.5 -24 -5.5 -52 l0 -364 q0 -28 5.5 -52 q5.5 -24 18.5 -41.5 q13 -17.5 33 -27.5 q20 -10 49 -10 q29 0 49 10 q20 10 33 27.5 q13 17.5 18.5 41.5 q5.5 24 5.5 52 l0 83 l44 0 l0 -80 q0 -38 -8.5 -70.5 q-8.5 -32.5 -27 -56 q-18.5 -23.5 -47 -37 q-28.5 -13.5 -68.5 -13.5 q-40 0 -68.5 13.5 q-28.5 13.5 -47 37 q-18.5 23.5 -27 56 q-8.5 32.5 -8.5 70.5 l0 358 q0 38 8.5 70.5 q8.5 32.5 27 56 q18.5 23.5 47 37 q28.5 13.5 68.5 13.5 Z" /><glyph glyph-name="d" unicode="d" d="M194 700 q40 0 69.5 -12.5 q29.5 -12.5 48.5 -35.5 q19 -23 28 -55 q9 -32 9 -71 l0 -352 q0 -39 -9 -71 q-9 -32 -28 -55 q-19 -23 -48.5 -35.5 q-29.5 -12.5 -69.5 -12.5 l-154 0 l0 700 l154 0 ZM193 42 q59 0 84.5 36 q25.5 36 25.5 94 l0 356 q0 58 -26 94 q-26 36 -84 36 l-107 0 l0 -616 l107 0 Z" /><glyph glyph-name="eth" unicode="ð" d="M194 700 q40 0 69.5 -12.5 q29.5 -12.5 48.5 -35.5 q19 -23 28 -55 q9 -32 9 -71 l0 -352 q0 -39 -9 -71 q-9 -32 -28 -55 q-19 -23 -48.5 -35.5 q-29.5 -12.5 -69.5 -12.5 l-154 0 l0 330 l-42 0 l0 38 l42 0 l0 332 l154 0 ZM176 330 l-90 0 l0 -288 l107 0 q59 0 84.5 36 q25.5 36 25.5 94 l0 356 q0 58 -26 94 q-26 36 -84 36 l-107 0 l0 -290 l90 0 l0 -38 Z" /><glyph glyph-name="dcaron" unicode="&#x10f;" d="M121 830 l61 -64 l61 64 l44 0 l-85 -90 l-40 0 l-84 90 l43 0 ZM194 700 q40 0 69.5 -12.5 q29.5 -12.5 48.5 -35.5 q19 -23 28 -55 q9 -32 9 -71 l0 -352 q0 -39 -9 -71 q-9 -32 -28 -55 q-19 -23 -48.5 -35.5 q-29.5 -12.5 -69.5 -12.5 l-154 0 l0 700 l154 0 ZM193 42 q59 0 84.5 36 q25.5 36 25.5 94 l0 356 q0 58 -26 94 q-26 36 -84 36 l-107 0 l0 -616 l107 0 Z" /><glyph glyph-name="dcroat" unicode="&#x111;" d="M194 700 q40 0 69.5 -12.5 q29.5 -12.5 48.5 -35.5 q19 -23 28 -55 q9 -32 9 -71 l0 -352 q0 -39 -9 -71 q-9 -32 -28 -55 q-19 -23 -48.5 -35.5 q-29.5 -12.5 -69.5 -12.5 l-154 0 l0 330 l-42 0 l0 38 l42 0 l0 332 l154 0 ZM176 330 l-90 0 l0 -288 l107 0 q59 0 84.5 36 q25.5 36 25.5 94 l0 356 q0 58 -26 94 q-26 36 -84 36 l-107 0 l0 -290 l90 0 l0 -38 Z" /><glyph glyph-name="e" unicode="e" d="M277 376 l0 -42 l-191 0 l0 -292 l230 0 l0 -42 l-276 0 l0 700 l276 0 l0 -42 l-230 0 l0 -282 l191 0 Z" /><glyph glyph-name="eacute" unicode="é" d="M260 835 l-84 -95 l-35 0 l71 95 l48 0 ZM277 376 l0 -42 l-191 0 l0 -292 l230 0 l0 -42 l-276 0 l0 700 l276 0 l0 -42 l-230 0 l0 -282 l191 0 Z" /><glyph glyph-name="ebreve" unicode="&#x115;" d="M274 832 q-2 -42 -29 -65 q-27 -23 -69 -23 q-42 0 -68.5 23 q-26.5 23 -27.5 65 l30 0 q1 -31 20.5 -44 q19.5 -13 45.5 -13 q27 0 46.5 13 q19.5 13 21.5 44 l30 0 ZM277 376 l0 -42 l-191 0 l0 -292 l230 0 l0 -42 l-276 0 l0 700 l276 0 l0 -42 l-230 0 l0 -282 l191 0 Z" /><glyph glyph-name="ecaron" unicode="&#x11b;" d="M119 831 l61 -64 l61 64 l43 0 l-84 -90 l-40 0 l-84 90 l43 0 ZM277 376 l0 -42 l-191 0 l0 -292 l230 0 l0 -42 l-276 0 l0 700 l276 0 l0 -42 l-230 0 l0 -282 l191 0 Z" /><glyph glyph-name="ecircumflex" unicode="ê" d="M116 741 l-43 0 l84 90 l40 0 l85 -90 l-44 0 l-61 64 l-61 -64 ZM277 376 l0 -42 l-191 0 l0 -292 l230 0 l0 -42 l-276 0 l0 700 l276 0 l0 -42 l-230 0 l0 -282 l191 0 Z" /><glyph glyph-name="edieresis" unicode="ë" d="M149 825 l0 -85 l-40 0 l0 85 l40 0 ZM246 825 l0 -85 l-41 0 l0 85 l41 0 ZM277 376 l0 -42 l-191 0 l0 -292 l230 0 l0 -42 l-276 0 l0 700 l276 0 l0 -42 l-230 0 l0 -282 l191 0 Z" /><glyph glyph-name="edotaccent" unicode="&#x117;" d="M200 827 l0 -85 l-41 0 l0 85 l41 0 ZM277 376 l0 -42 l-191 0 l0 -292 l230 0 l0 -42 l-276 0 l0 700 l276 0 l0 -42 l-230 0 l0 -282 l191 0 Z" /><glyph glyph-name="egrave" unicode="è" d="M153 842 l71 -95 l-37 0 l-84 95 l50 0 ZM277 376 l0 -42 l-191 0 l0 -292 l230 0 l0 -42 l-276 0 l0 700 l276 0 l0 -42 l-230 0 l0 -282 l191 0 Z" /><glyph glyph-name="emacron" unicode="&#x113;" d="M269 796 l0 -34 l-188 0 l0 34 l188 0 ZM277 376 l0 -42 l-191 0 l0 -292 l230 0 l0 -42 l-276 0 l0 700 l276 0 l0 -42 l-230 0 l0 -282 l191 0 Z" /><glyph glyph-name="eogonek" unicode="&#x119;" d="M277 376 l0 -42 l-191 0 l0 -292 l230 0 l0 -42 l-23 0 q-19 -15 -32.5 -38 q-13.5 -23 -12.5 -42 q1 -17 12.5 -24.5 q11.5 -7.5 26.5 -7.5 q14 0 24.5 3.5 q10.5 3.5 19.5 9.5 l0 -28 q-25 -13 -56 -13 q-27 1 -44.5 13 q-17.5 12 -19.5 38 q-1 24 14.5 48 q15.5 24 38.5 41 l-224 0 l0 700 l276 0 l0 -42 l-230 0 l0 -282 l191 0 Z" /><glyph glyph-name="f" unicode="f" d="M267 359 l0 -42 l-181 0 l0 -317 l-46 0 l0 700 l266 0 l0 -42 l-220 0 l0 -299 l181 0 Z" /><glyph glyph-name="g" unicode="g" d="M188 706 q40 0 68.5 -13.5 q28.5 -13.5 47 -37 q18.5 -23.5 27 -56 q8.5 -32.5 8.5 -70.5 l0 -52 l-44 0 l0 55 q0 28 -5.5 52 q-5.5 24 -18.5 42 q-13 18 -33 28 q-20 10 -49 10 q-29 0 -49 -10 q-20 -10 -33 -28 q-13 -18 -18.5 -42 q-5.5 -24 -5.5 -52 l0 -364 q0 -28 5.5 -52 q5.5 -24 18.5 -41.5 q13 -17.5 33 -27.5 q20 -10 49 -10 q29 0 49 10 q20 10 33 27.5 q13 17.5 18.5 41.5 q5.5 24 5.5 52 l0 151 l-93 0 l0 42 l137 0 l0 -190 q0 -38 -8.5 -70.5 q-8.5 -32.5 -27 -56 q-18.5 -23.5 -47 -37 q-28.5 -13.5 -68.5 -13.5 q-40 0 -68.5 13.5 q-28.5 13.5 -47 37 q-18.5 23.5 -27 56 q-8.5 32.5 -8.5 70.5 l0 358 q0 38 8.5 70.5 q8.5 32.5 27 56 q18.5 23.5 47 37 q28.5 13.5 68.5 13.5 Z" /><glyph glyph-name="gbreve" unicode="&#x11f;" d="M286 834 q-1 -42 -28 -65 q-27 -23 -69 -23 q-42 0 -69 23 q-27 23 -28 65 l30 0 q2 -31 21 -44 q19 -13 46 -13 q26 0 45.5 13 q19.5 13 21.5 44 l30 0 ZM188 706 q40 0 68.5 -13.5 q28.5 -13.5 47 -37 q18.5 -23.5 27 -56 q8.5 -32.5 8.5 -70.5 l0 -52 l-44 0 l0 55 q0 28 -5.5 52 q-5.5 24 -18.5 42 q-13 18 -33 28 q-20 10 -49 10 q-29 0 -49 -10 q-20 -10 -33 -28 q-13 -18 -18.5 -42 q-5.5 -24 -5.5 -52 l0 -364 q0 -28 5.5 -52 q5.5 -24 18.5 -41.5 q13 -17.5 33 -27.5 q20 -10 49 -10 q29 0 49 10 q20 10 33 27.5 q13 17.5 18.5 41.5 q5.5 24 5.5 52 l0 151 l-93 0 l0 42 l137 0 l0 -190 q0 -38 -8.5 -70.5 q-8.5 -32.5 -27 -56 q-18.5 -23.5 -47 -37 q-28.5 -13.5 -68.5 -13.5 q-40 0 -68.5 13.5 q-28.5 13.5 -47 37 q-18.5 23.5 -27 56 q-8.5 32.5 -8.5 70.5 l0 358 q0 38 8.5 70.5 q8.5 32.5 27 56 q18.5 23.5 47 37 q28.5 13.5 68.5 13.5 Z" /><glyph glyph-name="gcircumflex" unicode="&#x11d;" d="M128 747 l-43 0 l84 90 l40 0 l84 -90 l-43 0 l-61 64 l-61 -64 ZM188 706 q40 0 68.5 -13.5 q28.5 -13.5 47 -37 q18.5 -23.5 27 -56 q8.5 -32.5 8.5 -70.5 l0 -52 l-44 0 l0 55 q0 28 -5.5 52 q-5.5 24 -18.5 42 q-13 18 -33 28 q-20 10 -49 10 q-29 0 -49 -10 q-20 -10 -33 -28 q-13 -18 -18.5 -42 q-5.5 -24 -5.5 -52 l0 -364 q0 -28 5.5 -52 q5.5 -24 18.5 -41.5 q13 -17.5 33 -27.5 q20 -10 49 -10 q29 0 49 10 q20 10 33 27.5 q13 17.5 18.5 41.5 q5.5 24 5.5 52 l0 151 l-93 0 l0 42 l137 0 l0 -190 q0 -38 -8.5 -70.5 q-8.5 -32.5 -27 -56 q-18.5 -23.5 -47 -37 q-28.5 -13.5 -68.5 -13.5 q-40 0 -68.5 13.5 q-28.5 13.5 -47 37 q-18.5 23.5 -27 56 q-8.5 32.5 -8.5 70.5 l0 358 q0 38 8.5 70.5 q8.5 32.5 27 56 q18.5 23.5 47 37 q28.5 13.5 68.5 13.5 Z" /><glyph glyph-name="gdotaccent" unicode="&#x121;" d="M214 828 l0 -85 l-40 0 l0 85 l40 0 ZM188 706 q40 0 68.5 -13.5 q28.5 -13.5 47 -37 q18.5 -23.5 27 -56 q8.5 -32.5 8.5 -70.5 l0 -52 l-44 0 l0 55 q0 28 -5.5 52 q-5.5 24 -18.5 42 q-13 18 -33 28 q-20 10 -49 10 q-29 0 -49 -10 q-20 -10 -33 -28 q-13 -18 -18.5 -42 q-5.5 -24 -5.5 -52 l0 -364 q0 -28 5.5 -52 q5.5 -24 18.5 -41.5 q13 -17.5 33 -27.5 q20 -10 49 -10 q29 0 49 10 q20 10 33 27.5 q13 17.5 18.5 41.5 q5.5 24 5.5 52 l0 151 l-93 0 l0 42 l137 0 l0 -190 q0 -38 -8.5 -70.5 q-8.5 -32.5 -27 -56 q-18.5 -23.5 -47 -37 q-28.5 -13.5 -68.5 -13.5 q-40 0 -68.5 13.5 q-28.5 13.5 -47 37 q-18.5 23.5 -27 56 q-8.5 32.5 -8.5 70.5 l0 358 q0 38 8.5 70.5 q8.5 32.5 27 56 q18.5 23.5 47 37 q28.5 13.5 68.5 13.5 Z" /><glyph glyph-name="h" unicode="h" d="M86 329 l0 -329 l-46 0 l0 700 l46 0 l0 -329 l218 0 l0 329 l47 0 l0 -700 l-47 0 l0 329 l-218 0 Z" /><glyph glyph-name="hbar" unicode="&#x127;" d="M352 525 l0 -525 l-46 0 l0 329 l-218 0 l0 -329 l-46 0 l0 525 l-38 0 l0 35 l38 0 l0 140 l46 0 l0 -140 l218 0 l0 140 l46 0 l0 -140 l37 0 l0 -35 l-37 0 ZM306 525 l-218 0 l0 -154 l218 0 l0 154 Z" /><glyph glyph-name="hcircumflex" unicode="&#x125;" d="M134 745 l-43 0 l84 90 l40 0 l85 -90 l-44 0 l-61 64 l-61 -64 ZM86 329 l0 -329 l-46 0 l0 700 l46 0 l0 -329 l218 0 l0 329 l47 0 l0 -700 l-47 0 l0 329 l-218 0 Z" /><glyph glyph-name="i" unicode="i" d="M86 700 l0 -700 l-46 0 l0 700 l46 0 Z" /><glyph glyph-name="dotlessi" unicode="&#x131;" d="M86 700 l0 -700 l-46 0 l0 700 l46 0 Z" /><glyph glyph-name="iacute" unicode="í" d="M96 836 l48 0 l-84 -95 l-35 0 l71 95 ZM40 700 l46 0 l0 -700 l-46 0 l0 700 Z" /><glyph glyph-name="ibreve" unicode="&#x12d;" d="M160 828 q-1 -42 -28 -65.5 q-27 -23.5 -69 -23.5 q-42 0 -69 23.5 q-27 23.5 -28 65.5 l30 0 q2 -31 21.5 -44.5 q19.5 -13.5 45.5 -13.5 q26 0 45.5 13.5 q19.5 13.5 21.5 44.5 l30 0 ZM40 700 l46 0 l0 -700 l-46 0 l0 700 Z" /><glyph glyph-name="icircumflex" unicode="î" d="M83 830 l84 -90 l-43 0 l-61 64 l-61 -64 l-43 0 l84 90 l40 0 ZM40 700 l46 0 l0 -700 l-46 0 l0 700 Z" /><glyph glyph-name="idieresis" unicode="ï" d="M35 825 l0 -84 l-41 0 l0 84 l41 0 ZM132 825 l0 -84 l-41 0 l0 84 l41 0 ZM86 700 l0 -700 l-46 0 l0 700 l46 0 Z" /><glyph glyph-name="igrave" unicode="ì" d="M-24 835 l49 0 l71 -95 l-36 0 l-84 95 ZM40 700 l46 0 l0 -700 l-46 0 l0 700 Z" /><glyph glyph-name="ij" unicode="&#x133;" d="M86 700 l0 -700 l-46 0 l0 700 l46 0 ZM341 172 q0 -47 -10 -79 q-10 -32 -29 -52.5 q-19 -20.5 -45.5 -30 q-26.5 -9.5 -59.5 -11.5 q-11 0 -21 0 q-10 0 -21 1 l0 42 l37 0 q54 4 78.5 33 q24.5 29 24.5 94 l0 531 l46 0 l0 -528 Z" /><glyph glyph-name="imacron" unicode="&#x12b;" d="M147 793 l0 -33 l-168 0 l0 33 l168 0 ZM86 700 l0 -700 l-46 0 l0 700 l46 0 Z" /><glyph glyph-name="iogonek" unicode="&#x12f;" d="M79 0 q-18 -15 -31 -38 q-13 -23 -12 -42 q1 -17 12.5 -24.5 q11.5 -7.5 26.5 -7.5 q26 0 44 13 l0 -28 q-25 -13 -56 -13 q-26 1 -44 13 q-18 12 -20 38 q-1 23 13 46.5 q14 23.5 40 42.5 l-13 0 l1 700 l46 0 l0 -700 l-7 0 Z" /><glyph glyph-name="itilde" unicode="&#x129;" d="M173 799 q-20 -47 -58 -48 q-14 0 -26 5 q-12 5 -23 11.5 q-11 6.5 -22 11.5 q-11 5 -23 5 q-25 0 -41 -30 l-25 17 q22 47 62 47 q15 0 27 -5 q12 -5 23.5 -11.5 q11.5 -6.5 22 -11.5 q10.5 -5 21.5 -5 q12 0 21 8.5 q9 8.5 16 21.5 l25 -16 ZM86 700 l0 -700 l-46 0 l0 700 l46 0 Z" /><glyph glyph-name="j" unicode="j" d="M29 42 q11 -1 21 -0.5 q10 0.5 20 1.5 q50 4 74.5 32.5 q24.5 28.5 24.5 93.5 l0 531 l46 0 l0 -528 q0 -92 -38 -130.5 q-38 -38.5 -102 -41.5 q-22 -1 -46 0 l0 42 Z" /><glyph glyph-name="uni0237" unicode="&#x237;" d="M29 42 q11 -1 21 -0.5 q10 0.5 20 1.5 q50 4 74.5 32.5 q24.5 28.5 24.5 93.5 l0 531 l46 0 l0 -528 q0 -92 -38 -130.5 q-38 -38.5 -102 -41.5 q-22 -1 -46 0 l0 42 Z" /><glyph glyph-name="jcircumflex" unicode="&#x135;" d="M124 741 l-43 0 l84 90 l40 0 l85 -90 l-44 0 l-61 64 l-61 -64 ZM215 172 q0 -92 -38 -130.5 q-38 -38.5 -102 -41.5 q-22 -1 -46 0 l0 42 q11 -1 21 -0.5 q10 0.5 20 1.5 q50 4 74.5 32.5 q24.5 28.5 24.5 93.5 l0 531 l46 0 l0 -528 Z" /><glyph glyph-name="k" unicode="k" d="M134 329 l-48 -76 l0 -253 l-46 0 l0 700 l46 0 l0 -370 l228 370 l48 0 l-200 -326 l213 -374 l-48 0 l-193 329 Z" /><glyph glyph-name="kgreenlandic" unicode="&#x138;" d="M134 329 l-48 -76 l0 -253 l-46 0 l0 700 l46 0 l0 -370 l228 370 l48 0 l-200 -326 l213 -374 l-48 0 l-193 329 Z" /><glyph glyph-name="l" unicode="l" d="M40 0 l0 700 l46 0 l0 -658 l220 0 l0 -42 l-266 0 Z" /><glyph glyph-name="lacute" unicode="&#x13a;" d="M159 836 l-84 -95 l-35 0 l71 95 l48 0 ZM40 0 l0 700 l46 0 l0 -658 l220 0 l0 -42 l-266 0 Z" /><glyph glyph-name="lcaron" unicode="&#x13e;" d="M40 0 l0 700 l46 0 l0 -658 l220 0 l0 -42 l-266 0 ZM231 612 l-16 0 l0 88 l45 0 l0 -84 l-29 -80 l-20 0 l20 76 Z" /><glyph glyph-name="ldot" unicode="&#x140;" d="M40 0 l0 700 l46 0 l0 -658 l220 0 l0 -42 l-266 0 ZM230 397 l0 -88 l-45 0 l0 88 l45 0 Z" /><glyph glyph-name="lslash" unicode="&#x142;" d="M99 317 l0 -275 l220 0 l0 -42 l-266 0 l0 268 l-53 -49 l0 44 l53 49 l0 388 l46 0 l0 -339 l96 96 l0 -45 l-96 -95 Z" /><glyph glyph-name="m" unicode="m" d="M275 1 l-46 0 l-148 619 l0 -620 l-41 0 l0 700 l66 0 l147 -619 l146 619 l66 0 l0 -700 l-44 0 l0 622 l-146 -621 Z" /><glyph glyph-name="n" unicode="n" d="M82 0 l-42 0 l0 700 l60 0 l210 -591 l0 591 l42 0 l0 -700 l-51 0 l-219 624 l0 -624 Z" /><glyph glyph-name="nacute" unicode="&#x144;" d="M282 837 l-84 -95 l-35 0 l72 95 l47 0 ZM82 1 l-42 0 l0 700 l60 0 l210 -591 l0 591 l42 0 l0 -700 l-51 0 l-219 624 l0 -624 Z" /><glyph glyph-name="napostrophe" unicode="&#x149;" d="M34 612 l-16 0 l0 88 l44 0 l0 -84 l-28 -80 l-21 0 l21 76 ZM155 0 l-42 0 l0 700 l61 0 l210 -591 l0 591 l41 0 l0 -700 l-50 0 l-220 624 l0 -624 Z" /><glyph glyph-name="ncaron" unicode="&#x148;" d="M136 835 l61 -63 l61 63 l43 0 l-84 -90 l-40 0 l-84 90 l43 0 ZM82 0 l-42 0 l0 700 l60 0 l210 -591 l0 591 l42 0 l0 -700 l-51 0 l-219 624 l0 -624 Z" /><glyph glyph-name="ntilde" unicode="ñ" d="M305 802 q-19 -45 -58 -47 q-14 0 -25.5 5 q-11.5 5 -22.5 11.5 q-11 6.5 -22 11.5 q-11 5 -23 5 q-25 0 -42 -30 l-24 16 q19 46 62 48 q14 0 26 -5 q12 -5 23.5 -11.5 q11.5 -6.5 22 -12 q10.5 -5.5 21.5 -4.5 q13 0 22 8.5 q9 8.5 16 21.5 l24 -17 ZM82 0 l-42 0 l0 700 l60 0 l210 -591 l0 591 l42 0 l0 -700 l-51 0 l-219 624 l0 -624 Z" /><glyph glyph-name="o" unicode="o" d="M37 529 q0 38 9 70.5 q9 32.5 27.5 56 q18.5 23.5 47.5 37 q29 13.5 69 13.5 q40 0 69.5 -13.5 q29.5 -13.5 48.5 -37 q19 -23.5 28 -56 q9 -32.5 9 -70.5 l0 -358 q0 -38 -9 -70.5 q-9 -32.5 -28 -56 q-19 -23.5 -48.5 -37 q-29.5 -13.5 -69.5 -13.5 q-40 0 -69 13.5 q-29 13.5 -47.5 37 q-18.5 23.5 -27.5 56 q-9 32.5 -9 70.5 l0 358 ZM83 168 q0 -57 24.5 -94.5 q24.5 -37.5 82.5 -37.5 q58 0 83.5 37.5 q25.5 37.5 25.5 94.5 l0 364 q0 57 -25.5 94.5 q-25.5 37.5 -83.5 37.5 q-58 0 -82.5 -37.5 q-24.5 -37.5 -24.5 -94.5 l0 -364 Z" /><glyph glyph-name="oacute" unicode="ó" d="M271 842 l-84 -95 l-35 0 l71 95 l48 0 ZM190 706 q40 0 69.5 -13.5 q29.5 -13.5 48.5 -37 q19 -23.5 28 -56 q9 -32.5 9 -70.5 l0 -358 q0 -38 -9 -70.5 q-9 -32.5 -28 -56 q-19 -23.5 -48.5 -37 q-29.5 -13.5 -69.5 -13.5 q-40 0 -69 13.5 q-29 13.5 -47.5 37 q-18.5 23.5 -27.5 56 q-9 32.5 -9 70.5 l0 358 q0 38 9 70.5 q9 32.5 27.5 56 q18.5 23.5 47.5 37 q29 13.5 69 13.5 ZM190 664 q-58 0 -82.5 -37.5 q-24.5 -37.5 -24.5 -94.5 l0 -364 q0 -57 24.5 -94.5 q24.5 -37.5 82.5 -37.5 q58 0 83.5 37.5 q25.5 37.5 25.5 94.5 l0 364 q0 57 -25.5 94.5 q-25.5 37.5 -83.5 37.5 Z" /><glyph glyph-name="obreve" unicode="&#x14f;" d="M288 834 q-2 -42 -29 -65 q-27 -23 -69 -23 q-42 0 -68.5 23 q-26.5 23 -27.5 65 l29 0 q2 -31 21.5 -44 q19.5 -13 45.5 -13 q26 0 46 13 q20 13 22 44 l30 0 ZM190 706 q40 0 69.5 -13.5 q29.5 -13.5 48.5 -37 q19 -23.5 28 -56 q9 -32.5 9 -70.5 l0 -358 q0 -38 -9 -70.5 q-9 -32.5 -28 -56 q-19 -23.5 -48.5 -37 q-29.5 -13.5 -69.5 -13.5 q-40 0 -69 13.5 q-29 13.5 -47.5 37 q-18.5 23.5 -27.5 56 q-9 32.5 -9 70.5 l0 358 q0 38 9 70.5 q9 32.5 27.5 56 q18.5 23.5 47.5 37 q29 13.5 69 13.5 ZM190 664 q-58 0 -82.5 -37.5 q-24.5 -37.5 -24.5 -94.5 l0 -364 q0 -57 24.5 -94.5 q24.5 -37.5 82.5 -37.5 q58 0 83.5 37.5 q25.5 37.5 25.5 94.5 l0 364 q0 57 -25.5 94.5 q-25.5 37.5 -83.5 37.5 Z" /><glyph glyph-name="ocircumflex" unicode="ô" d="M129 745 l-43 0 l84 90 l40 0 l84 -90 l-43 0 l-61 64 l-61 -64 ZM190 706 q40 0 69.5 -13.5 q29.5 -13.5 48.5 -37 q19 -23.5 28 -56 q9 -32.5 9 -70.5 l0 -358 q0 -38 -9 -70.5 q-9 -32.5 -28 -56 q-19 -23.5 -48.5 -37 q-29.5 -13.5 -69.5 -13.5 q-40 0 -69 13.5 q-29 13.5 -47.5 37 q-18.5 23.5 -27.5 56 q-9 32.5 -9 70.5 l0 358 q0 38 9 70.5 q9 32.5 27.5 56 q18.5 23.5 47.5 37 q29 13.5 69 13.5 ZM190 664 q-58 0 -82.5 -37.5 q-24.5 -37.5 -24.5 -94.5 l0 -364 q0 -57 24.5 -94.5 q24.5 -37.5 82.5 -37.5 q58 0 83.5 37.5 q25.5 37.5 25.5 94.5 l0 364 q0 57 -25.5 94.5 q-25.5 37.5 -83.5 37.5 Z" /><glyph glyph-name="odieresis" unicode="ö" d="M162 830 l0 -85 l-41 0 l0 85 l41 0 ZM259 830 l0 -85 l-41 0 l0 85 l41 0 ZM190 706 q40 0 69.5 -13.5 q29.5 -13.5 48.5 -37 q19 -23.5 28 -56 q9 -32.5 9 -70.5 l0 -358 q0 -38 -9 -70.5 q-9 -32.5 -28 -56 q-19 -23.5 -48.5 -37 q-29.5 -13.5 -69.5 -13.5 q-40 0 -69 13.5 q-29 13.5 -47.5 37 q-18.5 23.5 -27.5 56 q-9 32.5 -9 70.5 l0 358 q0 38 9 70.5 q9 32.5 27.5 56 q18.5 23.5 47.5 37 q29 13.5 69 13.5 ZM190 664 q-58 0 -82.5 -37.5 q-24.5 -37.5 -24.5 -94.5 l0 -364 q0 -57 24.5 -94.5 q24.5 -37.5 82.5 -37.5 q58 0 83.5 37.5 q25.5 37.5 25.5 94.5 l0 364 q0 57 -25.5 94.5 q-25.5 37.5 -83.5 37.5 Z" /><glyph glyph-name="ograve" unicode="ò" d="M158 842 l71 -95 l-37 0 l-84 95 l50 0 ZM190 706 q40 0 69.5 -13.5 q29.5 -13.5 48.5 -37 q19 -23.5 28 -56 q9 -32.5 9 -70.5 l0 -358 q0 -38 -9 -70.5 q-9 -32.5 -28 -56 q-19 -23.5 -48.5 -37 q-29.5 -13.5 -69.5 -13.5 q-40 0 -69 13.5 q-29 13.5 -47.5 37 q-18.5 23.5 -27.5 56 q-9 32.5 -9 70.5 l0 358 q0 38 9 70.5 q9 32.5 27.5 56 q18.5 23.5 47.5 37 q29 13.5 69 13.5 ZM190 664 q-58 0 -82.5 -37.5 q-24.5 -37.5 -24.5 -94.5 l0 -364 q0 -57 24.5 -94.5 q24.5 -37.5 82.5 -37.5 q58 0 83.5 37.5 q25.5 37.5 25.5 94.5 l0 364 q0 57 -25.5 94.5 q-25.5 37.5 -83.5 37.5 Z" /><glyph glyph-name="ohungarumlaut" unicode="&#x151;" d="M228 842 l-77 -95 l-33 0 l65 95 l45 0 ZM313 842 l-78 -95 l-32 0 l65 95 l45 0 ZM190 706 q40 0 69.5 -13.5 q29.5 -13.5 48.5 -37 q19 -23.5 28 -56 q9 -32.5 9 -70.5 l0 -358 q0 -38 -9 -70.5 q-9 -32.5 -28 -56 q-19 -23.5 -48.5 -37 q-29.5 -13.5 -69.5 -13.5 q-40 0 -69 13.5 q-29 13.5 -47.5 37 q-18.5 23.5 -27.5 56 q-9 32.5 -9 70.5 l0 358 q0 38 9 70.5 q9 32.5 27.5 56 q18.5 23.5 47.5 37 q29 13.5 69 13.5 ZM190 664 q-58 0 -82.5 -37.5 q-24.5 -37.5 -24.5 -94.5 l0 -364 q0 -57 24.5 -94.5 q24.5 -37.5 82.5 -37.5 q58 0 83.5 37.5 q25.5 37.5 25.5 94.5 l0 364 q0 57 -25.5 94.5 q-25.5 37.5 -83.5 37.5 Z" /><glyph glyph-name="omacron" unicode="&#x14d;" d="M285 794 l0 -34 l-187 0 l0 34 l187 0 ZM190 706 q40 0 69.5 -13.5 q29.5 -13.5 48.5 -37 q19 -23.5 28 -56 q9 -32.5 9 -70.5 l0 -358 q0 -38 -9 -70.5 q-9 -32.5 -28 -56 q-19 -23.5 -48.5 -37 q-29.5 -13.5 -69.5 -13.5 q-40 0 -69 13.5 q-29 13.5 -47.5 37 q-18.5 23.5 -27.5 56 q-9 32.5 -9 70.5 l0 358 q0 38 9 70.5 q9 32.5 27.5 56 q18.5 23.5 47.5 37 q29 13.5 69 13.5 ZM190 664 q-58 0 -82.5 -37.5 q-24.5 -37.5 -24.5 -94.5 l0 -364 q0 -57 24.5 -94.5 q24.5 -37.5 82.5 -37.5 q58 0 83.5 37.5 q25.5 37.5 25.5 94.5 l0 364 q0 57 -25.5 94.5 q-25.5 37.5 -83.5 37.5 Z" /><glyph glyph-name="oslash" unicode="ø" d="M316 645 q15 -23 22 -52 q7 -29 7 -64 l0 -358 q0 -38 -9 -70.5 q-9 -32.5 -28 -56 q-19 -23.5 -48.5 -37 q-29.5 -13.5 -69.5 -13.5 q-35 0 -62 10.5 q-27 10.5 -45 29.5 l-20 -51 l-23 8 l25 66 q-28 44 -28 114 l0 358 q0 38 9 70.5 q9 32.5 27.5 56 q18.5 23.5 47.5 37 q29 13.5 69 13.5 q36 0 62.5 -10.5 q26.5 -10.5 45.5 -29.5 l19 49 l22 -8 l-23 -62 ZM83 168 q0 -14 1.5 -26.5 q1.5 -12.5 3.5 -24.5 l192 501 q-13 21 -35 33.5 q-22 12.5 -55 12.5 q-58 0 -82.5 -37.5 q-24.5 -37.5 -24.5 -94.5 l0 -364 ZM299 532 q0 28 -6 54 l-192 -503 q13 -22 34.5 -34.5 q21.5 -12.5 54.5 -12.5 q58 0 83.5 37.5 q25.5 37.5 25.5 94.5 l0 364 Z" /><glyph glyph-name="oslashacute" unicode="&#x1ff;" d="M230 842 l48 0 l-84 -95 l-35 0 l71 95 ZM316 645 q15 -23 22 -52 q7 -29 7 -64 l0 -358 q0 -38 -9 -70.5 q-9 -32.5 -28 -56 q-19 -23.5 -48.5 -37 q-29.5 -13.5 -69.5 -13.5 q-35 0 -62 10.5 q-27 10.5 -45 29.5 l-20 -51 l-23 8 l25 66 q-28 44 -28 114 l0 358 q0 38 9 70.5 q9 32.5 27.5 56 q18.5 23.5 47.5 37 q29 13.5 69 13.5 q36 0 62.5 -10.5 q26.5 -10.5 45.5 -29.5 l19 49 l22 -8 l-23 -62 ZM83 168 q0 -14 1.5 -26.5 q1.5 -12.5 3.5 -24.5 l192 501 q-13 21 -35 33.5 q-22 12.5 -55 12.5 q-58 0 -82.5 -37.5 q-24.5 -37.5 -24.5 -94.5 l0 -364 ZM299 532 q0 28 -6 54 l-192 -503 q13 -22 34.5 -34.5 q21.5 -12.5 54.5 -12.5 q58 0 83.5 37.5 q25.5 37.5 25.5 94.5 l0 364 Z" /><glyph glyph-name="otilde" unicode="õ" d="M303 800 q-9 -22 -23.5 -34.5 q-14.5 -12.5 -34.5 -13.5 q-14 0 -25.5 5 q-11.5 5 -22.5 11.5 q-11 6.5 -22 12 q-11 5.5 -23 5.5 q-27 0 -42 -31 l-25 17 q22 47 63 47 q14 0 26 -5 q12 -5 23.5 -11.5 q11.5 -6.5 22 -11.5 q10.5 -5 21.5 -5 q13 1 22 9 q9 8 15 21 l25 -16 ZM190 706 q40 0 69.5 -13.5 q29.5 -13.5 48.5 -37 q19 -23.5 28 -56 q9 -32.5 9 -70.5 l0 -358 q0 -38 -9 -70.5 q-9 -32.5 -28 -56 q-19 -23.5 -48.5 -37 q-29.5 -13.5 -69.5 -13.5 q-40 0 -69 13.5 q-29 13.5 -47.5 37 q-18.5 23.5 -27.5 56 q-9 32.5 -9 70.5 l0 358 q0 38 9 70.5 q9 32.5 27.5 56 q18.5 23.5 47.5 37 q29 13.5 69 13.5 ZM190 664 q-58 0 -82.5 -37.5 q-24.5 -37.5 -24.5 -94.5 l0 -364 q0 -57 24.5 -94.5 q24.5 -37.5 82.5 -37.5 q58 0 83.5 37.5 q25.5 37.5 25.5 94.5 l0 364 q0 57 -25.5 94.5 q-25.5 37.5 -83.5 37.5 Z" /><glyph glyph-name="oe" unicode="&#x153;" d="M497 376 l0 -42 l-170 0 l0 -292 l205 0 l0 -42 l-350 0 q-39 0 -67 13.5 q-28 13.5 -45.5 37 q-17.5 23.5 -25.5 55.5 q-8 32 -8 68 l0 352 q0 36 8 68 q8 32 25.5 55.5 q17.5 23.5 45.5 37 q28 13.5 67 13.5 l350 0 l0 -42 l-205 0 l0 -282 l170 0 ZM183 658 q-28 0 -47 -10.5 q-19 -10.5 -31 -28 q-12 -17.5 -17.5 -41 q-5.5 -23.5 -5.5 -50.5 l0 -356 q0 -27 5.5 -50.5 q5.5 -23.5 17.5 -41 q12 -17.5 31 -28 q19 -10.5 47 -10.5 l98 0 l0 616 l-98 0 Z" /><glyph glyph-name="p" unicode="p" d="M185 700 q81 0 115.5 -46.5 q34.5 -46.5 34.5 -123.5 l0 -76 q0 -84 -39 -125 q-39 -41 -123 -41 l-87 0 l0 -288 l-46 0 l0 700 l145 0 ZM173 330 q61 0 88.5 28.5 q27.5 28.5 27.5 92.5 l0 82 q0 57 -22.5 91 q-22.5 34 -81.5 34 l-99 0 l0 -328 l87 0 Z" /><glyph glyph-name="thorn" unicode="þ" d="M185 578 q81 0 115.5 -46.5 q34.5 -46.5 34.5 -123.5 l0 -76 q0 -84 -39 -125 q-39 -41 -123 -41 l-87 0 l0 -166 l-46 0 l0 700 l46 0 l0 -122 l99 0 ZM173 208 q61 0 88.5 28.5 q27.5 28.5 27.5 92.5 l0 81 q0 58 -22.5 91.5 q-22.5 33.5 -81.5 33.5 l-99 0 l0 -327 l87 0 Z" /><glyph glyph-name="q" unicode="q" d="M191 706 q40 0 69 -13.5 q29 -13.5 48 -37 q19 -23.5 28 -56 q9 -32.5 9 -70.5 l0 -358 q0 -36 -8 -67 q-8 -31 -25 -54 q9 -16 22.5 -22 q13.5 -6 32.5 -6 l11 0 l0 -41 l-12 0 q-58 0 -83 41 q-17 -13 -40 -20.5 q-23 -7.5 -52 -7.5 q-40 0 -69 13.5 q-29 13.5 -48 37 q-19 23.5 -28 56 q-9 32.5 -9 70.5 l0 358 q0 38 9 70.5 q9 32.5 28 56 q19 23.5 48 37 q29 13.5 69 13.5 ZM191 664 q-58 0 -83 -37.5 q-25 -37.5 -25 -94.5 l0 -364 q0 -57 25 -94.5 q25 -37.5 83 -37.5 q58 0 83 37.5 q25 37.5 25 94.5 l0 364 q0 57 -25 94.5 q-25 37.5 -83 37.5 Z" /><glyph glyph-name="r" unicode="r" d="M186 700 q80 0 115 -42 q35 -42 35 -116 l0 -61 q0 -122 -101 -145 q54 -12 77.5 -49 q23.5 -37 23.5 -94 l0 -109 q0 -22 3 -44.5 q3 -22.5 14 -39.5 l-48 0 q-9 16 -12 35.5 q-3 19.5 -3 48.5 l0 110 q0 35 -9 58 q-9 23 -26.5 36.5 q-17.5 13.5 -41.5 19 q-24 5.5 -54 5.5 l-73 0 l0 -313 l-46 0 l0 700 l146 0 ZM160 355 q31 0 55 5 q24 5 40.5 18 q16.5 13 25.5 36 q9 23 9 58 l0 66 q0 57 -24 88.5 q-24 31.5 -81 31.5 l-99 0 l0 -303 l74 0 Z" /><glyph glyph-name="racute" unicode="&#x155;" d="M261 842 l-84 -95 l-35 0 l71 95 l48 0 ZM186 700 q80 0 115 -42 q35 -42 35 -116 l0 -61 q0 -122 -101 -145 q54 -12 77.5 -49 q23.5 -37 23.5 -94 l0 -109 q0 -22 3 -44.5 q3 -22.5 14 -39.5 l-48 0 q-9 16 -12 35.5 q-3 19.5 -3 48.5 l0 110 q0 35 -9 58 q-9 23 -26.5 36.5 q-17.5 13.5 -41.5 19 q-24 5.5 -54 5.5 l-73 0 l0 -313 l-46 0 l0 700 l146 0 ZM160 355 q31 0 55 5 q24 5 40.5 18 q16.5 13 25.5 36 q9 23 9 58 l0 66 q0 57 -24 88.5 q-24 31.5 -81 31.5 l-99 0 l0 -303 l74 0 Z" /><glyph glyph-name="rcaron" unicode="&#x159;" d="M116 836 l61 -64 l61 64 l44 0 l-85 -90 l-40 0 l-84 90 l43 0 ZM186 700 q80 0 115 -42 q35 -42 35 -116 l0 -61 q0 -122 -101 -145 q54 -12 77.5 -49 q23.5 -37 23.5 -94 l0 -109 q0 -22 3 -44.5 q3 -22.5 14 -39.5 l-48 0 q-9 16 -12 35.5 q-3 19.5 -3 48.5 l0 110 q0 35 -9 58 q-9 23 -26.5 36.5 q-17.5 13.5 -41.5 19 q-24 5.5 -54 5.5 l-73 0 l0 -313 l-46 0 l0 700 l146 0 ZM160 355 q31 0 55 5 q24 5 40.5 18 q16.5 13 25.5 36 q9 23 9 58 l0 66 q0 57 -24 88.5 q-24 31.5 -81 31.5 l-99 0 l0 -303 l74 0 Z" /><glyph glyph-name="s" unicode="s" d="M186 706 q40 0 68 -13 q28 -13 46 -36.5 q18 -23.5 26.5 -55.5 q8.5 -32 8.5 -70 l0 -15 l-44 0 l0 18 q0 28 -5.5 51.5 q-5.5 23.5 -18 41 q-12.5 17.5 -32.5 27.5 q-20 10 -48 10 q-57 0 -80.5 -36.5 q-23.5 -36.5 -23.5 -92.5 q0 -43 18.5 -73 q18.5 -30 47 -54.5 q28.5 -24.5 61 -47 q32.5 -22.5 61 -49 q28.5 -26.5 47 -60.5 q18.5 -34 18.5 -82 q0 -38 -8.5 -70 q-8.5 -32 -27 -55.5 q-18.5 -23.5 -47 -36.5 q-28.5 -13 -68.5 -13 q-40 0 -68.5 13 q-28.5 13 -47 36.5 q-18.5 23.5 -27 55.5 q-8.5 32 -8.5 70 l0 36 l44 0 l0 -39 q0 -56 24 -92.5 q24 -36.5 82 -36.5 q58 0 82 36.5 q24 36.5 24 92.5 q0 42 -18.5 72 q-18.5 30 -47 54.5 q-28.5 24.5 -61 46.5 q-32.5 22 -61 48.5 q-28.5 26.5 -47 61 q-18.5 34.5 -18.5 83.5 q0 79 35.5 126 q35.5 47 113.5 48 Z" /><glyph glyph-name="sacute" unicode="&#x15b;" d="M273 842 l-84 -95 l-35 0 l71 95 l48 0 ZM186 706 q40 0 68 -13 q28 -13 46 -36.5 q18 -23.5 26.5 -55.5 q8.5 -32 8.5 -70 l0 -15 l-44 0 l0 18 q0 28 -5.5 51.5 q-5.5 23.5 -18 41 q-12.5 17.5 -32.5 27.5 q-20 10 -48 10 q-57 0 -80.5 -36.5 q-23.5 -36.5 -23.5 -92.5 q0 -43 18.5 -73 q18.5 -30 47 -54.5 q28.5 -24.5 61 -47 q32.5 -22.5 61 -49 q28.5 -26.5 47 -60.5 q18.5 -34 18.5 -82 q0 -38 -8.5 -70 q-8.5 -32 -27 -55.5 q-18.5 -23.5 -47 -36.5 q-28.5 -13 -68.5 -13 q-40 0 -68.5 13 q-28.5 13 -47 36.5 q-18.5 23.5 -27 55.5 q-8.5 32 -8.5 70 l0 36 l44 0 l0 -39 q0 -56 24 -92.5 q24 -36.5 82 -36.5 q58 0 82 36.5 q24 36.5 24 92.5 q0 42 -18.5 72 q-18.5 30 -47 54.5 q-28.5 24.5 -61 46.5 q-32.5 22 -61 48.5 q-28.5 26.5 -47 61 q-18.5 34.5 -18.5 83.5 q0 79 35.5 126 q35.5 47 113.5 48 Z" /><glyph glyph-name="scaron" unicode="&#x161;" d="M126 836 l61 -64 l61 64 l44 0 l-85 -90 l-40 0 l-84 90 l43 0 ZM186 706 q40 0 68 -13 q28 -13 46 -36.5 q18 -23.5 26.5 -55.5 q8.5 -32 8.5 -70 l0 -15 l-44 0 l0 18 q0 28 -5.5 51.5 q-5.5 23.5 -18 41 q-12.5 17.5 -32.5 27.5 q-20 10 -48 10 q-57 0 -80.5 -36.5 q-23.5 -36.5 -23.5 -92.5 q0 -43 18.5 -73 q18.5 -30 47 -54.5 q28.5 -24.5 61 -47 q32.5 -22.5 61 -49 q28.5 -26.5 47 -60.5 q18.5 -34 18.5 -82 q0 -38 -8.5 -70 q-8.5 -32 -27 -55.5 q-18.5 -23.5 -47 -36.5 q-28.5 -13 -68.5 -13 q-40 0 -68.5 13 q-28.5 13 -47 36.5 q-18.5 23.5 -27 55.5 q-8.5 32 -8.5 70 l0 36 l44 0 l0 -39 q0 -56 24 -92.5 q24 -36.5 82 -36.5 q58 0 82 36.5 q24 36.5 24 92.5 q0 42 -18.5 72 q-18.5 30 -47 54.5 q-28.5 24.5 -61 46.5 q-32.5 22 -61 48.5 q-28.5 26.5 -47 61 q-18.5 34.5 -18.5 83.5 q0 79 35.5 126 q35.5 47 113.5 48 Z" /><glyph glyph-name="scedilla" unicode="&#x15f;" d="M197 -34 q35 -1 55 -15.5 q20 -14.5 20 -40.5 q0 -31 -23.5 -48 q-23.5 -17 -65.5 -16 q-42 0 -65 16.5 q-23 16.5 -23 46.5 l0 6 l32 0 l0 -5 q0 -17 15 -27 q15 -10 41 -12 q27 0 42 10.5 q15 10.5 15 29.5 q0 17 -15.5 27 q-15.5 10 -44.5 10 l-7 0 l0 47 q-37 1 -63.5 15 q-26.5 14 -43 37 q-16.5 23 -24.5 54.5 q-8 31.5 -8 67.5 l0 36 l44 0 l0 -39 q0 -56 24 -92.5 q24 -36.5 82 -36.5 q58 0 82 36.5 q24 36.5 24 92.5 q0 42 -18.5 72 q-18.5 30 -47 54.5 q-28.5 24.5 -61 46.5 q-32.5 22 -61 48.5 q-28.5 26.5 -47 61 q-18.5 34.5 -18.5 83.5 q0 79 35.5 126 q35.5 47 113.5 48 q40 0 68 -13 q28 -13 46 -36.5 q18 -23.5 26.5 -55.5 q8.5 -32 8.5 -70 l0 -15 l-44 0 l0 18 q0 28 -5.5 51.5 q-5.5 23.5 -18 41 q-12.5 17.5 -32.5 27.5 q-20 10 -48 10 q-57 0 -80.5 -36.5 q-23.5 -36.5 -23.5 -92.5 q0 -43 18.5 -73 q18.5 -30 47 -54.5 q28.5 -24.5 61 -47 q32.5 -22.5 61 -49 q28.5 -26.5 47 -60.5 q18.5 -34 18.5 -82 q0 -74 -33 -122.5 q-33 -48.5 -106 -52.5 l0 -28 Z" /><glyph glyph-name="scircumflex" unicode="&#x15d;" d="M129 745 l-43 0 l84 90 l40 0 l84 -90 l-43 0 l-61 64 l-61 -64 ZM186 706 q40 0 68 -13 q28 -13 46 -36.5 q18 -23.5 26.5 -55.5 q8.5 -32 8.5 -70 l0 -15 l-44 0 l0 18 q0 28 -5.5 51.5 q-5.5 23.5 -18 41 q-12.5 17.5 -32.5 27.5 q-20 10 -48 10 q-57 0 -80.5 -36.5 q-23.5 -36.5 -23.5 -92.5 q0 -43 18.5 -73 q18.5 -30 47 -54.5 q28.5 -24.5 61 -47 q32.5 -22.5 61 -49 q28.5 -26.5 47 -60.5 q18.5 -34 18.5 -82 q0 -38 -8.5 -70 q-8.5 -32 -27 -55.5 q-18.5 -23.5 -47 -36.5 q-28.5 -13 -68.5 -13 q-40 0 -68.5 13 q-28.5 13 -47 36.5 q-18.5 23.5 -27 55.5 q-8.5 32 -8.5 70 l0 36 l44 0 l0 -39 q0 -56 24 -92.5 q24 -36.5 82 -36.5 q58 0 82 36.5 q24 36.5 24 92.5 q0 42 -18.5 72 q-18.5 30 -47 54.5 q-28.5 24.5 -61 46.5 q-32.5 22 -61 48.5 q-28.5 26.5 -47 61 q-18.5 34.5 -18.5 83.5 q0 79 35.5 126 q35.5 47 113.5 48 Z" /><glyph glyph-name="germandbls" unicode="ß" d="M183 706 q40 0 68 -13 q28 -13 46 -36.5 q18 -23.5 26.5 -55.5 q8.5 -32 8.5 -70 l0 -15 l-44 0 l0 18 q0 28 -5.5 51.5 q-5.5 23.5 -18 41 q-12.5 17.5 -32.5 27.5 q-20 10 -48 10 q-57 0 -80.5 -36.5 q-23.5 -36.5 -23.5 -92.5 q0 -43 18.5 -73 q18.5 -30 47 -54.5 q28.5 -24.5 61 -47 q32.5 -22.5 61 -49 q28.5 -26.5 47 -60.5 q18.5 -34 18.5 -82 q0 -38 -8.5 -70 q-8.5 -32 -27 -55.5 q-18.5 -23.5 -47 -36.5 q-28.5 -13 -68.5 -13 q-40 0 -68.5 13 q-28.5 13 -47 36.5 q-18.5 23.5 -27 55.5 q-8.5 32 -8.5 70 l0 36 l44 0 l0 -39 q0 -56 24 -92.5 q24 -36.5 82 -36.5 q57 0 81.5 36 q24.5 36 24.5 93 q0 42 -18.5 72 q-18.5 30 -47 54.5 q-28.5 24.5 -61 46.5 q-32.5 22 -61 48.5 q-28.5 26.5 -47 61 q-18.5 34.5 -18.5 83.5 q0 79 35.5 126 q35.5 47 113.5 48 ZM530 706 q40 0 68 -13 q28 -13 46 -36.5 q18 -23.5 26.5 -55.5 q8.5 -32 8.5 -70 l0 -15 l-44 0 l0 18 q0 28 -5.5 51.5 q-5.5 23.5 -18 41 q-12.5 17.5 -32.5 27.5 q-20 10 -48 10 q-57 0 -80.5 -36.5 q-23.5 -36.5 -23.5 -92.5 q0 -43 18.5 -73 q18.5 -30 47 -54.5 q28.5 -24.5 61 -47 q32.5 -22.5 61 -49 q28.5 -26.5 47 -60.5 q18.5 -34 18.5 -82 q0 -38 -8.5 -70 q-8.5 -32 -27 -55.5 q-18.5 -23.5 -47 -36.5 q-28.5 -13 -68.5 -13 q-40 0 -68.5 13 q-28.5 13 -47 36.5 q-18.5 23.5 -27 55.5 q-8.5 32 -8.5 70 l0 36 l44 0 l0 -39 q0 -56 24 -92.5 q24 -36.5 82 -36.5 q58 0 82 36.5 q24 36.5 24 92.5 q0 42 -18.5 72 q-18.5 30 -47 54.5 q-28.5 24.5 -61 46.5 q-32.5 22 -61 48.5 q-28.5 26.5 -47 61 q-18.5 34.5 -18.5 83.5 q0 79 35.5 126 q35.5 47 113.5 48 Z" /><glyph glyph-name="t" unicode="t" d="M158 0 l0 658 l-142 0 l0 42 l331 0 l0 -42 l-143 0 l0 -658 l-46 0 Z" /><glyph glyph-name="tbar" unicode="&#x167;" d="M293 465 l0 -35 l-76 0 l0 -430 l-46 0 l0 430 l-76 0 l0 35 l76 0 l0 193 l-143 0 l0 42 l332 0 l0 -42 l-143 0 l0 -193 l76 0 Z" /><glyph glyph-name="tcaron" unicode="&#x165;" d="M132 831 l62 -63 l61 63 l43 0 l-84 -90 l-41 0 l-83 90 l42 0 ZM171 0 l0 658 l-143 0 l0 42 l332 0 l0 -42 l-143 0 l0 -658 l-46 0 Z" /><glyph glyph-name="u" unicode="u" d="M84 169 q0 -28 5.5 -52.5 q5.5 -24.5 18 -42.5 q12.5 -18 32.5 -28 q20 -10 49 -10 q29 0 49 10 q20 10 32.5 28 q12.5 18 18 42.5 q5.5 24.5 5.5 52.5 l0 531 l43 0 l0 -529 q0 -38 -8 -70 q-8 -32 -26 -56 q-18 -24 -46.5 -37.5 q-28.5 -13.5 -68.5 -13.5 q-40 0 -68.5 13.5 q-28.5 13.5 -46.5 37.5 q-18 24 -26.5 56 q-8.5 32 -8.5 70 l0 529 l46 0 l0 -531 Z" /><glyph glyph-name="uacute" unicode="ú" d="M275 842 l-84 -95 l-35 0 l71 95 l48 0 ZM337 171 q0 -38 -8 -70 q-8 -32 -26 -56 q-18 -24 -46.5 -37.5 q-28.5 -13.5 -68.5 -13.5 q-40 0 -68.5 13.5 q-28.5 13.5 -46.5 37.5 q-18 24 -26.5 56 q-8.5 32 -8.5 70 l0 529 l46 0 l0 -531 q0 -28 5.5 -52.5 q5.5 -24.5 18 -42.5 q12.5 -18 32.5 -28 q20 -10 49 -10 q29 0 49 10 q20 10 32.5 28 q12.5 18 18 42.5 q5.5 24.5 5.5 52.5 l0 531 l43 0 l0 -529 Z" /><glyph glyph-name="ubreve" unicode="&#x16d;" d="M286 828 q-1 -42 -28 -65.5 q-27 -23.5 -69 -23.5 q-42 0 -69 23.5 q-27 23.5 -28 65.5 l30 0 q2 -31 21.5 -44.5 q19.5 -13.5 45.5 -13.5 q26 0 46 13.5 q20 13.5 22 44.5 l29 0 ZM337 171 q0 -38 -8 -70 q-8 -32 -26 -56 q-18 -24 -46.5 -37.5 q-28.5 -13.5 -68.5 -13.5 q-40 0 -68.5 13.5 q-28.5 13.5 -46.5 37.5 q-18 24 -26.5 56 q-8.5 32 -8.5 70 l0 529 l46 0 l0 -531 q0 -28 5.5 -52.5 q5.5 -24.5 18 -42.5 q12.5 -18 32.5 -28 q20 -10 49 -10 q29 0 49 10 q20 10 32.5 28 q12.5 18 18 42.5 q5.5 24.5 5.5 52.5 l0 531 l43 0 l0 -529 Z" /><glyph glyph-name="ucircumflex" unicode="û" d="M128 745 l-43 0 l84 90 l40 0 l85 -90 l-44 0 l-61 64 l-61 -64 ZM337 171 q0 -38 -8 -70 q-8 -32 -26 -56 q-18 -24 -46.5 -37.5 q-28.5 -13.5 -68.5 -13.5 q-40 0 -68.5 13.5 q-28.5 13.5 -46.5 37.5 q-18 24 -26.5 56 q-8.5 32 -8.5 70 l0 529 l46 0 l0 -531 q0 -28 5.5 -52.5 q5.5 -24.5 18 -42.5 q12.5 -18 32.5 -28 q20 -10 49 -10 q29 0 49 10 q20 10 32.5 28 q12.5 18 18 42.5 q5.5 24.5 5.5 52.5 l0 531 l43 0 l0 -529 Z" /><glyph glyph-name="udieresis" unicode="ü" d="M160 828 l0 -85 l-41 0 l0 85 l41 0 ZM257 828 l0 -85 l-41 0 l0 85 l41 0 ZM337 171 q0 -38 -8 -70 q-8 -32 -26 -56 q-18 -24 -46.5 -37.5 q-28.5 -13.5 -68.5 -13.5 q-40 0 -68.5 13.5 q-28.5 13.5 -46.5 37.5 q-18 24 -26.5 56 q-8.5 32 -8.5 70 l0 529 l46 0 l0 -531 q0 -28 5.5 -52.5 q5.5 -24.5 18 -42.5 q12.5 -18 32.5 -28 q20 -10 49 -10 q29 0 49 10 q20 10 32.5 28 q12.5 18 18 42.5 q5.5 24.5 5.5 52.5 l0 531 l43 0 l0 -529 Z" /><glyph glyph-name="ugrave" unicode="ù" d="M155 836 l71 -95 l-37 0 l-84 95 l50 0 ZM337 171 q0 -38 -8 -70 q-8 -32 -26 -56 q-18 -24 -46.5 -37.5 q-28.5 -13.5 -68.5 -13.5 q-40 0 -68.5 13.5 q-28.5 13.5 -46.5 37.5 q-18 24 -26.5 56 q-8.5 32 -8.5 70 l0 529 l46 0 l0 -531 q0 -28 5.5 -52.5 q5.5 -24.5 18 -42.5 q12.5 -18 32.5 -28 q20 -10 49 -10 q29 0 49 10 q20 10 32.5 28 q12.5 18 18 42.5 q5.5 24.5 5.5 52.5 l0 531 l43 0 l0 -529 Z" /><glyph glyph-name="uhungarumlaut" unicode="&#x171;" d="M225 840 l-77 -95 l-33 0 l65 95 l45 0 ZM310 840 l-78 -95 l-32 0 l65 95 l45 0 ZM337 171 q0 -38 -8 -70 q-8 -32 -26 -56 q-18 -24 -46.5 -37.5 q-28.5 -13.5 -68.5 -13.5 q-40 0 -68.5 13.5 q-28.5 13.5 -46.5 37.5 q-18 24 -26.5 56 q-8.5 32 -8.5 70 l0 529 l46 0 l0 -531 q0 -28 5.5 -52.5 q5.5 -24.5 18 -42.5 q12.5 -18 32.5 -28 q20 -10 49 -10 q29 0 49 10 q20 10 32.5 28 q12.5 18 18 42.5 q5.5 24.5 5.5 52.5 l0 531 l43 0 l0 -529 Z" /><glyph glyph-name="umacron" unicode="&#x16b;" d="M282 793 l0 -33 l-182 0 l0 33 l182 0 ZM337 171 q0 -38 -8 -70 q-8 -32 -26 -56 q-18 -24 -46.5 -37.5 q-28.5 -13.5 -68.5 -13.5 q-40 0 -68.5 13.5 q-28.5 13.5 -46.5 37.5 q-18 24 -26.5 56 q-8.5 32 -8.5 70 l0 529 l46 0 l0 -531 q0 -28 5.5 -52.5 q5.5 -24.5 18 -42.5 q12.5 -18 32.5 -28 q20 -10 49 -10 q29 0 49 10 q20 10 32.5 28 q12.5 18 18 42.5 q5.5 24.5 5.5 52.5 l0 531 l43 0 l0 -529 Z" /><glyph glyph-name="uni0123" unicode="&#x123;" d="M188 706 q40 0 68.5 -13.5 q28.5 -13.5 47 -37 q18.5 -23.5 27 -56 q8.5 -32.5 8.5 -70.5 l0 -52 l-44 0 l0 55 q0 28 -5.5 52 q-5.5 24 -18.5 42 q-13 18 -33 28 q-20 10 -49 10 q-29 0 -49 -10 q-20 -10 -33 -28 q-13 -18 -18.5 -42 q-5.5 -24 -5.5 -52 l0 -364 q0 -28 5.5 -52 q5.5 -24 18.5 -41.5 q13 -17.5 33 -27.5 q20 -10 49 -10 q29 0 49 10 q20 10 33 27.5 q13 17.5 18.5 41.5 q5.5 24 5.5 52 l0 151 l-93 0 l0 42 l137 0 l0 -190 q0 -38 -8.5 -70.5 q-8.5 -32.5 -27 -56 q-18.5 -23.5 -47 -37 q-28.5 -13.5 -68.5 -13.5 q-40 0 -68.5 13.5 q-28.5 13.5 -47 37 q-18.5 23.5 -27 56 q-8.5 32.5 -8.5 70.5 l0 358 q0 38 8.5 70.5 q8.5 32.5 27 56 q18.5 23.5 47 37 q28.5 13.5 68.5 13.5 ZM182 -117 l-14 0 l0 83 l40 0 l0 -79 l-27 -63 l-19 0 l20 59 Z" /><glyph glyph-name="uni0137" unicode="&#x137;" d="M134 329 l-48 -76 l0 -253 l-46 0 l0 700 l46 0 l0 -370 l228 370 l48 0 l-200 -326 l213 -374 l-48 0 l-193 329 ZM189 -117 l-14 0 l0 83 l40 0 l0 -79 l-27 -63 l-19 0 l20 59 Z" /><glyph glyph-name="uni013C" unicode="&#x13c;" d="M40 0 l0 700 l46 0 l0 -658 l220 0 l0 -42 l-266 0 ZM179 -117 l-14 0 l0 83 l39 0 l0 -79 l-27 -63 l-18 0 l20 59 Z" /><glyph glyph-name="uni0146" unicode="&#x146;" d="M82 0 l-42 0 l0 700 l60 0 l210 -591 l0 591 l42 0 l0 -700 l-51 0 l-219 624 l0 -624 ZM188 -117 l-13 0 l0 83 l39 0 l0 -79 l-27 -63 l-18 0 l19 59 Z" /><glyph glyph-name="uni0157" unicode="&#x157;" d="M186 700 q80 0 115 -42 q35 -42 35 -116 l0 -61 q0 -122 -101 -145 q54 -12 77.5 -49 q23.5 -37 23.5 -94 l0 -109 q0 -22 3 -44.5 q3 -22.5 14 -39.5 l-48 0 q-9 16 -12 35.5 q-3 19.5 -3 48.5 l0 110 q0 35 -9 58 q-9 23 -26.5 36.5 q-17.5 13.5 -41.5 19 q-24 5.5 -54 5.5 l-73 0 l0 -313 l-46 0 l0 700 l146 0 ZM160 355 q31 0 55 5 q24 5 40.5 18 q16.5 13 25.5 36 q9 23 9 58 l0 66 q0 57 -24 88.5 q-24 31.5 -81 31.5 l-99 0 l0 -303 l74 0 ZM185 -117 l-14 0 l0 83 l40 0 l0 -79 l-27 -63 l-19 0 l20 59 Z" /><glyph glyph-name="uni0163" unicode="&#x163;" d="M208 0 l0 -36 q29 -1 49 -13 q20 -12 20 -43 q0 -18 -8 -31 q-8 -13 -20.5 -21.5 q-12.5 -8.5 -28 -12 q-15.5 -3.5 -30.5 -3.5 q-15 0 -30 4 q-15 4 -26.5 11.5 q-11.5 7.5 -19 19.5 q-7.5 12 -7.5 29 l0 6 l28 0 l0 -6 q0 -21 19 -29 q19 -8 37 -9 q19 0 37.5 9 q18.5 9 18.5 32 q0 24 -19.5 31.5 q-19.5 7.5 -41.5 7.5 l-7 0 l0 54 l-8 0 l0 658 l-143 0 l0 42 l332 0 l0 -42 l-143 0 l0 -658 l-9 0 Z" /><glyph glyph-name="uni0219" unicode="&#x219;" d="M186 706 q40 0 68 -13 q28 -13 46 -36.5 q18 -23.5 26.5 -55.5 q8.5 -32 8.5 -70 l0 -15 l-44 0 l0 18 q0 28 -5.5 51.5 q-5.5 23.5 -18 41 q-12.5 17.5 -32.5 27.5 q-20 10 -48 10 q-57 0 -80.5 -36.5 q-23.5 -36.5 -23.5 -92.5 q0 -43 18.5 -73 q18.5 -30 47 -54.5 q28.5 -24.5 61 -47 q32.5 -22.5 61 -49 q28.5 -26.5 47 -60.5 q18.5 -34 18.5 -82 q0 -38 -8.5 -70 q-8.5 -32 -27 -55.5 q-18.5 -23.5 -47 -36.5 q-28.5 -13 -68.5 -13 q-40 0 -68.5 13 q-28.5 13 -47 36.5 q-18.5 23.5 -27 55.5 q-8.5 32 -8.5 70 l0 36 l44 0 l0 -39 q0 -56 24 -92.5 q24 -36.5 82 -36.5 q58 0 82 36.5 q24 36.5 24 92.5 q0 42 -18.5 72 q-18.5 30 -47 54.5 q-28.5 24.5 -61 46.5 q-32.5 22 -61 48.5 q-28.5 26.5 -47 61 q-18.5 34.5 -18.5 83.5 q0 79 35.5 126 q35.5 47 113.5 48 ZM178 -117 l-14 0 l0 83 l40 0 l0 -79 l-27 -63 l-19 0 l20 59 Z" /><glyph glyph-name="uni021B" unicode="&#x21b;" d="M171 0 l0 658 l-143 0 l0 42 l332 0 l0 -42 l-143 0 l0 -658 l-46 0 ZM188 -117 l-14 0 l0 83 l40 0 l0 -79 l-27 -63 l-19 0 l20 59 Z" /><glyph glyph-name="uni1E03" unicode="&#x1e03;" d="M190 827 l0 -85 l-40 0 l0 85 l40 0 ZM187 700 q79 0 111 -38 q32 -38 32 -111 l0 -40 q0 -57 -19.5 -92 q-19.5 -35 -72.5 -46 q57 -11 81 -50.5 q24 -39.5 24 -99.5 l0 -61 q0 -76 -36 -119 q-36 -43 -117 -43 l-150 0 l0 700 l147 0 ZM164 391 q31 0 53.5 5 q22.5 5 37.5 17.5 q15 12.5 22 34 q7 21.5 7 54.5 l0 45 q0 55 -21 83 q-21 28 -77 28 l-100 0 l0 -267 l78 0 ZM190 42 q58 0 82.5 31 q24.5 31 24.5 90 l0 63 q0 68 -31 95.5 q-31 27.5 -93 27.5 l-87 0 l0 -307 l104 0 Z" /><glyph glyph-name="uni1E0B" unicode="&#x1e0b;" d="M197 827 l0 -85 l-41 0 l0 85 l41 0 ZM194 700 q40 0 69.5 -12.5 q29.5 -12.5 48.5 -35.5 q19 -23 28 -55 q9 -32 9 -71 l0 -352 q0 -39 -9 -71 q-9 -32 -28 -55 q-19 -23 -48.5 -35.5 q-29.5 -12.5 -69.5 -12.5 l-154 0 l0 700 l154 0 ZM193 42 q59 0 84.5 36 q25.5 36 25.5 94 l0 356 q0 58 -26 94 q-26 36 -84 36 l-107 0 l0 -616 l107 0 Z" /><glyph glyph-name="uni1E1F" unicode="&#x1e1f;" d="M199 827 l0 -85 l-41 0 l0 85 l41 0 ZM267 359 l0 -42 l-181 0 l0 -317 l-46 0 l0 700 l266 0 l0 -42 l-220 0 l0 -299 l181 0 Z" /><glyph glyph-name="uni1E41" unicode="&#x1e41;" d="M273 832 l0 -85 l-41 0 l0 85 l41 0 ZM275 1 l-46 0 l-148 619 l0 -620 l-41 0 l0 700 l66 0 l147 -619 l146 619 l66 0 l0 -700 l-44 0 l0 622 l-146 -621 Z" /><glyph glyph-name="uni1E57" unicode="&#x1e57;" d="M196 827 l0 -85 l-41 0 l0 85 l41 0 ZM185 700 q81 0 115.5 -46.5 q34.5 -46.5 34.5 -123.5 l0 -76 q0 -84 -39 -125 q-39 -41 -123 -41 l-87 0 l0 -288 l-46 0 l0 700 l145 0 ZM173 330 q61 0 88.5 28.5 q27.5 28.5 27.5 92.5 l0 82 q0 57 -22.5 91 q-22.5 34 -81.5 34 l-99 0 l0 -328 l87 0 Z" /><glyph glyph-name="uni1E61" unicode="&#x1e61;" d="M211 833 l0 -84 l-41 0 l0 84 l41 0 ZM186 706 q40 0 68 -13 q28 -13 46 -36.5 q18 -23.5 26.5 -55.5 q8.5 -32 8.5 -70 l0 -15 l-44 0 l0 18 q0 28 -5.5 51.5 q-5.5 23.5 -18 41 q-12.5 17.5 -32.5 27.5 q-20 10 -48 10 q-57 0 -80.5 -36.5 q-23.5 -36.5 -23.5 -92.5 q0 -43 18.5 -73 q18.5 -30 47 -54.5 q28.5 -24.5 61 -47 q32.5 -22.5 61 -49 q28.5 -26.5 47 -60.5 q18.5 -34 18.5 -82 q0 -38 -8.5 -70 q-8.5 -32 -27 -55.5 q-18.5 -23.5 -47 -36.5 q-28.5 -13 -68.5 -13 q-40 0 -68.5 13 q-28.5 13 -47 36.5 q-18.5 23.5 -27 55.5 q-8.5 32 -8.5 70 l0 36 l44 0 l0 -39 q0 -56 24 -92.5 q24 -36.5 82 -36.5 q58 0 82 36.5 q24 36.5 24 92.5 q0 42 -18.5 72 q-18.5 30 -47 54.5 q-28.5 24.5 -61 46.5 q-32.5 22 -61 48.5 q-28.5 26.5 -47 61 q-18.5 34.5 -18.5 83.5 q0 79 35.5 126 q35.5 47 113.5 48 Z" /><glyph glyph-name="uni1E6B" unicode="&#x1e6b;" d="M212 827 l0 -85 l-41 0 l0 85 l41 0 ZM168 0 l0 658 l-142 0 l0 42 l331 0 l0 -42 l-143 0 l0 -658 l-46 0 Z" /><glyph glyph-name="uogonek" unicode="&#x173;" d="M337 171 q0 -27 -4 -53 q-4 -26 -14 -48 q-10 -22 -26.5 -39.5 q-16.5 -17.5 -41.5 -27.5 q-20 -15 -33 -39.5 q-13 -24.5 -12 -43.5 q2 -17 13 -24.5 q11 -7.5 27 -7.5 q14 0 24.5 3.5 q10.5 3.5 19.5 9.5 l0 -28 q-26 -13 -56 -13 q-27 1 -45 13 q-18 12 -19 38 q-1 23 13 45.5 q14 22.5 35 39.5 q-7 -1 -14.5 -1.5 q-7.5 -0.5 -15.5 -0.5 q-40 0 -68.5 13.5 q-28.5 13.5 -46.5 37.5 q-18 24 -26.5 56 q-8.5 32 -8.5 70 l0 529 l46 0 l0 -531 q0 -28 5.5 -52.5 q5.5 -24.5 18 -42.5 q12.5 -18 32.5 -28 q20 -10 49 -10 q29 0 49 10 q20 10 32.5 28 q12.5 18 18 42.5 q5.5 24.5 5.5 52.5 l0 531 l43 0 l0 -529 Z" /><glyph glyph-name="uring" unicode="&#x16f;" d="M192 868 q29 0 48.5 -18.5 q19.5 -18.5 19.5 -47.5 q0 -28 -19.5 -47 q-19.5 -19 -48.5 -19 q-28 0 -47.5 19 q-19.5 19 -19.5 47 q0 29 19.5 47.5 q19.5 18.5 47.5 18.5 ZM192 844 q-18 0 -30 -11.5 q-12 -11.5 -12 -30.5 q0 -18 12 -30 q12 -12 30 -12 q18 0 30.5 12 q12.5 12 12.5 30 q0 19 -12.5 30.5 q-12.5 11.5 -30.5 11.5 ZM337 171 q0 -38 -8 -70 q-8 -32 -26 -56 q-18 -24 -46.5 -37.5 q-28.5 -13.5 -68.5 -13.5 q-40 0 -68.5 13.5 q-28.5 13.5 -46.5 37.5 q-18 24 -26.5 56 q-8.5 32 -8.5 70 l0 529 l46 0 l0 -531 q0 -28 5.5 -52.5 q5.5 -24.5 18 -42.5 q12.5 -18 32.5 -28 q20 -10 49 -10 q29 0 49 10 q20 10 32.5 28 q12.5 18 18 42.5 q5.5 24.5 5.5 52.5 l0 531 l43 0 l0 -529 Z" /><glyph glyph-name="utilde" unicode="&#x169;" d="M298 800 q-9 -22 -23.5 -34.5 q-14.5 -12.5 -34.5 -13.5 q-14 0 -25.5 5 q-11.5 5 -22.5 11.5 q-11 6.5 -22 12 q-11 5.5 -23 5.5 q-27 0 -42 -31 l-25 17 q22 47 63 47 q14 0 26 -5 q12 -5 23.5 -11.5 q11.5 -6.5 22 -11.5 q10.5 -5 21.5 -5 q13 1 22 9 q9 8 15 21 l25 -16 ZM337 171 q0 -38 -8 -70 q-8 -32 -26 -56 q-18 -24 -46.5 -37.5 q-28.5 -13.5 -68.5 -13.5 q-40 0 -68.5 13.5 q-28.5 13.5 -46.5 37.5 q-18 24 -26.5 56 q-8.5 32 -8.5 70 l0 529 l46 0 l0 -531 q0 -28 5.5 -52.5 q5.5 -24.5 18 -42.5 q12.5 -18 32.5 -28 q20 -10 49 -10 q29 0 49 10 q20 10 32.5 28 q12.5 18 18 42.5 q5.5 24.5 5.5 52.5 l0 531 l43 0 l0 -529 Z" /><glyph glyph-name="v" unicode="v" d="M77 700 l142 -647 l142 647 l43 0 l-152 -700 l-68 0 l-154 700 l47 0 Z" /><glyph glyph-name="w" unicode="w" d="M208 0 l-64 0 l-113 700 l45 0 l105 -638 l102 635 l49 0 l98 -633 l101 636 l41 0 l-112 -700 l-60 0 l-94 573 l-98 -573 Z" /><glyph glyph-name="wacute" unicode="&#x1e83;" d="M382 836 l-84 -95 l-35 0 l72 95 l47 0 ZM208 0 l-64 0 l-113 700 l45 0 l105 -638 l102 635 l49 0 l98 -633 l101 636 l41 0 l-112 -700 l-60 0 l-94 573 l-98 -573 Z" /><glyph glyph-name="wcircumflex" unicode="&#x175;" d="M243 743 l-43 0 l84 90 l40 0 l84 -90 l-43 0 l-61 64 l-61 -64 ZM208 0 l-64 0 l-113 700 l45 0 l105 -638 l102 635 l49 0 l98 -633 l101 636 l41 0 l-112 -700 l-60 0 l-94 573 l-98 -573 Z" /><glyph glyph-name="wdieresis" unicode="&#x1e85;" d="M277 830 l0 -85 l-41 0 l0 85 l41 0 ZM374 830 l0 -85 l-41 0 l0 85 l41 0 ZM208 0 l-64 0 l-113 700 l45 0 l105 -638 l102 635 l49 0 l98 -633 l101 636 l41 0 l-112 -700 l-60 0 l-94 573 l-98 -573 Z" /><glyph glyph-name="wgrave" unicode="&#x1e81;" d="M279 842 l71 -95 l-36 0 l-85 95 l50 0 ZM208 0 l-64 0 l-113 700 l45 0 l105 -638 l102 635 l49 0 l98 -633 l101 636 l41 0 l-112 -700 l-60 0 l-94 573 l-98 -573 Z" /><glyph glyph-name="x" unicode="x" d="M218 326 l-142 -326 l-45 0 l158 363 l-147 337 l48 0 l132 -301 l133 301 l44 0 l-147 -337 l157 -363 l-49 0 l-142 326 Z" /><glyph glyph-name="y" unicode="y" d="M184 269 l-157 431 l48 0 l134 -368 l134 368 l45 0 l-158 -431 l0 -269 l-46 0 l0 269 Z" /><glyph glyph-name="yacute" unicode="ý" d="M294 835 l-84 -95 l-35 0 l72 95 l47 0 ZM184 269 l-157 431 l48 0 l134 -368 l134 368 l45 0 l-158 -431 l0 -269 l-46 0 l0 269 Z" /><glyph glyph-name="ycircumflex" unicode="&#x177;" d="M148 743 l-43 0 l84 90 l40 0 l84 -90 l-43 0 l-61 63 l-61 -63 ZM184 269 l-157 431 l48 0 l134 -368 l134 368 l45 0 l-158 -431 l0 -269 l-46 0 l0 269 Z" /><glyph glyph-name="ydieresis" unicode="ÿ" d="M180 825 l0 -84 l-41 0 l0 84 l41 0 ZM277 825 l0 -84 l-41 0 l0 84 l41 0 ZM184 269 l-157 431 l48 0 l134 -368 l134 368 l45 0 l-158 -431 l0 -269 l-46 0 l0 269 Z" /><glyph glyph-name="ygrave" unicode="&#x1ef3;" d="M176 842 l72 -95 l-37 0 l-84 95 l49 0 ZM184 269 l-157 431 l48 0 l134 -368 l134 368 l45 0 l-158 -431 l0 -269 l-46 0 l0 269 Z" /><glyph glyph-name="z" unicode="z" d="M349 0 l-315 0 l0 42 l271 616 l-258 0 l0 42 l306 0 l0 -43 l-271 -615 l267 0 l0 -42 Z" /><glyph glyph-name="zacute" unicode="&#x17a;" d="M290 842 l-84 -95 l-35 0 l71 95 l48 0 ZM349 0 l-315 0 l0 42 l271 616 l-258 0 l0 42 l306 0 l0 -43 l-271 -615 l267 0 l0 -42 Z" /><glyph glyph-name="zcaron" unicode="&#x17e;" d="M139 835 l62 -63 l61 63 l43 0 l-84 -90 l-40 0 l-84 90 l42 0 ZM349 0 l-315 0 l0 42 l271 616 l-258 0 l0 42 l306 0 l0 -43 l-271 -615 l267 0 l0 -42 Z" /><glyph glyph-name="zdotaccent" unicode="&#x17c;" d="M228 830 l0 -84 l-41 0 l0 84 l41 0 ZM349 0 l-315 0 l0 42 l271 616 l-258 0 l0 42 l306 0 l0 -43 l-271 -615 l267 0 l0 -42 Z" /><glyph glyph-name="ordfeminine" unicode="ª" d="M146 705 q50 0 69 -31 q19 -31 19 -78 l0 -260 l-27 0 l-2 62 q-10 -30 -31 -48.5 q-21 -18.5 -54 -18.5 q-42 0 -63 25.5 q-21 25.5 -21 70.5 l0 3 q0 36 15 58.5 q15 22.5 39 35 q24 12.5 54 17.5 q30 5 59 5 l0 54 q0 32 -11.5 54 q-11.5 22 -46.5 22 q-35 0 -49.5 -21.5 q-14.5 -21.5 -14.5 -57.5 l0 -12 l-30 0 l0 11 q0 49 22 79 q22 30 73 30 ZM203 521 q-25 0 -49.5 -4.5 q-24.5 -4.5 -43.5 -14.5 q-19 -10 -30.5 -26.5 q-11.5 -16.5 -11.5 -41.5 l0 -5 q0 -32 15 -50.5 q15 -18.5 47 -18.5 q35 0 52 25.5 q17 25.5 21 57.5 l0 78 ZM234 268 l0 -31 l-196 0 l0 31 l196 0 Z" /><glyph glyph-name="ordmasculine" unicode="º" d="M137 705 q52 0 75.5 -32 q23.5 -32 23.5 -81 l0 -151 q0 -49 -23.5 -81 q-23.5 -32 -75.5 -32 q-52 0 -75.5 32 q-23.5 32 -23.5 81 l0 151 q0 49 23.5 81 q23.5 32 75.5 32 ZM137 676 q-37 0 -52.5 -23.5 q-15.5 -23.5 -15.5 -58.5 l0 -155 q0 -35 15.5 -58.5 q15.5 -23.5 52.5 -23.5 q36 0 51.5 23.5 q15.5 23.5 15.5 58.5 l0 155 q0 35 -15.5 58.5 q-15.5 23.5 -51.5 23.5 ZM236 269 l0 -31 l-197 0 l0 31 l197 0 Z" /><glyph glyph-name="uni0410" unicode="&#x410;" d="M107 155 l-35 -155 l-42 0 l153 701 l67 0 l156 -701 l-46 0 l-35 155 l-218 0 ZM114 195 l204 0 l-103 453 l-101 -453 Z" /><glyph glyph-name="uni0411" unicode="&#x411;" d="M186 402 q81 0 122 -36 q41 -36 41 -120 l0 -79 q0 -80 -36.5 -123.5 q-36.5 -43.5 -118.5 -43.5 l-154 0 l0 700 l283 0 l0 -42 l-237 0 l0 -256 l100 0 ZM194 42 q59 0 84 31 q25 31 25 91 l0 85 q0 64 -29.5 87 q-29.5 23 -87.5 23 l-100 0 l0 -317 l108 0 Z" /><glyph glyph-name="uni0412" unicode="&#x412;" d="M187 700 q79 0 111 -38 q32 -38 32 -111 l0 -40 q0 -57 -19.5 -92 q-19.5 -35 -72.5 -46 q57 -11 81 -50.5 q24 -39.5 24 -99.5 l0 -61 q0 -76 -36 -119 q-36 -43 -117 -43 l-150 0 l0 700 l147 0 ZM164 391 q31 0 53.5 5 q22.5 5 37.5 17.5 q15 12.5 22 34 q7 21.5 7 54.5 l0 45 q0 55 -21 83 q-21 28 -77 28 l-100 0 l0 -267 l78 0 ZM190 42 q58 0 82.5 31 q24.5 31 24.5 90 l0 63 q0 68 -31 95.5 q-31 27.5 -93 27.5 l-87 0 l0 -307 l104 0 Z" /><glyph glyph-name="uni0413" unicode="&#x413;" d="M86 658 l0 -658 l-46 0 l0 700 l269 0 l0 -42 l-223 0 Z" /><glyph glyph-name="uni0414" unicode="&#x414;" d="M410 -97 l0 97 l-334 0 l0 -97 l-45 0 l0 139 l48 0 q21 22 27 50 q6 28 8 62 l28 546 l256 0 l0 -658 l58 0 l0 -139 l-46 0 ZM159 154 q-2 -36 -7.5 -63.5 q-5.5 -27.5 -25.5 -48.5 l225 0 l0 616 l-166 0 l-26 -504 Z" /><glyph glyph-name="uni0415" unicode="&#x415;" d="M277 376 l0 -42 l-191 0 l0 -292 l230 0 l0 -42 l-276 0 l0 700 l276 0 l0 -42 l-230 0 l0 -282 l191 0 Z" /><glyph glyph-name="uni0401" unicode="&#x401;" d="M150 830 l0 -85 l-41 0 l0 85 l41 0 ZM247 830 l0 -85 l-41 0 l0 85 l41 0 ZM277 376 l0 -42 l-191 0 l0 -292 l230 0 l0 -42 l-276 0 l0 700 l276 0 l0 -42 l-230 0 l0 -282 l191 0 Z" /><glyph glyph-name="uni0416" unicode="&#x416;" d="M381 350 l-47 -80 l0 -270 l-46 0 l0 271 l-46 79 l-166 -350 l-48 0 l183 393 l-175 307 l47 0 l205 -360 l0 360 l46 0 l0 -360 l205 360 l48 0 l-174 -306 l181 -394 l-47 0 l-166 350 Z" /><glyph glyph-name="uni0417" unicode="&#x417;" d="M189 706 q40 0 68.5 -13.5 q28.5 -13.5 47 -37 q18.5 -23.5 27 -56 q8.5 -32.5 8.5 -70.5 l0 -18 q0 -52 -24.5 -90.5 q-24.5 -38.5 -70.5 -53.5 q48 -14 71.5 -52.5 q23.5 -38.5 23.5 -89.5 l0 -54 q0 -38 -8.5 -70.5 q-8.5 -32.5 -27 -56 q-18.5 -23.5 -47 -37 q-28.5 -13.5 -68.5 -13.5 q-40 0 -68.5 13.5 q-28.5 13.5 -47 37 q-18.5 23.5 -27 56 q-8.5 32.5 -8.5 70.5 l0 58 l44 0 l0 -61 q0 -28 5.5 -52 q5.5 -24 18.5 -42 q13 -18 33 -28 q20 -10 49 -10 q58 0 82 38 q24 38 24 98 l0 54 q0 54 -28.5 86 q-28.5 32 -79.5 32 l-39 0 l0 42 l42 0 q47 0 76 33.5 q29 33.5 29 82.5 l0 26 q0 60 -24 98 q-24 38 -82 38 q-58 0 -82.5 -37.5 q-24.5 -37.5 -24.5 -94.5 l0 -38 l-42 0 l0 36 q0 38 8.5 70 q8.5 32 26.5 55.5 q18 23.5 46.5 37 q28.5 13.5 68.5 13.5 Z" /><glyph glyph-name="uni0418" unicode="&#x418;" d="M205 329 l-115 -329 l-50 0 l0 700 l42 0 l0 -599 l102 286 l113 313 l55 0 l0 -700 l-42 0 l0 619 l-105 -290 Z" /><glyph glyph-name="uni0419" unicode="&#x419;" d="M302 832 q-1 -40 -29 -62.5 q-28 -22.5 -72 -22.5 q-43 0 -71 22 q-28 22 -29 63 l32 0 q1 -29 21 -42 q20 -13 47 -13 q28 0 48 13 q20 13 22 42 l31 0 ZM210 341 l-120 -341 l-50 0 l0 700 l42 0 l0 -599 l91 255 l124 344 l55 0 l0 -700 l-42 0 l0 619 l-100 -278 Z" /><glyph glyph-name="uni041A" unicode="&#x41a;" d="M134 329 l-48 -76 l0 -253 l-46 0 l0 700 l46 0 l0 -370 l228 370 l48 0 l-200 -326 l213 -374 l-48 0 l-193 329 Z" /><glyph glyph-name="uni041B" unicode="&#x41b;" d="M179 658 l-18 -487 q-2 -36 -6.5 -67 q-4.5 -31 -17.5 -54 q-13 -23 -36.5 -36.5 q-23.5 -13.5 -62.5 -14.5 l-9 0 l0 42 q30 0 46.5 10.5 q16.5 10.5 25 28 q8.5 17.5 11 41 q2.5 23.5 3.5 49.5 l21 530 l261 0 l0 -700 l-47 0 l0 658 l-171 0 Z" /><glyph glyph-name="uni041C" unicode="&#x41c;" d="M275 1 l-46 0 l-148 619 l0 -620 l-41 0 l0 700 l66 0 l147 -619 l146 619 l66 0 l0 -700 l-44 0 l0 622 l-146 -621 Z" /><glyph glyph-name="uni041D" unicode="&#x41d;" d="M86 329 l0 -329 l-46 0 l0 700 l46 0 l0 -329 l218 0 l0 329 l47 0 l0 -700 l-47 0 l0 329 l-218 0 Z" /><glyph glyph-name="uni041E" unicode="&#x41e;" d="M37 529 q0 38 9 70.5 q9 32.5 27.5 56 q18.5 23.5 47.5 37 q29 13.5 69 13.5 q40 0 69.5 -13.5 q29.5 -13.5 48.5 -37 q19 -23.5 28 -56 q9 -32.5 9 -70.5 l0 -358 q0 -38 -9 -70.5 q-9 -32.5 -28 -56 q-19 -23.5 -48.5 -37 q-29.5 -13.5 -69.5 -13.5 q-40 0 -69 13.5 q-29 13.5 -47.5 37 q-18.5 23.5 -27.5 56 q-9 32.5 -9 70.5 l0 358 ZM83 168 q0 -57 24.5 -94.5 q24.5 -37.5 82.5 -37.5 q58 0 83.5 37.5 q25.5 37.5 25.5 94.5 l0 364 q0 57 -25.5 94.5 q-25.5 37.5 -83.5 37.5 q-58 0 -82.5 -37.5 q-24.5 -37.5 -24.5 -94.5 l0 -364 Z" /><glyph glyph-name="uni041F" unicode="&#x41f;" d="M86 658 l0 -658 l-46 0 l0 700 l311 0 l0 -700 l-47 0 l0 658 l-218 0 Z" /><glyph glyph-name="uni0420" unicode="&#x420;" d="M185 700 q81 0 115.5 -46.5 q34.5 -46.5 34.5 -123.5 l0 -76 q0 -84 -39 -125 q-39 -41 -123 -41 l-87 0 l0 -288 l-46 0 l0 700 l145 0 ZM173 330 q61 0 88.5 28.5 q27.5 28.5 27.5 92.5 l0 82 q0 57 -22.5 91 q-22.5 34 -81.5 34 l-99 0 l0 -328 l87 0 Z" /><glyph glyph-name="uni0421" unicode="&#x421;" d="M188 706 q40 0 68.5 -13.5 q28.5 -13.5 47 -37 q18.5 -23.5 27 -56 q8.5 -32.5 8.5 -70.5 l0 -58 l-44 0 l0 61 q0 28 -5.5 52 q-5.5 24 -18.5 42 q-13 18 -33 28 q-20 10 -49 10 q-29 0 -49 -10 q-20 -10 -33 -28 q-13 -18 -18.5 -42 q-5.5 -24 -5.5 -52 l0 -364 q0 -28 5.5 -52 q5.5 -24 18.5 -41.5 q13 -17.5 33 -27.5 q20 -10 49 -10 q29 0 49 10 q20 10 33 27.5 q13 17.5 18.5 41.5 q5.5 24 5.5 52 l0 83 l44 0 l0 -80 q0 -38 -8.5 -70.5 q-8.5 -32.5 -27 -56 q-18.5 -23.5 -47 -37 q-28.5 -13.5 -68.5 -13.5 q-40 0 -68.5 13.5 q-28.5 13.5 -47 37 q-18.5 23.5 -27 56 q-8.5 32.5 -8.5 70.5 l0 358 q0 38 8.5 70.5 q8.5 32.5 27 56 q18.5 23.5 47 37 q28.5 13.5 68.5 13.5 Z" /><glyph glyph-name="uni0422" unicode="&#x422;" d="M171 0 l0 658 l-143 0 l0 42 l332 0 l0 -42 l-143 0 l0 -658 l-46 0 Z" /><glyph glyph-name="uni0423" unicode="&#x423;" d="M217 130 q-9 -32 -19.5 -56.5 q-10.5 -24.5 -28 -41.5 q-17.5 -17 -43 -25.5 q-25.5 -8.5 -63.5 -6.5 l0 41 q48 -1 69.5 19.5 q21.5 20.5 34.5 62.5 l29 85 l-168 492 l47 0 l82 -247 l61 -187 l56 188 l76 246 l48 0 l-181 -570 Z" /><glyph glyph-name="uni0424" unicode="&#x424;" d="M357 619 q86 0 123.5 -46 q37.5 -46 37.5 -130 l0 -191 q0 -84 -37.5 -130 q-37.5 -46 -123.5 -46 l-57 0 l0 -76 l-45 0 l0 76 l-57 0 q-86 0 -123.5 46.5 q-37.5 46.5 -37.5 129.5 l0 191 q0 83 37.5 129.5 q37.5 46.5 123.5 46.5 l57 0 l0 81 l45 0 l0 -81 l57 0 ZM198 578 q-63 0 -89.5 -34.5 q-26.5 -34.5 -26.5 -97.5 l0 -197 q0 -63 26.5 -97.5 q26.5 -34.5 89.5 -34.5 l57 0 l0 461 l-57 0 ZM357 117 q63 0 89.5 34.5 q26.5 34.5 26.5 97.5 l0 197 q0 63 -26.5 97.5 q-26.5 34.5 -89.5 34.5 l-57 0 l0 -461 l57 0 Z" /><glyph glyph-name="uni0425" unicode="&#x425;" d="M218 326 l-142 -326 l-45 0 l158 363 l-147 337 l48 0 l132 -301 l133 301 l44 0 l-147 -337 l157 -363 l-49 0 l-142 326 Z" /><glyph glyph-name="uni0427" unicode="&#x427;" d="M301 336 q-40 -69 -123 -69 q-37 0 -63.5 13.5 q-26.5 13.5 -44 36.5 q-17.5 23 -25.5 54.5 q-8 31.5 -8 66.5 l0 262 l46 0 l0 -259 q0 -27 6.5 -51 q6.5 -24 19.5 -42 q13 -18 33.5 -28.5 q20.5 -10.5 48.5 -10.5 q87 0 110 91 l0 300 l46 0 l0 -700 l-46 0 l0 336 Z" /><glyph glyph-name="uni0426" unicode="&#x426;" d="M376 -94 l0 94 l-323 0 l0 700 l45 0 l0 -658 l218 0 l0 658 l47 0 l0 -658 l58 0 l0 -136 l-45 0 Z" /><glyph glyph-name="uni0428" unicode="&#x428;" d="M86 700 l0 -658 l173 0 l0 658 l46 0 l0 -658 l173 0 l0 658 l46 0 l0 -700 l-484 0 l0 700 l46 0 Z" /><glyph glyph-name="uni0429" unicode="&#x429;" d="M537 -94 l0 94 l-497 0 l0 700 l46 0 l0 -658 l172 0 l0 658 l46 0 l0 -658 l174 0 l-1 658 l46 0 l0 -658 l59 0 l0 -136 l-45 0 Z" /><glyph glyph-name="uni042F" unicode="&#x42f;" d="M227 313 q-30 0 -54 -5.5 q-24 -5.5 -41.5 -19 q-17.5 -13.5 -26.5 -36.5 q-9 -23 -9 -58 l0 -110 q0 -29 -3 -48.5 q-3 -19.5 -12 -35.5 l-48 0 q11 17 14 39.5 q3 22.5 3 44.5 l0 109 q0 57 23.5 94 q23.5 37 77.5 49 q-101 23 -101 145 l0 61 q0 74 35 116 q35 42 115 42 l146 0 l0 -700 l-46 0 l0 313 l-73 0 ZM201 658 q-57 0 -81 -31.5 q-24 -31.5 -24 -88.5 l0 -66 q0 -35 9 -58 q9 -23 25.5 -36 q16.5 -13 40.5 -18 q24 -5 55 -5 l74 0 l0 303 l-99 0 Z" /><glyph glyph-name="uni042C" unicode="&#x42c;" d="M172 412 q85 0 124 -41 q39 -41 39 -125 l0 -76 q0 -38 -8.5 -69.5 q-8.5 -31.5 -26.5 -54 q-18 -22.5 -46.5 -34.5 q-28.5 -12 -69.5 -12 l-144 0 l0 700 l46 0 l0 -288 l86 0 ZM184 42 q59 0 82 34 q23 34 23 91 l0 82 q0 64 -28 92.5 q-28 28.5 -89 28.5 l-86 0 l0 -328 l98 0 Z" /><glyph glyph-name="uni042A" unicode="&#x42a;" d="M238 412 q84 0 123 -41 q39 -41 39 -125 l0 -76 q0 -77 -34.5 -123.5 q-34.5 -46.5 -115.5 -46.5 l-145 0 l0 658 l-95 0 l0 42 l141 0 l0 -288 l87 0 ZM250 42 q59 0 81.5 34 q22.5 34 22.5 91 l0 82 q0 64 -28 92.5 q-28 28.5 -88 28.5 l-87 0 l0 -328 l99 0 Z" /><glyph glyph-name="uni042B" unicode="&#x42b;" d="M172 412 q85 0 124 -41 q39 -41 39 -125 l0 -76 q0 -38 -8.5 -69.5 q-8.5 -31.5 -26.5 -54 q-18 -22.5 -46.5 -34.5 q-28.5 -12 -69.5 -12 l-144 0 l0 700 l46 0 l0 -288 l86 0 ZM447 700 l0 -700 l-46 0 l0 700 l46 0 ZM184 42 q59 0 82 34 q23 34 23 91 l0 82 q0 64 -28 92.5 q-28 28.5 -89 28.5 l-86 0 l0 -328 l98 0 Z" /><glyph glyph-name="uni042D" unicode="&#x42d;" d="M186 706 q40 0 68.5 -13.5 q28.5 -13.5 47 -37 q18.5 -23.5 27 -56 q8.5 -32.5 8.5 -70.5 l0 -358 q0 -38 -8.5 -70.5 q-8.5 -32.5 -27 -56 q-18.5 -23.5 -47 -37 q-28.5 -13.5 -68.5 -13.5 q-40 0 -68.5 13.5 q-28.5 13.5 -47 37 q-18.5 23.5 -27 56 q-8.5 32.5 -8.5 70.5 l0 68 l44 0 l0 -71 q0 -28 5.5 -52 q5.5 -24 18.5 -41.5 q13 -17.5 32.5 -27.5 q19.5 -10 48.5 -10 q29 0 49.5 10 q20.5 10 33 27.5 q12.5 17.5 18.5 41.5 q6 24 6 52 l0 173 l-143 0 l0 42 l143 0 l0 149 q0 28 -6 52 q-6 24 -18.5 42 q-12.5 18 -33 28 q-20.5 10 -49.5 10 q-29 0 -48.5 -10 q-19.5 -10 -32.5 -28 q-13 -18 -18.5 -42 q-5.5 -24 -5.5 -52 l0 -47 l-43 0 l0 44 q0 38 8.5 70.5 q8.5 32.5 26.5 56 q18 23.5 46.5 37 q28.5 13.5 68.5 13.5 Z" /><glyph glyph-name="uni042E" unicode="&#x42e;" d="M361 706 q40 0 69 -13.5 q29 -13.5 48 -37 q19 -23.5 28 -56 q9 -32.5 9 -70.5 l0 -358 q0 -38 -9 -70.5 q-9 -32.5 -28 -56 q-19 -23.5 -48 -37 q-29 -13.5 -69 -13.5 q-41 0 -70 13.5 q-29 13.5 -47.5 37 q-18.5 23.5 -27.5 56 q-9 32.5 -9 70.5 l0 158 l-121 0 l0 -329 l-46 0 l0 700 l46 0 l0 -329 l121 0 l0 158 q0 38 9 70.5 q9 32.5 27.5 56 q18.5 23.5 47.5 37 q29 13.5 70 13.5 ZM361 664 q-29 0 -49.5 -10 q-20.5 -10 -33.5 -27.5 q-13 -17.5 -19 -42 q-6 -24.5 -6 -52.5 l0 -364 q0 -29 6 -53 q6 -24 19 -41.5 q13 -17.5 33.5 -27.5 q20.5 -10 49.5 -10 q58 0 83 37.5 q25 37.5 25 94.5 l0 364 q0 57 -25 94.5 q-25 37.5 -83 37.5 Z" /><glyph glyph-name="uni0430" unicode="&#x430;" d="M107 155 l-35 -155 l-42 0 l153 701 l67 0 l156 -701 l-46 0 l-35 155 l-218 0 ZM114 195 l204 0 l-103 453 l-101 -453 Z" /><glyph glyph-name="uni0431" unicode="&#x431;" d="M186 402 q81 0 122 -36 q41 -36 41 -120 l0 -79 q0 -80 -36.5 -123.5 q-36.5 -43.5 -118.5 -43.5 l-154 0 l0 700 l283 0 l0 -42 l-237 0 l0 -256 l100 0 ZM194 42 q59 0 84 31 q25 31 25 91 l0 85 q0 64 -29.5 87 q-29.5 23 -87.5 23 l-100 0 l0 -317 l108 0 Z" /><glyph glyph-name="uni0432" unicode="&#x432;" d="M187 700 q79 0 111 -38 q32 -38 32 -111 l0 -40 q0 -57 -19.5 -92 q-19.5 -35 -72.5 -46 q57 -11 81 -50.5 q24 -39.5 24 -99.5 l0 -61 q0 -76 -36 -119 q-36 -43 -117 -43 l-150 0 l0 700 l147 0 ZM164 391 q31 0 53.5 5 q22.5 5 37.5 17.5 q15 12.5 22 34 q7 21.5 7 54.5 l0 45 q0 55 -21 83 q-21 28 -77 28 l-100 0 l0 -267 l78 0 ZM190 42 q58 0 82.5 31 q24.5 31 24.5 90 l0 63 q0 68 -31 95.5 q-31 27.5 -93 27.5 l-87 0 l0 -307 l104 0 Z" /><glyph glyph-name="uni0433" unicode="&#x433;" d="M86 658 l0 -658 l-46 0 l0 700 l269 0 l0 -42 l-223 0 Z" /><glyph glyph-name="uni0434" unicode="&#x434;" d="M410 -97 l0 97 l-334 0 l0 -97 l-45 0 l0 139 l48 0 q21 22 27 50 q6 28 8 62 l28 546 l256 0 l0 -658 l58 0 l0 -139 l-46 0 ZM159 154 q-2 -36 -7.5 -63.5 q-5.5 -27.5 -25.5 -48.5 l225 0 l0 616 l-166 0 l-26 -504 Z" /><glyph glyph-name="uni0435" unicode="&#x435;" d="M277 376 l0 -42 l-191 0 l0 -292 l230 0 l0 -42 l-276 0 l0 700 l276 0 l0 -42 l-230 0 l0 -282 l191 0 Z" /><glyph glyph-name="uni0451" unicode="&#x451;" d="M150 830 l0 -85 l-41 0 l0 85 l41 0 ZM247 830 l0 -85 l-41 0 l0 85 l41 0 ZM277 376 l0 -42 l-191 0 l0 -292 l230 0 l0 -42 l-276 0 l0 700 l276 0 l0 -42 l-230 0 l0 -282 l191 0 Z" /><glyph glyph-name="uni0436" unicode="&#x436;" d="M381 350 l-47 -80 l0 -270 l-46 0 l0 271 l-46 79 l-166 -350 l-48 0 l183 393 l-175 307 l47 0 l205 -360 l0 360 l46 0 l0 -360 l205 360 l48 0 l-174 -306 l181 -394 l-47 0 l-166 350 Z" /><glyph glyph-name="uni0437" unicode="&#x437;" d="M189 706 q40 0 68.5 -13.5 q28.5 -13.5 47 -37 q18.5 -23.5 27 -56 q8.5 -32.5 8.5 -70.5 l0 -18 q0 -52 -24.5 -90.5 q-24.5 -38.5 -70.5 -53.5 q48 -14 71.5 -52.5 q23.5 -38.5 23.5 -89.5 l0 -54 q0 -38 -8.5 -70.5 q-8.5 -32.5 -27 -56 q-18.5 -23.5 -47 -37 q-28.5 -13.5 -68.5 -13.5 q-40 0 -68.5 13.5 q-28.5 13.5 -47 37 q-18.5 23.5 -27 56 q-8.5 32.5 -8.5 70.5 l0 58 l44 0 l0 -61 q0 -28 5.5 -52 q5.5 -24 18.5 -42 q13 -18 33 -28 q20 -10 49 -10 q58 0 82 38 q24 38 24 98 l0 54 q0 54 -28.5 86 q-28.5 32 -79.5 32 l-39 0 l0 42 l42 0 q47 0 76 33.5 q29 33.5 29 82.5 l0 26 q0 60 -24 98 q-24 38 -82 38 q-58 0 -82.5 -37.5 q-24.5 -37.5 -24.5 -94.5 l0 -38 l-42 0 l0 36 q0 38 8.5 70 q8.5 32 26.5 55.5 q18 23.5 46.5 37 q28.5 13.5 68.5 13.5 Z" /><glyph glyph-name="uni0438" unicode="&#x438;" d="M204 325 l-114 -325 l-50 0 l0 700 l42 0 l0 -599 l81 231 l134 368 l55 0 l0 -700 l-42 0 l0 619 l-106 -294 Z" /><glyph glyph-name="uni0439" unicode="&#x439;" d="M302 830 q-1 -41 -29 -63 q-28 -22 -72 -22 q-43 0 -71 22 q-28 22 -29 63 l32 0 q1 -30 21 -43 q20 -13 47 -13 q28 0 48 13 q20 13 22 43 l31 0 ZM90 0 l-50 0 l0 700 l42 0 l0 -599 l88 249 l127 350 l55 0 l0 -700 l-42 0 l0 619 l-220 -619 Z" /><glyph glyph-name="uni043A" unicode="&#x43a;" d="M134 329 l-48 -76 l0 -253 l-46 0 l0 700 l46 0 l0 -370 l228 370 l48 0 l-200 -326 l213 -374 l-48 0 l-193 329 Z" /><glyph glyph-name="uni043B" unicode="&#x43b;" d="M179 658 l-18 -487 q-2 -36 -6.5 -67 q-4.5 -31 -17.5 -54 q-13 -23 -36.5 -36.5 q-23.5 -13.5 -62.5 -14.5 l-9 0 l0 42 q30 0 46.5 10.5 q16.5 10.5 25 28 q8.5 17.5 11 41 q2.5 23.5 3.5 49.5 l21 530 l261 0 l0 -700 l-47 0 l0 658 l-171 0 Z" /><glyph glyph-name="uni043C" unicode="&#x43c;" d="M275 1 l-46 0 l-148 619 l0 -620 l-41 0 l0 700 l66 0 l147 -619 l146 619 l66 0 l0 -700 l-44 0 l0 622 l-146 -621 Z" /><glyph glyph-name="uni043D" unicode="&#x43d;" d="M86 329 l0 -329 l-46 0 l0 700 l46 0 l0 -329 l218 0 l0 329 l47 0 l0 -700 l-47 0 l0 329 l-218 0 Z" /><glyph glyph-name="uni043E" unicode="&#x43e;" d="M37 529 q0 38 9 70.5 q9 32.5 27.5 56 q18.5 23.5 47.5 37 q29 13.5 69 13.5 q40 0 69.5 -13.5 q29.5 -13.5 48.5 -37 q19 -23.5 28 -56 q9 -32.5 9 -70.5 l0 -358 q0 -38 -9 -70.5 q-9 -32.5 -28 -56 q-19 -23.5 -48.5 -37 q-29.5 -13.5 -69.5 -13.5 q-40 0 -69 13.5 q-29 13.5 -47.5 37 q-18.5 23.5 -27.5 56 q-9 32.5 -9 70.5 l0 358 ZM83 168 q0 -57 24.5 -94.5 q24.5 -37.5 82.5 -37.5 q58 0 83.5 37.5 q25.5 37.5 25.5 94.5 l0 364 q0 57 -25.5 94.5 q-25.5 37.5 -83.5 37.5 q-58 0 -82.5 -37.5 q-24.5 -37.5 -24.5 -94.5 l0 -364 Z" /><glyph glyph-name="uni043F" unicode="&#x43f;" d="M86 658 l0 -658 l-46 0 l0 700 l311 0 l0 -700 l-47 0 l0 658 l-218 0 Z" /><glyph glyph-name="uni0440" unicode="&#x440;" d="M185 700 q81 0 115.5 -46.5 q34.5 -46.5 34.5 -123.5 l0 -76 q0 -84 -39 -125 q-39 -41 -123 -41 l-87 0 l0 -288 l-46 0 l0 700 l145 0 ZM173 330 q61 0 88.5 28.5 q27.5 28.5 27.5 92.5 l0 82 q0 57 -22.5 91 q-22.5 34 -81.5 34 l-99 0 l0 -328 l87 0 Z" /><glyph glyph-name="uni0441" unicode="&#x441;" d="M188 706 q40 0 68.5 -13.5 q28.5 -13.5 47 -37 q18.5 -23.5 27 -56 q8.5 -32.5 8.5 -70.5 l0 -58 l-44 0 l0 61 q0 28 -5.5 52 q-5.5 24 -18.5 42 q-13 18 -33 28 q-20 10 -49 10 q-29 0 -49 -10 q-20 -10 -33 -28 q-13 -18 -18.5 -42 q-5.5 -24 -5.5 -52 l0 -364 q0 -28 5.5 -52 q5.5 -24 18.5 -41.5 q13 -17.5 33 -27.5 q20 -10 49 -10 q29 0 49 10 q20 10 33 27.5 q13 17.5 18.5 41.5 q5.5 24 5.5 52 l0 83 l44 0 l0 -80 q0 -38 -8.5 -70.5 q-8.5 -32.5 -27 -56 q-18.5 -23.5 -47 -37 q-28.5 -13.5 -68.5 -13.5 q-40 0 -68.5 13.5 q-28.5 13.5 -47 37 q-18.5 23.5 -27 56 q-8.5 32.5 -8.5 70.5 l0 358 q0 38 8.5 70.5 q8.5 32.5 27 56 q18.5 23.5 47 37 q28.5 13.5 68.5 13.5 Z" /><glyph glyph-name="uni0442" unicode="&#x442;" d="M171 0 l0 658 l-143 0 l0 42 l332 0 l0 -42 l-143 0 l0 -658 l-46 0 Z" /><glyph glyph-name="uni0443" unicode="&#x443;" d="M217 130 q-9 -32 -19.5 -56.5 q-10.5 -24.5 -28 -41.5 q-17.5 -17 -43 -25.5 q-25.5 -8.5 -63.5 -6.5 l0 41 q48 -1 69.5 19.5 q21.5 20.5 34.5 62.5 l29 85 l-168 492 l47 0 l82 -247 l61 -187 l56 188 l76 246 l48 0 l-181 -570 Z" /><glyph glyph-name="uni0444" unicode="&#x444;" d="M357 619 q86 0 123.5 -46 q37.5 -46 37.5 -130 l0 -191 q0 -84 -37.5 -130 q-37.5 -46 -123.5 -46 l-57 0 l0 -76 l-45 0 l0 76 l-57 0 q-86 0 -123.5 46.5 q-37.5 46.5 -37.5 129.5 l0 191 q0 83 37.5 129.5 q37.5 46.5 123.5 46.5 l57 0 l0 81 l45 0 l0 -81 l57 0 ZM198 578 q-63 0 -89.5 -34.5 q-26.5 -34.5 -26.5 -97.5 l0 -197 q0 -63 26.5 -97.5 q26.5 -34.5 89.5 -34.5 l57 0 l0 461 l-57 0 ZM357 117 q63 0 89.5 34.5 q26.5 34.5 26.5 97.5 l0 197 q0 63 -26.5 97.5 q-26.5 34.5 -89.5 34.5 l-57 0 l0 -461 l57 0 Z" /><glyph glyph-name="uni0445" unicode="&#x445;" d="M218 326 l-142 -326 l-45 0 l158 363 l-147 337 l48 0 l132 -301 l133 301 l44 0 l-147 -337 l157 -363 l-49 0 l-142 326 Z" /><glyph glyph-name="uni0447" unicode="&#x447;" d="M301 336 q-40 -69 -123 -69 q-37 0 -63.5 13.5 q-26.5 13.5 -44 36.5 q-17.5 23 -25.5 54.5 q-8 31.5 -8 66.5 l0 262 l46 0 l0 -259 q0 -27 6.5 -51 q6.5 -24 19.5 -42 q13 -18 33.5 -28.5 q20.5 -10.5 48.5 -10.5 q87 0 110 91 l0 300 l46 0 l0 -700 l-46 0 l0 336 Z" /><glyph glyph-name="uni0446" unicode="&#x446;" d="M376 -94 l0 94 l-323 0 l0 700 l45 0 l0 -658 l218 0 l0 658 l47 0 l0 -658 l58 0 l0 -136 l-45 0 Z" /><glyph glyph-name="uni0448" unicode="&#x448;" d="M86 700 l0 -658 l173 0 l0 658 l46 0 l0 -658 l173 0 l0 658 l46 0 l0 -700 l-484 0 l0 700 l46 0 Z" /><glyph glyph-name="uni0449" unicode="&#x449;" d="M537 -94 l0 94 l-497 0 l0 700 l46 0 l0 -658 l172 0 l0 658 l46 0 l0 -658 l174 0 l-1 658 l46 0 l0 -658 l59 0 l0 -136 l-45 0 Z" /><glyph glyph-name="uni044C" unicode="&#x44c;" d="M172 412 q85 0 124 -41 q39 -41 39 -125 l0 -76 q0 -38 -8.5 -69.5 q-8.5 -31.5 -26.5 -54 q-18 -22.5 -46.5 -34.5 q-28.5 -12 -69.5 -12 l-144 0 l0 700 l46 0 l0 -288 l86 0 ZM184 42 q59 0 82 34 q23 34 23 91 l0 82 q0 64 -28 92.5 q-28 28.5 -89 28.5 l-86 0 l0 -328 l98 0 Z" /><glyph glyph-name="uni044A" unicode="&#x44a;" d="M238 412 q84 0 123 -41 q39 -41 39 -125 l0 -76 q0 -77 -34.5 -123.5 q-34.5 -46.5 -115.5 -46.5 l-145 0 l0 658 l-95 0 l0 42 l141 0 l0 -288 l87 0 ZM250 42 q59 0 81.5 34 q22.5 34 22.5 91 l0 82 q0 64 -28 92.5 q-28 28.5 -88 28.5 l-87 0 l0 -328 l99 0 Z" /><glyph glyph-name="uni044B" unicode="&#x44b;" d="M172 412 q85 0 124 -41 q39 -41 39 -125 l0 -76 q0 -38 -8.5 -69.5 q-8.5 -31.5 -26.5 -54 q-18 -22.5 -46.5 -34.5 q-28.5 -12 -69.5 -12 l-144 0 l0 700 l46 0 l0 -288 l86 0 ZM447 700 l0 -700 l-46 0 l0 700 l46 0 ZM184 42 q59 0 82 34 q23 34 23 91 l0 82 q0 64 -28 92.5 q-28 28.5 -89 28.5 l-86 0 l0 -328 l98 0 Z" /><glyph glyph-name="uni044D" unicode="&#x44d;" d="M186 706 q40 0 68.5 -13.5 q28.5 -13.5 47 -37 q18.5 -23.5 27 -56 q8.5 -32.5 8.5 -70.5 l0 -358 q0 -38 -8.5 -70.5 q-8.5 -32.5 -27 -56 q-18.5 -23.5 -47 -37 q-28.5 -13.5 -68.5 -13.5 q-40 0 -68.5 13.5 q-28.5 13.5 -47 37 q-18.5 23.5 -27 56 q-8.5 32.5 -8.5 70.5 l0 68 l44 0 l0 -71 q0 -28 5.5 -52 q5.5 -24 18.5 -41.5 q13 -17.5 32.5 -27.5 q19.5 -10 48.5 -10 q29 0 49.5 10 q20.5 10 33 27.5 q12.5 17.5 18.5 41.5 q6 24 6 52 l0 173 l-143 0 l0 42 l143 0 l0 149 q0 28 -6 52 q-6 24 -18.5 42 q-12.5 18 -33 28 q-20.5 10 -49.5 10 q-29 0 -48.5 -10 q-19.5 -10 -32.5 -28 q-13 -18 -18.5 -42 q-5.5 -24 -5.5 -52 l0 -47 l-43 0 l0 44 q0 38 8.5 70.5 q8.5 32.5 26.5 56 q18 23.5 46.5 37 q28.5 13.5 68.5 13.5 Z" /><glyph glyph-name="uni044E" unicode="&#x44e;" d="M361 706 q40 0 69 -13.5 q29 -13.5 48 -37 q19 -23.5 28 -56 q9 -32.5 9 -70.5 l0 -358 q0 -38 -9 -70.5 q-9 -32.5 -28 -56 q-19 -23.5 -48 -37 q-29 -13.5 -69 -13.5 q-41 0 -70 13.5 q-29 13.5 -47.5 37 q-18.5 23.5 -27.5 56 q-9 32.5 -9 70.5 l0 158 l-121 0 l0 -329 l-46 0 l0 700 l46 0 l0 -329 l121 0 l0 158 q0 38 9 70.5 q9 32.5 27.5 56 q18.5 23.5 47.5 37 q29 13.5 70 13.5 ZM361 664 q-29 0 -49.5 -10 q-20.5 -10 -33.5 -27.5 q-13 -17.5 -19 -42 q-6 -24.5 -6 -52.5 l0 -364 q0 -29 6 -53 q6 -24 19 -41.5 q13 -17.5 33.5 -27.5 q20.5 -10 49.5 -10 q58 0 83 37.5 q25 37.5 25 94.5 l0 364 q0 57 -25 94.5 q-25 37.5 -83 37.5 Z" /><glyph glyph-name="uni044F" unicode="&#x44f;" d="M227 313 q-30 0 -54 -5.5 q-24 -5.5 -41.5 -19 q-17.5 -13.5 -26.5 -36.5 q-9 -23 -9 -58 l0 -110 q0 -29 -3 -48.5 q-3 -19.5 -12 -35.5 l-48 0 q11 17 14 39.5 q3 22.5 3 44.5 l0 109 q0 57 23.5 94 q23.5 37 77.5 49 q-101 23 -101 145 l0 61 q0 74 35 116 q35 42 115 42 l146 0 l0 -700 l-46 0 l0 313 l-73 0 ZM201 658 q-57 0 -81 -31.5 q-24 -31.5 -24 -88.5 l0 -66 q0 -35 9 -58 q9 -23 25.5 -36 q16.5 -13 40.5 -18 q24 -5 55 -5 l74 0 l0 303 l-99 0 Z" /><glyph glyph-name="zero" unicode="0" d="M37 529 q0 39 9 71.5 q9 32.5 28 56 q19 23.5 48 36.5 q29 13 69 13 q40 0 69 -13 q29 -13 48 -36.5 q19 -23.5 28 -56 q9 -32.5 9 -71.5 l0 -358 q0 -38 -9 -70.5 q-9 -32.5 -28 -56 q-19 -23.5 -48 -37 q-29 -13.5 -69 -13.5 q-40 0 -69 13.5 q-29 13.5 -48 37 q-19 23.5 -28 56 q-9 32.5 -9 70.5 l0 358 ZM83 169 q0 -58 25 -95.5 q25 -37.5 83 -37.5 q58 0 83 37.5 q25 37.5 25 95.5 l0 363 q0 57 -25 94.5 q-25 37.5 -83 37.5 q-58 0 -83 -37.5 q-25 -37.5 -25 -94.5 l0 -363 Z" /><glyph glyph-name="one" unicode="1" d="M173 622 q-19 -25 -46.5 -40.5 q-27.5 -15.5 -62.5 -18.5 l0 40 q52 4 78.5 31.5 q26.5 27.5 40.5 66.5 l36 0 l0 -701 l-46 0 l0 622 Z" /><glyph glyph-name="two" unicode="2" d="M191 706 q41 0 69.5 -13.5 q28.5 -13.5 46.5 -37.5 q18 -24 26.5 -56.5 q8.5 -32.5 8.5 -70.5 q0 -50 -19 -91 q-19 -41 -47 -77 q-28 -36 -61 -69.5 q-33 -33.5 -61.5 -70 q-28.5 -36.5 -47.5 -78 q-19 -41.5 -20 -92.5 l0 -8 l250 0 l0 -42 l-296 0 l0 34 q0 62 19 109 q19 47 47.5 85.5 q28.5 38.5 61.5 72 q33 33.5 61.5 67.5 q28.5 34 47.5 72 q19 38 19 86 q0 61 -23.5 99.5 q-23.5 38.5 -83.5 38.5 q-29 0 -49 -10.5 q-20 -10.5 -32.5 -29 q-12.5 -18.5 -18 -43 q-5.5 -24.5 -5.5 -52.5 l0 -48 l-44 0 l0 45 q0 38 8.5 71 q8.5 33 26.5 57 q18 24 46.5 38 q28.5 14 69.5 14 Z" /><glyph glyph-name="three" unicode="3" d="M189 706 q40 0 68.5 -13.5 q28.5 -13.5 47 -37 q18.5 -23.5 27 -56 q8.5 -32.5 8.5 -70.5 l0 -17 q0 -52 -24 -90.5 q-24 -38.5 -69 -54.5 q48 -14 70.5 -52 q22.5 -38 22.5 -90 l0 -54 q0 -38 -8.5 -70.5 q-8.5 -32.5 -27 -56 q-18.5 -23.5 -47 -37 q-28.5 -13.5 -68.5 -13.5 q-40 0 -68.5 13.5 q-28.5 13.5 -47 37 q-18.5 23.5 -27 56 q-8.5 32.5 -8.5 70.5 l0 40 l44 0 l0 -42 q0 -29 5.5 -53 q5.5 -24 18.5 -42 q13 -18 33 -28 q20 -10 49 -10 q58 0 82 38 q24 38 24 98 l0 54 q0 55 -26.5 85.5 q-26.5 30.5 -77.5 32.5 l-47 0 l0 42 l49 0 q48 3 75 34.5 q27 31.5 27 82.5 l0 25 q0 60 -24 98 q-24 38 -82 38 q-58 0 -82 -37.5 q-24 -37.5 -24 -94.5 l0 -28 l-44 0 l0 25 q0 38 8.5 70.5 q8.5 32.5 27 56 q18.5 23.5 47 37 q28.5 13.5 68.5 13.5 Z" /><glyph glyph-name="four" unicode="4" d="M315 155 l0 -155 l-45 0 l0 155 l-239 0 l0 43 l232 503 l52 0 l0 -504 l59 0 l0 -42 l-59 0 ZM73 197 l197 0 l0 418 l-197 -418 Z" /><glyph glyph-name="five" unicode="5" d="M92 408 q18 29 46 41.5 q28 12.5 67 12.5 q36 0 62 -13 q26 -13 42.5 -36 q16.5 -23 24 -54.5 q7.5 -31.5 7.5 -67.5 l0 -120 q0 -38 -8.5 -70.5 q-8.5 -32.5 -27 -56 q-18.5 -23.5 -47.5 -37 q-29 -13.5 -69 -13.5 q-40 0 -68.5 13.5 q-28.5 13.5 -47 37 q-18.5 23.5 -27 56 q-8.5 32.5 -8.5 70.5 l0 38 l44 0 l0 -40 q0 -28 6 -52 q6 -24 18.5 -42 q12.5 -18 32.5 -28 q20 -10 49 -10 q29 0 49.5 10 q20.5 10 33 28 q12.5 18 18.5 42 q6 24 6 52 l0 118 q0 28 -6 52 q-6 24 -18.5 42 q-12.5 18 -33 28 q-20.5 10 -49.5 10 q-78 0 -100 -80 l0 -12 l-43 0 l18 374 l263 0 l0 -43 l-221 0 l-13 -250 Z" /><glyph glyph-name="six" unicode="6" d="M192 706 q40 0 68.5 -13 q28.5 -13 47 -36 q18.5 -23 27 -55 q8.5 -32 8.5 -70 l0 -8 l-44 0 l0 11 q0 56 -24 92.5 q-24 36.5 -82 36.5 q-30 0 -50.5 -10 q-20.5 -10 -34 -28 q-13.5 -18 -19.5 -43.5 q-6 -25.5 -6 -56.5 l0 -162 q17 29 47 46.5 q30 17.5 78 17.5 q37 0 63 -13 q26 -13 42.5 -36 q16.5 -23 24.5 -54 q8 -31 8 -68 l0 -86 q0 -38 -9 -70.5 q-9 -32.5 -28 -56 q-19 -23.5 -48 -37 q-29 -13.5 -69 -13.5 q-41 0 -70 13.5 q-29 13.5 -48 37 q-19 23.5 -28 56 q-9 32.5 -9 70.5 l0 356 q0 39 9 72 q9 33 27.5 57 q18.5 24 48 37 q29.5 13 70.5 13 ZM192 385 q-59 0 -84 -37.5 q-25 -37.5 -25 -93.5 l0 -85 q0 -58 25 -95 q25 -37 84 -37 q58 0 83 37 q25 37 25 95 l0 85 q0 56 -25 93.5 q-25 37.5 -83 37.5 Z" /><glyph glyph-name="seven" unicode="7" d="M294 658 l-257 0 l0 43 l304 0 l0 -42 l-197 -659 l-47 0 l197 658 Z" /><glyph glyph-name="eight" unicode="8" d="M194 706 q79 0 119 -46 q40 -46 40 -124 l0 -22 q0 -54 -21.5 -93.5 q-21.5 -39.5 -71.5 -53.5 q51 -15 72 -55 q21 -40 21 -95 l0 -50 q0 -77 -39.5 -125 q-39.5 -48 -119.5 -48 q-81 0 -120 47.5 q-39 47.5 -39 125.5 l0 50 q0 56 20.5 95 q20.5 39 73.5 55 q-51 14 -72.5 52.5 q-21.5 38.5 -21.5 94.5 l0 22 q0 78 39.5 124 q39.5 46 119.5 46 ZM194 664 q-57 0 -85 -33.5 q-28 -33.5 -28 -95.5 l0 -29 q0 -120 113 -120 q113 0 113 120 l0 29 q0 62 -28.5 95.5 q-28.5 33.5 -84.5 33.5 ZM194 344 q-113 0 -113 -123 l0 -53 q0 -61 28 -96.5 q28 -35.5 85 -35.5 q57 0 84.5 35.5 q27.5 35.5 28.5 96.5 l0 53 q0 123 -113 123 Z" /><glyph glyph-name="nine" unicode="9" d="M190 707 q40 0 69.5 -13.5 q29.5 -13.5 48 -37 q18.5 -23.5 27.5 -56 q9 -32.5 9 -71.5 l0 -356 q0 -39 -8.5 -72 q-8.5 -33 -27.5 -56.5 q-19 -23.5 -48 -37 q-29 -13.5 -70 -13.5 q-40 0 -69 13 q-29 13 -47.5 36 q-18.5 23 -27.5 55.5 q-9 32.5 -9 70.5 l0 9 l44 0 l0 -11 q0 -57 25 -94 q25 -37 83 -37 q59 0 84 38 q25 38 25 101 l0 172 q-17 -39 -47 -56.5 q-30 -17.5 -77 -17.5 q-37 0 -63 13 q-26 13 -42.5 35.5 q-16.5 22.5 -24.5 54 q-8 31.5 -8 68.5 l0 85 q0 39 9 71.5 q9 32.5 28 56 q19 23.5 48 37 q29 13.5 69 13.5 ZM190 664 q-58 0 -83 -37.5 q-25 -37.5 -25 -94.5 l0 -85 q0 -57 25 -94.5 q25 -37.5 83 -37.5 q58 0 83 37.5 q25 37.5 25 94.5 l0 85 q0 57 -25 94.5 q-25 37.5 -83 37.5 Z" /><glyph glyph-name="fraction" unicode="&#x2044;" d="M282 700 l-276 -700 l-30 0 l276 700 l30 0 Z" /><glyph glyph-name="onehalf" unicode="½" d="M116 649 q-12 -14 -29 -23 q-17 -9 -37 -11 l-1 25 q32 2 49 18.5 q17 16.5 25 41.5 l25 0 l0 -444 l-32 0 l0 393 ZM408 700 l-276 -700 l-30 0 l276 700 l30 0 ZM439 449 q53 0 75 -32.5 q22 -32.5 22 -81.5 q0 -32 -12 -57.5 q-12 -25.5 -29.5 -48 q-17.5 -22.5 -38.5 -43.5 q-21 -21 -39 -44 q-18 -23 -30 -49 q-12 -26 -13 -59 l0 -5 l157 0 l0 -29 l-189 0 l0 23 q0 39 12 68.5 q12 29.5 30 54 q18 24.5 39.5 45.5 q21.5 21 39.5 42.5 q18 21.5 30 45.5 q12 24 12 55 q0 38 -14.5 62 q-14.5 24 -51.5 24 q-37 0 -52 -24.5 q-15 -24.5 -15 -60.5 l0 -30 l-30 0 l0 29 q0 49 22.5 82 q22.5 33 74.5 33 Z" /><glyph glyph-name="uni2153" unicode="&#x2153;" d="M116 649 q-12 -14 -29 -23 q-17 -9 -37 -11 l-1 25 q32 2 49 18.5 q17 16.5 25 41.5 l25 0 l0 -444 l-32 0 l0 393 ZM408 700 l-276 -700 l-30 0 l276 700 l30 0 ZM431 449 q51 0 74 -32 q23 -32 23 -81 l0 -11 q0 -32 -14 -56.5 q-14 -24.5 -42 -35.5 q29 -11 42.5 -34.5 q13.5 -23.5 13.5 -55.5 l0 -35 q0 -49 -23 -81 q-23 -32 -74 -32 q-52 0 -74.5 32 q-22.5 32 -22.5 81 l0 25 l30 0 l0 -27 q0 -35 15 -58.5 q15 -23.5 51 -23.5 q36 0 51 23.5 q15 23.5 15 61.5 l0 34 q0 33 -16.5 53 q-16.5 20 -48.5 20 l-30 0 l0 29 l31 0 q29 0 47 22 q18 22 17 52 l0 16 q0 38 -15 61.5 q-15 23.5 -51 23.5 q-36 0 -51 -23.5 q-15 -23.5 -15 -58.5 l0 -18 l-30 0 l0 16 q0 49 22.5 81 q22.5 32 74.5 32 Z" /><glyph glyph-name="uni2154" unicode="&#x2154;" d="M138 705 q53 0 75 -32.5 q22 -32.5 22 -81.5 q0 -32 -12 -58 q-12 -26 -30 -49 q-18 -23 -39 -44 q-21 -21 -39 -44 q-18 -23 -30.5 -49 q-12.5 -26 -12.5 -58 l0 -4 l158 0 l0 -29 l-189 0 l0 22 q0 39 12 69 q12 30 30 54.5 q18 24.5 39 45.5 q21 21 39 42.5 q18 21.5 30 45.5 q12 24 12 55 q0 38 -14.5 62 q-14.5 24 -51.5 24 q-37 0 -51.5 -25 q-14.5 -25 -14.5 -60 l0 -30 l-30 0 l0 29 q0 24 5.5 45 q5.5 21 17 36.5 q11.5 15.5 30 24.5 q18.5 9 44.5 9 ZM183 0 l-29 0 l276 700 l29 0 l-276 -700 ZM474 449 q52 0 74.5 -32 q22.5 -32 22.5 -81 l0 -11 q0 -32 -14 -56.5 q-14 -24.5 -42 -35.5 q29 -11 42.5 -34.5 q13.5 -23.5 13.5 -55.5 l0 -35 q0 -49 -22.5 -81 q-22.5 -32 -74.5 -32 q-52 0 -74.5 32 q-22.5 32 -22.5 81 l0 25 l30 0 l0 -27 q0 -35 15 -58.5 q15 -23.5 51 -23.5 q37 0 52 23.5 q15 23.5 15 61.5 l0 34 q0 33 -16.5 53 q-16.5 20 -48.5 20 l-30 0 l0 29 l31 0 q29 0 46.5 22 q17.5 22 17.5 52 l0 16 q0 38 -15 61.5 q-15 23.5 -52 23.5 q-36 0 -51 -23.5 q-15 -23.5 -15 -58.5 l0 -18 l-30 0 l0 16 q0 49 22.5 81 q22.5 32 74.5 32 Z" /><glyph glyph-name="onequarter" unicode="¼" d="M116 649 q-12 -14 -29 -23 q-17 -9 -37 -11 l-1 25 q32 2 49 18.5 q17 16.5 25 41.5 l25 0 l0 -444 l-32 0 l0 393 ZM142 0 l-29 0 l276 700 l29 0 l-276 -700 ZM459 0 l-31 0 l0 96 l-152 0 l0 29 l147 319 l36 0 l0 -319 l36 0 l0 -29 l-36 0 l0 -96 ZM428 125 l0 259 l-122 -259 l122 0 Z" /><glyph glyph-name="threequarters" unicode="¾" d="M136 705 q51 0 73.5 -32 q22.5 -32 22.5 -81 l0 -11 q0 -32 -13.5 -56.5 q-13.5 -24.5 -42.5 -35.5 q29 -11 42.5 -34.5 q13.5 -23.5 13.5 -55.5 l0 -35 q0 -49 -22.5 -81 q-22.5 -32 -73.5 -32 q-52 0 -74.5 32 q-22.5 32 -22.5 81 l0 25 l30 0 l0 -27 q0 -35 15 -58.5 q15 -23.5 51 -23.5 q36 0 51 23.5 q15 23.5 15 61.5 l0 34 q0 33 -16.5 53 q-16.5 20 -48.5 20 l-30 0 l0 29 l31 0 q29 0 47 22 q18 22 17 52 l0 16 q0 38 -15 61.5 q-15 23.5 -51 23.5 q-36 0 -51 -23.5 q-15 -23.5 -15 -58.5 l0 -18 l-30 0 l0 16 q0 49 22.5 81 q22.5 32 74.5 32 ZM442 700 l30 0 l-276 -700 l-30 0 l276 700 ZM477 96 l-151 0 l0 29 l147 319 l36 0 l0 -319 l36 0 l0 -29 l-36 0 l0 -96 l-32 0 l0 96 ZM356 125 l121 0 l0 259 l-121 -259 Z" /><glyph glyph-name="oneeighth" unicode="&#x215b;" d="M116 649 q-12 -14 -29 -23 q-17 -9 -37 -11 l-1 25 q32 2 49 18.5 q17 16.5 25 41.5 l25 0 l0 -444 l-32 0 l0 393 ZM102 0 l276 700 l30 0 l-276 -700 l-30 0 ZM437 449 q51 0 76.5 -30 q25.5 -30 25.5 -79 l0 -14 q0 -33 -12.5 -58 q-12.5 -25 -41.5 -36 q30 -11 42 -36.5 q12 -25.5 12 -58.5 l0 -31 q0 -50 -25 -80.5 q-25 -30.5 -77 -30.5 q-52 0 -77 30.5 q-25 30.5 -25 80.5 l0 31 q0 33 12 58.5 q12 25.5 42 36.5 q-29 11 -41.5 36 q-12.5 25 -12.5 58 l0 14 q0 49 25.5 79 q25.5 30 76.5 30 ZM437 420 q-35 0 -52.5 -21.5 q-17.5 -21.5 -17.5 -59.5 l0 -18 q0 -75 70 -75 q70 0 70 75 l0 18 q0 38 -17.5 59.5 q-17.5 21.5 -52.5 21.5 ZM437 217 q-70 0 -70 -77 l0 -34 q0 -38 17 -60 q17 -22 53 -22 q36 0 53 22 q17 22 17 60 l0 34 q0 77 -70 77 Z" /><glyph glyph-name="threeeighths" unicode="&#x215c;" d="M136 705 q51 0 73.5 -32 q22.5 -32 22.5 -81 l0 -11 q0 -32 -13.5 -56.5 q-13.5 -24.5 -42.5 -35.5 q29 -11 42.5 -34.5 q13.5 -23.5 13.5 -55.5 l0 -35 q0 -49 -22.5 -81 q-22.5 -32 -73.5 -32 q-52 0 -74.5 32 q-22.5 32 -22.5 81 l0 25 l30 0 l0 -27 q0 -35 15 -58.5 q15 -23.5 51 -23.5 q36 0 51 23.5 q15 23.5 15 61.5 l0 34 q0 33 -16.5 53 q-16.5 20 -48.5 20 l-30 0 l0 29 l31 0 q29 0 47 22 q18 22 17 52 l0 16 q0 38 -15 61.5 q-15 23.5 -51 23.5 q-36 0 -51 -23.5 q-15 -23.5 -15 -58.5 l0 -18 l-30 0 l0 16 q0 49 22.5 81 q22.5 32 74.5 32 ZM462 700 l-276 -700 l-30 0 l276 700 l30 0 ZM487 449 q51 0 76.5 -30 q25.5 -30 25.5 -79 l0 -14 q0 -33 -12.5 -58 q-12.5 -25 -41.5 -36 q30 -11 42 -36.5 q12 -25.5 12 -58.5 l0 -31 q0 -50 -25 -80.5 q-25 -30.5 -77 -30.5 q-52 0 -77 30.5 q-25 30.5 -25 80.5 l0 31 q0 33 12 58.5 q12 25.5 42 36.5 q-29 11 -41.5 36 q-12.5 25 -12.5 58 l0 14 q0 49 25.5 79 q25.5 30 76.5 30 ZM487 420 q-35 0 -52.5 -21.5 q-17.5 -21.5 -17.5 -59.5 l0 -18 q0 -75 70 -75 q70 0 70 75 l0 18 q0 38 -17.5 59.5 q-17.5 21.5 -52.5 21.5 ZM487 217 q-70 0 -70 -77 l0 -34 q0 -38 17 -60 q17 -22 53 -22 q36 0 53 22 q17 22 17 60 l0 34 q0 77 -70 77 Z" /><glyph glyph-name="fiveeighths" unicode="&#x215d;" d="M76 510 q23 38 70 38 q46 0 66.5 -31 q20.5 -31 20.5 -79 l0 -76 q0 -48 -23 -80.5 q-23 -32.5 -74 -32.5 q-51 0 -74 32.5 q-23 32.5 -23 80.5 l0 24 l30 0 l0 -25 q0 -35 15.5 -58.5 q15.5 -23.5 50.5 -23.5 q36 0 51 23.5 q15 23.5 15 58.5 l0 75 q0 35 -15 58.5 q-15 23.5 -51 23.5 q-21 0 -39 -12.5 q-18 -12.5 -22 -36.5 l0 -8 l-31 0 l12 239 l167 0 l0 -30 l-139 0 l-7 -160 ZM431 700 l30 0 l-276 -700 l-30 0 l276 700 ZM486 449 q51 0 76.5 -30 q25.5 -30 25.5 -79 l0 -14 q0 -33 -12.5 -58 q-12.5 -25 -41.5 -36 q29 -11 41.5 -36.5 q12.5 -25.5 12.5 -58.5 l0 -31 q0 -50 -25.5 -80.5 q-25.5 -30.5 -76.5 -30.5 q-52 0 -77 30.5 q-25 30.5 -25 80.5 l0 31 q0 33 12 58.5 q12 25.5 42 36.5 q-29 11 -41.5 36 q-12.5 25 -12.5 58 l0 14 q0 49 25.5 79 q25.5 30 76.5 30 ZM486 420 q-35 0 -53 -21.5 q-18 -21.5 -18 -59.5 l0 -18 q0 -75 71 -75 q70 0 70 75 l0 18 q0 38 -17.5 59.5 q-17.5 21.5 -52.5 21.5 ZM486 217 q-71 0 -71 -77 l0 -34 q0 -38 17.5 -60 q17.5 -22 53.5 -22 q35 0 52.5 22 q17.5 22 17.5 60 l0 34 q0 77 -70 77 Z" /><glyph glyph-name="seveneighths" unicode="&#x215e;" d="M200 671 l-162 0 l0 29 l194 0 l0 -28 l-125 -416 l-32 0 l125 415 ZM111 0 l-30 0 l276 700 l30 0 l-276 -700 ZM422 449 q51 0 76.5 -30 q25.5 -30 25.5 -79 l0 -14 q0 -33 -12.5 -58 q-12.5 -25 -41.5 -36 q30 -11 42 -36.5 q12 -25.5 12 -58.5 l0 -31 q0 -50 -25 -80.5 q-25 -30.5 -77 -30.5 q-51 0 -76.5 30.5 q-25.5 30.5 -25.5 80.5 l0 31 q0 33 12.5 58.5 q12.5 25.5 41.5 36.5 q-29 11 -41.5 36 q-12.5 25 -12.5 58 l0 14 q0 49 25.5 79 q25.5 30 76.5 30 ZM422 420 q-35 0 -52.5 -21.5 q-17.5 -21.5 -17.5 -59.5 l0 -18 q0 -75 70 -75 q71 0 71 75 l0 18 q0 38 -18 59.5 q-18 21.5 -53 21.5 ZM422 217 q-70 0 -70 -77 l0 -34 q0 -38 17.5 -60 q17.5 -22 52.5 -22 q36 0 53.5 22 q17.5 22 17.5 60 l0 34 q0 77 -71 77 Z" /><glyph glyph-name="zeroinferior" unicode="&#x2080;" d="M38 271 q0 49 23.5 81 q23.5 32 75.5 32 q52 0 75.5 -32 q23.5 -32 23.5 -81 l0 -228 q0 -49 -23.5 -81 q-23.5 -32 -75.5 -32 q-52 0 -75.5 32 q-23.5 32 -23.5 81 l0 228 ZM69 41 q0 -35 15.5 -58.5 q15.5 -23.5 52.5 -23.5 q36 0 51.5 23.5 q15.5 23.5 15.5 58.5 l0 232 q0 35 -15.5 58.5 q-15.5 23.5 -51.5 23.5 q-37 0 -52.5 -23.5 q-15.5 -23.5 -15.5 -58.5 l0 -232 Z" /><glyph glyph-name="oneinferior" unicode="&#x2081;" d="M102 328 q-12 -14 -29 -23 q-17 -9 -38 -11 l0 25 q32 2 48.5 18.5 q16.5 16.5 25.5 41.5 l25 0 l0 -444 l-32 0 l0 393 Z" /><glyph glyph-name="twoinferior" unicode="&#x2082;" d="M138 384 q53 0 75 -32.5 q22 -32.5 22 -81.5 q0 -32 -12 -58 q-12 -26 -30 -48.5 q-18 -22.5 -39 -44 q-21 -21.5 -39 -44 q-18 -22.5 -30.5 -49 q-12.5 -26.5 -12.5 -58.5 l0 -4 l158 0 l0 -29 l-189 0 l0 23 q0 39 12 68.5 q12 29.5 30 54 q18 24.5 39 45.5 q21 21 39 42.5 q18 21.5 30 45.5 q12 24 12 55 q0 38 -14.5 62 q-14.5 24 -51.5 24 q-37 0 -51.5 -24.5 q-14.5 -24.5 -14.5 -60.5 l0 -30 l-30 0 l0 29 q0 24 5.5 45 q5.5 21 17 36.5 q11.5 15.5 30 24.5 q18.5 9 44.5 9 Z" /><glyph glyph-name="threeinferior" unicode="&#x2083;" d="M136 384 q51 0 73.5 -32 q22.5 -32 22.5 -81 l0 -11 q0 -32 -13.5 -57 q-13.5 -25 -42.5 -36 q29 -9 42.5 -33 q13.5 -24 13.5 -56 l0 -35 q0 -49 -22.5 -81 q-22.5 -32 -73.5 -32 q-52 0 -74.5 32 q-22.5 32 -22.5 81 l0 25 l30 0 l0 -27 q0 -35 15 -58.5 q15 -23.5 51 -23.5 q36 0 51 23.5 q15 23.5 15 61.5 l0 34 q0 33 -16.5 53 q-16.5 20 -48.5 20 l-30 0 l0 29 l31 0 q29 0 47 22 q18 22 17 52 l0 16 q0 38 -15 61.5 q-15 23.5 -51 23.5 q-36 0 -51 -23.5 q-15 -23.5 -15 -58.5 l0 -18 l-30 0 l0 16 q0 49 22.5 81 q22.5 32 74.5 32 Z" /><glyph glyph-name="fourinferior" unicode="&#x2084;" d="M217 28 l0 -96 l-31 0 l0 96 l-152 0 l0 29 l148 319 l35 0 l0 -319 l37 0 l0 -29 l-37 0 ZM64 57 l122 0 l0 259 l-122 -259 Z" /><glyph glyph-name="fiveinferior" unicode="&#x2085;" d="M69 43 q0 -35 15.5 -58.5 q15.5 -23.5 50.5 -23.5 q36 0 51 23.5 q15 23.5 15 58.5 l0 75 q0 35 -15 59 q-15 24 -51 24 q-21 0 -39 -13 q-18 -13 -22 -37 l0 -7 l-31 0 l12 238 l167 0 l0 -30 l-139 0 l-7 -159 q23 37 70 37 q46 0 66.5 -31 q20.5 -31 20.5 -79 l0 -76 q0 -48 -23 -80.5 q-23 -32.5 -74 -32.5 q-51 0 -74 32.5 q-23 32.5 -23 80.5 l0 25 l30 0 l0 -26 Z" /><glyph glyph-name="sixinferior" unicode="&#x2086;" d="M138 384 q52 0 74.5 -31.5 q22.5 -31.5 22.5 -80.5 l0 -5 l-30 0 l0 7 q0 35 -15 58 q-15 23 -51 23 q-38 0 -53.5 -24 q-15.5 -24 -15.5 -62 l0 -112 q21 50 78 50 q47 0 67.5 -31 q20.5 -31 20.5 -79 l0 -54 q0 -49 -23 -81 q-23 -32 -75 -32 q-52 0 -75.5 32 q-23.5 32 -23.5 81 l0 227 q0 25 5.5 46 q5.5 21 17.5 36 q12 15 30.5 23.5 q18.5 8.5 45.5 8.5 ZM138 178 q-37 0 -52.5 -23.5 q-15.5 -23.5 -15.5 -59.5 l0 -54 q0 -35 15.5 -58.5 q15.5 -23.5 52.5 -23.5 q36 0 51.5 23.5 q15.5 23.5 15.5 58.5 l0 54 q0 36 -15.5 59.5 q-15.5 23.5 -51.5 23.5 Z" /><glyph glyph-name="seveninferior" unicode="&#x2087;" d="M200 353 l-162 0 l0 29 l194 0 l0 -28 l-125 -416 l-32 0 l125 415 Z" /><glyph glyph-name="eightinferior" unicode="&#x2088;" d="M139 384 q51 0 76.5 -30 q25.5 -30 25.5 -79 l0 -14 q0 -33 -12.5 -58 q-12.5 -25 -41.5 -36 q29 -11 41.5 -36.5 q12.5 -25.5 12.5 -58.5 l0 -31 q0 -50 -25.5 -80.5 q-25.5 -30.5 -76.5 -30.5 q-52 0 -77 30.5 q-25 30.5 -25 80.5 l0 31 q0 33 12 58.5 q12 25.5 42 36.5 q-29 11 -41.5 36 q-12.5 25 -12.5 58 l0 14 q0 49 25.5 79 q25.5 30 76.5 30 ZM139 355 q-35 0 -53 -21.5 q-18 -21.5 -18 -59.5 l0 -18 q0 -75 71 -75 q70 0 70 75 l0 18 q0 38 -17.5 59.5 q-17.5 21.5 -52.5 21.5 ZM139 152 q-71 0 -71 -77 l0 -34 q0 -38 17.5 -60 q17.5 -22 53.5 -22 q35 0 52.5 22 q17.5 22 17.5 60 l0 34 q0 77 -70 77 Z" /><glyph glyph-name="nineinferior" unicode="&#x2089;" d="M136 384 q52 0 75.5 -32 q23.5 -32 23.5 -81 l0 -227 q0 -50 -23 -82 q-23 -32 -76 -32 q-51 0 -75 31.5 q-24 31.5 -24 80.5 l0 6 l31 0 l0 -8 q0 -35 15.5 -58 q15.5 -23 51.5 -23 q37 0 52.5 24 q15.5 24 15.5 62 l0 111 q-19 -49 -77 -49 q-47 0 -68 31 q-21 31 -21 78 l0 55 q0 49 23.5 81 q23.5 32 75.5 32 ZM136 355 q-36 0 -51.5 -23.5 q-15.5 -23.5 -15.5 -58.5 l0 -55 q0 -35 15.5 -58.5 q15.5 -23.5 51.5 -23.5 q36 0 51.5 23.5 q15.5 23.5 15.5 58.5 l0 55 q0 35 -15.5 58.5 q-15.5 23.5 -51.5 23.5 Z" /><glyph glyph-name="zerosuperior" unicode="&#x2070;" d="M38 687 q0 49 23.5 81 q23.5 32 75.5 32 q52 0 75.5 -32 q23.5 -32 23.5 -81 l0 -228 q0 -49 -23.5 -81 q-23.5 -32 -75.5 -32 q-52 0 -75.5 32 q-23.5 32 -23.5 81 l0 228 ZM69 457 q0 -35 15.5 -58.5 q15.5 -23.5 52.5 -23.5 q36 0 51.5 23.5 q15.5 23.5 15.5 58.5 l0 232 q0 35 -15.5 58.5 q-15.5 23.5 -51.5 23.5 q-37 0 -52.5 -23.5 q-15.5 -23.5 -15.5 -58.5 l0 -232 Z" /><glyph glyph-name="onesuperior" unicode="¹" d="M35 735 q32 2 48.5 18.5 q16.5 16.5 25.5 41.5 l25 0 l0 -444 l-32 0 l0 393 q-12 -14 -29 -23 q-17 -9 -38 -11 l0 25 Z" /><glyph glyph-name="twosuperior" unicode="²" d="M138 800 q53 0 75 -32.5 q22 -32.5 22 -81.5 q0 -32 -12 -58 q-12 -26 -29.5 -48.5 q-17.5 -22.5 -38.5 -43.5 q-21 -21 -39.5 -44 q-18.5 -23 -30.5 -49 q-12 -26 -13 -59 l0 -4 l158 0 l0 -29 l-189 0 l0 23 q0 39 12 68.5 q12 29.5 30 54 q18 24.5 39 45.5 q21 21 39 42.5 q18 21.5 30 45.5 q12 24 12 55 q0 38 -14.5 62 q-14.5 24 -51.5 24 q-37 0 -51.5 -24.5 q-14.5 -24.5 -14.5 -60.5 l0 -30 l-30 0 l0 29 q0 24 5.5 45 q5.5 21 17 36.5 q11.5 15.5 30 24.5 q18.5 9 44.5 9 Z" /><glyph glyph-name="threesuperior" unicode="³" d="M136 800 q51 0 73.5 -32 q22.5 -32 22.5 -81 l0 -11 q0 -32 -13.5 -56.5 q-13.5 -24.5 -42.5 -35.5 q29 -11 42.5 -34.5 q13.5 -23.5 13.5 -55.5 l0 -35 q0 -49 -22.5 -81 q-22.5 -32 -73.5 -32 q-52 0 -74.5 32 q-22.5 32 -22.5 81 l0 25 l30 0 l0 -27 q0 -35 15 -58.5 q15 -23.5 51 -23.5 q36 0 51 23.5 q15 23.5 15 61.5 l0 34 q0 33 -16.5 53 q-16.5 20 -48.5 20 l-30 0 l0 29 l31 0 q29 0 47 22 q18 22 17 52 l0 16 q0 38 -15 61.5 q-15 23.5 -51 23.5 q-36 0 -51 -23.5 q-15 -23.5 -15 -58.5 l0 -18 l-30 0 l0 16 q0 49 22.5 81 q22.5 32 74.5 32 Z" /><glyph glyph-name="foursuperior" unicode="&#x2074;" d="M217 447 l0 -96 l-31 0 l0 96 l-152 0 l0 29 l148 319 l35 0 l0 -319 l37 0 l0 -29 l-37 0 ZM64 476 l122 0 l0 259 l-122 -259 Z" /><glyph glyph-name="fivesuperior" unicode="&#x2075;" d="M69 456 q0 -35 15.5 -58.5 q15.5 -23.5 50.5 -23.5 q36 0 51 23.5 q15 23.5 15 58.5 l0 75 q0 35 -15 58.5 q-15 23.5 -51 23.5 q-21 0 -39 -12.5 q-18 -12.5 -22 -36.5 l0 -8 l-31 0 l12 239 l167 0 l0 -30 l-139 0 l-7 -160 q23 38 70 38 q46 0 66.5 -31 q20.5 -31 20.5 -79 l0 -76 q0 -48 -23 -80.5 q-23 -32.5 -74 -32.5 q-51 0 -74 32.5 q-23 32.5 -23 80.5 l0 24 l30 0 l0 -25 Z" /><glyph glyph-name="sixsuperior" unicode="&#x2076;" d="M138 800 q52 0 74.5 -31.5 q22.5 -31.5 22.5 -80.5 l0 -5 l-30 0 l0 7 q0 35 -15 58 q-15 23 -51 23 q-38 0 -53.5 -24 q-15.5 -24 -15.5 -62 l0 -112 q21 50 78 50 q47 0 67.5 -31 q20.5 -31 20.5 -79 l0 -54 q0 -49 -23 -81 q-23 -32 -75 -32 q-52 0 -75.5 32 q-23.5 32 -23.5 81 l0 227 q0 25 5.5 46 q5.5 21 17.5 36 q12 15 30.5 23.5 q18.5 8.5 45.5 8.5 ZM138 594 q-37 0 -52.5 -23.5 q-15.5 -23.5 -15.5 -59.5 l0 -54 q0 -35 15.5 -58.5 q15.5 -23.5 52.5 -23.5 q36 0 51.5 23.5 q15.5 23.5 15.5 58.5 l0 54 q0 36 -15.5 59.5 q-15.5 23.5 -51.5 23.5 Z" /><glyph glyph-name="sevensuperior" unicode="&#x2077;" d="M200 766 l-162 0 l0 29 l194 0 l0 -28 l-125 -416 l-32 0 l125 415 Z" /><glyph glyph-name="eightsuperior" unicode="&#x2078;" d="M139 800 q51 0 76.5 -30 q25.5 -30 25.5 -79 l0 -14 q0 -33 -12.5 -58 q-12.5 -25 -41.5 -36 q29 -11 41.5 -36.5 q12.5 -25.5 12.5 -58.5 l0 -31 q0 -50 -25.5 -80.5 q-25.5 -30.5 -76.5 -30.5 q-52 0 -77 30.5 q-25 30.5 -25 80.5 l0 31 q0 33 12 58.5 q12 25.5 42 36.5 q-29 11 -41.5 36 q-12.5 25 -12.5 58 l0 14 q0 49 25.5 79 q25.5 30 76.5 30 ZM139 771 q-35 0 -53 -21.5 q-18 -21.5 -18 -59.5 l0 -18 q0 -75 71 -75 q70 0 70 75 l0 18 q0 38 -17.5 59.5 q-17.5 21.5 -52.5 21.5 ZM139 568 q-71 0 -71 -77 l0 -34 q0 -38 17.5 -60 q17.5 -22 53.5 -22 q35 0 52.5 22 q17.5 22 17.5 60 l0 34 q0 77 -70 77 Z" /><glyph glyph-name="ninesuperior" unicode="&#x2079;" d="M136 800 q52 0 75.5 -32 q23.5 -32 23.5 -81 l0 -227 q0 -50 -23 -82 q-23 -32 -76 -32 q-51 0 -75 31.5 q-24 31.5 -24 80.5 l0 6 l31 0 l0 -8 q0 -35 15.5 -58 q15.5 -23 51.5 -23 q37 0 52.5 24 q15.5 24 15.5 62 l0 111 q-19 -49 -77 -49 q-47 0 -68 31 q-21 31 -21 78 l0 55 q0 49 23.5 81 q23.5 32 75.5 32 ZM136 771 q-36 0 -51.5 -23.5 q-15.5 -23.5 -15.5 -58.5 l0 -55 q0 -35 15.5 -58.5 q15.5 -23.5 51.5 -23.5 q36 0 51.5 23.5 q15.5 23.5 15.5 58.5 l0 55 q0 35 -15.5 58.5 q-15.5 23.5 -51.5 23.5 Z" /><glyph glyph-name="asterisk" unicode="*" d="M213 523 l95 -118 l-31 -23 l-80 129 l-80 -128 l-32 22 l96 118 l-148 35 l12 37 l142 -53 l-10 153 l39 0 l-9 -153 l142 51 l12 -37 l-148 -33 Z" /><glyph glyph-name="backslash" unicode="\" d="M68 700 l276 -700 l-41 0 l-276 700 l41 0 Z" /><glyph glyph-name="bullet" unicode="&#x2022;" d="M131 422 q30 0 51 -21 q21 -21 21 -51 q0 -30 -21 -51 q-21 -21 -51 -21 q-29 0 -50 21 q-21 21 -21 51 q0 30 21 51 q21 21 50 21 Z" /><glyph glyph-name="colon" unicode=":" d="M85 469 l0 -88 l-45 0 l0 88 l45 0 ZM85 88 l0 -88 l-45 0 l0 88 l45 0 Z" /><glyph glyph-name="comma" unicode="," d="M65 0 l-15 0 l0 88 l44 0 l0 -84 l-29 -80 l-20 0 l20 76 Z" /><glyph glyph-name="ellipsis" unicode="&#x2026;" d="M85 88 l0 -88 l-45 0 l0 88 l45 0 ZM163 88 l0 -88 l-44 0 l0 88 l44 0 ZM243 88 l0 -88 l-44 0 l0 88 l44 0 Z" /><glyph glyph-name="exclam" unicode="!" d="M40 335 l0 366 l46 0 l0 -366 l-6 -180 l-34 0 l-6 180 ZM85 87 l0 -87 l-44 0 l0 87 l44 0 Z" /><glyph glyph-name="exclamdown" unicode="¡" d="M85 701 l0 -88 l-44 0 l0 88 l44 0 ZM40 326 l6 220 l34 0 l6 -220 l0 -326 l-46 0 l0 326 Z" /><glyph glyph-name="numbersign" unicode="#" d="M319 483 l-24 -227 l61 0 l-3 -34 l-61 0 l-24 -222 l-39 0 l24 222 l-118 0 l-23 -222 l-39 0 l24 222 l-66 0 l3 34 l66 0 l24 227 l-67 0 l3 34 l67 0 l19 184 l39 0 l-19 -184 l117 0 l19 184 l39 0 l-19 -184 l61 0 l-3 -34 l-61 0 ZM280 483 l-118 0 l-23 -227 l117 0 l24 227 Z" /><glyph glyph-name="period" unicode="." d="M85 88 l0 -88 l-45 0 l0 88 l45 0 Z" /><glyph glyph-name="periodcentered" unicode="·" d="M85 404 l0 -88 l-45 0 l0 88 l45 0 Z" /><glyph glyph-name="question" unicode="?" d="M182 706 q41 0 69.5 -13.5 q28.5 -13.5 46 -37.5 q17.5 -24 25.5 -56.5 q8 -32.5 8 -70.5 q0 -39 -11 -69.5 q-11 -30.5 -27 -56 q-16 -25.5 -35 -48 q-19 -22.5 -35 -47 q-16 -24.5 -27 -52 q-11 -27.5 -11 -62.5 q0 -17 5 -37 l-42 0 q-5 20 -5 39 q0 38 10.5 67 q10.5 29 26.5 54 q16 25 34 47.5 q18 22.5 34 47 q16 24.5 26.5 53 q10.5 28.5 10.5 66.5 q0 28 -5 52.5 q-5 24.5 -17 42.5 q-12 18 -32 28.5 q-20 10.5 -50 10.5 q-29 0 -49 -10.5 q-20 -10.5 -32 -29 q-12 -18.5 -17.5 -43 q-5.5 -24.5 -5.5 -52.5 l0 -49 l-44 0 l0 46 q0 38 8 71 q8 33 26 57 q18 24 46 38 q28 14 69 14 ZM190 87 l0 -87 l-44 0 l0 87 l44 0 Z" /><glyph glyph-name="questiondown" unicode="¿" d="M217 700 l0 -87 l-45 0 l0 87 l45 0 ZM214 544 q6 -18 6 -39 q0 -38 -11 -67 q-11 -29 -26.5 -54 q-15.5 -25 -34 -47.5 q-18.5 -22.5 -34.5 -47 q-16 -24.5 -26.5 -53.5 q-10.5 -29 -10.5 -66 q0 -29 5 -53.5 q5 -24.5 17.5 -42.5 q12.5 -18 32.5 -28 q20 -10 50 -10 q29 0 49 10.5 q20 10.5 32 29 q12 18.5 17.5 43 q5.5 24.5 5.5 52.5 l0 49 l44 0 l0 -46 q0 -38 -8 -71 q-8 -33 -26 -57 q-18 -24 -46.5 -38 q-28.5 -14 -68.5 -14 q-41 0 -69.5 13.5 q-28.5 13.5 -46.5 37.5 q-18 24 -26 56.5 q-8 32.5 -8 70.5 q0 39 11 69.5 q11 30.5 27 56 q16 25.5 35 48 q19 22.5 35 47 q16 24.5 27 52 q11 27.5 11 62.5 q0 8 -1 18 q-1 10 -3 19 l41 0 Z" /><glyph glyph-name="quotedbl" unicode="&quot;" d="M85 701 l-6 -174 l-34 0 l-5 174 l45 0 ZM166 701 l-6 -174 l-33 0 l-6 174 l45 0 Z" /><glyph glyph-name="quotesingle" unicode="&#39;" d="M83 701 l-5 -174 l-34 0 l-5 174 l44 0 Z" /><glyph glyph-name="semicolon" unicode=";" d="M94 469 l0 -88 l-44 0 l0 88 l44 0 ZM65 0 l-15 0 l0 88 l44 0 l0 -84 l-29 -80 l-20 0 l20 76 Z" /><glyph glyph-name="slash" unicode="/" d="M344 700 l-276 -700 l-41 0 l276 700 l41 0 Z" /><glyph glyph-name="underscore" unicode="_" d="M481 -10 l0 -35 l-455 0 l0 35 l455 0 Z" /><glyph glyph-name="braceleft" unicode="{" d="M203 662 q-37 0 -48 -23 q-11 -23 -13 -60 l-6 -126 q-1 -18 -3.5 -34 q-2.5 -16 -9 -29.5 q-6.5 -13.5 -19 -23.5 q-12.5 -10 -33.5 -16 q21 -6 33.5 -16 q12.5 -10 19 -23.5 q6.5 -13.5 9 -29.5 q2.5 -16 3.5 -34 l6 -125 q2 -38 13 -60.5 q11 -22.5 48 -22.5 l22 0 l0 -39 l-37 0 q-47 0 -66 28.5 q-19 28.5 -22 75.5 l-7 137 q-1 20 -3 35 q-2 15 -8.5 26 q-6.5 11 -18.5 17.5 q-12 6.5 -33 9.5 l0 42 q21 3 33 10 q12 7 18.5 17.5 q6.5 10.5 8.5 25.5 q2 15 3 35 l7 138 q3 46 22 75 q19 29 66 29 l37 0 l0 -39 l-22 0 Z" /><glyph glyph-name="braceright" unicode="}" d="M68 701 q47 0 66 -29 q19 -29 22 -75 l7 -138 q1 -20 3.5 -35 q2.5 -15 9 -25.5 q6.5 -10.5 18.5 -17.5 q12 -7 33 -10 l0 -42 q-21 -3 -33 -9.5 q-12 -6.5 -18.5 -17.5 q-6.5 -11 -9 -26 q-2.5 -15 -3.5 -35 l-7 -137 q-3 -47 -22 -75.5 q-19 -28.5 -66 -28.5 l-37 0 l0 39 l23 0 q36 0 47 22.5 q11 22.5 13 60.5 l7 125 q1 18 3 34 q2 16 9 29.5 q7 13.5 19.5 23.5 q12.5 10 33.5 16 q-21 6 -33.5 16 q-12.5 10 -19.5 23.5 q-7 13.5 -9 29.5 q-2 16 -3 34 l-7 126 q-2 38 -13 60.5 q-11 22.5 -47 22.5 l-23 0 l0 39 l37 0 Z" /><glyph glyph-name="bracketleft" unicode="[" d="M199 39 l0 -39 l-156 0 l0 701 l156 0 l0 -39 l-110 0 l0 -623 l110 0 Z" /><glyph glyph-name="bracketright" unicode="]" d="M144 39 l0 623 l-110 0 l0 39 l156 0 l0 -701 l-156 0 l0 39 l110 0 Z" /><glyph glyph-name="parenleft" unicode="(" d="M180 662 q-27 0 -45 -8 q-18 -8 -28 -23 q-10 -15 -14 -36.5 q-4 -21.5 -4 -48.5 l0 -391 q0 -27 4 -48.5 q4 -21.5 14 -36.5 q10 -15 27.5 -23 q17.5 -8 45.5 -8 l20 0 l0 -39 l-22 0 q-39 0 -65 10.5 q-26 10.5 -41.5 30.5 q-15.5 20 -22 48.5 q-6.5 28.5 -6.5 65.5 l0 391 q0 37 6.5 65.5 q6.5 28.5 22 48.5 q15.5 20 41.5 30.5 q26 10.5 65 10.5 l22 0 l0 -39 l-20 0 Z" /><glyph glyph-name="parenright" unicode=")" d="M53 701 q78 0 107 -40.5 q29 -40.5 29 -114.5 l0 -391 q0 -37 -6.5 -65.5 q-6.5 -28.5 -22 -48.5 q-15.5 -20 -42 -30.5 q-26.5 -10.5 -65.5 -10.5 l-22 0 l0 39 l20 0 q55 0 73.5 31 q18.5 31 18.5 85 l0 391 q0 53 -18.5 84.5 q-18.5 31.5 -73.5 31.5 l-20 0 l0 39 l22 0 Z" /><glyph glyph-name="emdash" unicode="&#x2014;" d="M26 369 l619 0 l0 -38 l-619 0 l0 38 Z" /><glyph glyph-name="endash" unicode="&#x2013;" d="M26 369 l366 0 l0 -38 l-366 0 l0 38 Z" /><glyph glyph-name="figuredash" unicode="&#x2012;" d="M26 369 l401 0 l0 -38 l-401 0 l0 38 Z" /><glyph glyph-name="hyphen" unicode="-" d="M38 371 l184 0 l0 -42 l-184 0 l0 42 Z" /><glyph glyph-name="uni00AD" unicode="­" d="M38 371 l184 0 l0 -42 l-184 0 l0 42 Z" /><glyph glyph-name="guillemotleft" unicode="«" d="M31 351 l66 245 l42 0 l-65 -245 l65 -250 l-42 0 l-66 250 ZM147 351 l65 245 l42 0 l-65 -245 l65 -250 l-42 0 l-65 250 Z" /><glyph glyph-name="guillemotright" unicode="»" d="M96 351 l-65 245 l42 0 l66 -245 l-66 -250 l-42 0 l65 250 ZM211 351 l-64 245 l42 0 l65 -245 l-65 -250 l-42 0 l64 250 Z" /><glyph glyph-name="guilsinglleft" unicode="&#x2039;" d="M31 350 l65 248 l44 0 l-64 -248 l64 -253 l-44 0 l-65 253 Z" /><glyph glyph-name="guilsinglright" unicode="&#x203a;" d="M95 351 l-64 248 l44 0 l65 -248 l-65 -253 l-44 0 l64 253 Z" /><glyph glyph-name="quotedblbase" unicode="&#x201e;" d="M65 -76 l-20 0 l20 76 l-15 0 l0 88 l44 0 l0 -84 l-29 -80 ZM149 -76 l-21 0 l21 76 l-16 0 l0 88 l44 0 l0 -84 l-28 -80 Z" /><glyph glyph-name="quotedblleft" unicode="&#x201c;" d="M69 700 l20 0 l-20 -76 l16 0 l0 -88 l-45 0 l0 84 l29 80 ZM147 700 l21 0 l-21 -76 l16 0 l0 -88 l-45 0 l0 84 l29 80 Z" /><glyph glyph-name="quotedblright" unicode="&#x201d;" d="M61 536 l-21 0 l21 76 l-16 0 l0 88 l45 0 l0 -84 l-29 -80 ZM139 536 l-20 0 l20 76 l-16 0 l0 88 l45 0 l0 -84 l-29 -80 Z" /><glyph glyph-name="quoteleft" unicode="&#x2018;" d="M69 700 l20 0 l-20 -76 l16 0 l0 -88 l-45 0 l0 84 l29 80 Z" /><glyph glyph-name="quoteright" unicode="&#x2019;" d="M65 536 l-20 0 l20 76 l-15 0 l0 88 l44 0 l0 -84 l-29 -80 Z" /><glyph glyph-name="quotesinglbase" unicode="&#x201a;" d="M65 -76 l-20 0 l20 76 l-15 0 l0 88 l44 0 l0 -84 l-29 -80 Z" /><glyph glyph-name="Abreve" unicode="&#x102;" d="M314 821 q-2 -42 -29 -65 q-27 -23 -69 -23 q-42 0 -68.5 23 q-26.5 23 -27.5 65 l30 0 q1 -30 20.5 -43.5 q19.5 -13.5 45.5 -13.5 q26 0 46 13.5 q20 13.5 22 43.5 l30 0 ZM107 155 l-35 -155 l-42 0 l153 701 l67 0 l156 -701 l-46 0 l-35 155 l-218 0 ZM114 195 l204 0 l-103 453 l-101 -453 Z" /><glyph glyph-name="uni00A0" unicode=" " d="" /><glyph glyph-name="Euro" unicode="&#x20ac;" d="M66 529 q0 37 8 69.5 q8 32.5 26 56.5 q18 24 46 37.5 q28 13.5 68 13.5 q40 0 68 -13.5 q28 -13.5 46 -37.5 q18 -24 26 -56.5 q8 -32.5 8 -69.5 l0 -38 l-44 0 l0 41 q0 28 -5.5 52 q-5.5 24 -17.5 42 q-12 18 -32 28 q-20 10 -48 10 q-28 0 -47.5 -10 q-19.5 -10 -32 -28 q-12.5 -18 -18 -42 q-5.5 -24 -5.5 -52 l0 -112 l193 0 l0 -27 l-193 0 l0 -82 l193 0 l0 -26 l-193 0 l0 -117 q0 -28 5.5 -52 q5.5 -24 17.5 -41.5 q12 -17.5 31.5 -27.5 q19.5 -10 48.5 -10 q28 0 48 10 q20 10 32 27.5 q12 17.5 17.5 41.5 q5.5 24 5.5 52 l0 46 l44 0 l0 -43 q0 -38 -8 -70 q-8 -32 -26 -56 q-18 -24 -46 -37.5 q-28 -13.5 -68 -13.5 q-40 0 -68 13.5 q-28 13.5 -46 37.5 q-18 24 -26 56 q-8 32 -8 70 l0 114 l-40 0 l0 26 l40 0 l0 82 l-40 0 l0 27 l40 0 l0 109 Z" /><glyph glyph-name="cent" unicode="¢" d="M208 658 q35 -3 60 -16.5 q25 -13.5 41 -36 q16 -22.5 23.5 -52.5 q7.5 -30 7.5 -65 l0 -32 l-44 0 l0 34 q0 57 -24 92 q-24 35 -82 35 q-29 0 -48.5 -10 q-19.5 -10 -32.5 -27.5 q-13 -17.5 -18.5 -41.5 q-5.5 -24 -5.5 -52 l0 -270 q0 -28 5.5 -52 q5.5 -24 18.5 -42 q13 -18 32.5 -28 q19.5 -10 48.5 -10 q58 0 82 37 q24 37 24 93 l0 55 l44 0 l0 -52 q0 -36 -7.5 -66.5 q-7.5 -30.5 -23.5 -53.5 q-16 -23 -41 -37 q-25 -14 -60 -17 l0 -48 l-39 0 l0 48 q-35 3 -59.5 17.5 q-24.5 14.5 -40.5 38 q-16 23.5 -23 54 q-7 30.5 -7 65.5 l0 265 q0 35 7 65.5 q7 30.5 23 54 q16 23.5 40.5 38 q24.5 14.5 59.5 17.5 l0 47 l39 0 l0 -47 Z" /><glyph glyph-name="currency" unicode="¤" d="M264 420 q25 -30 25 -70 q0 -40 -25 -70 l48 -47 l-20 -20 l-47 46 q-29 -23 -71 -23 q-39 0 -70 23 l-47 -46 l-20 20 l47 46 q-24 32 -24 71 q0 40 24 70 l-47 47 l20 20 l48 -47 q30 24 69 24 q39 0 71 -24 l47 47 l20 -20 l-48 -47 ZM174 434 q-17 0 -32.5 -6.5 q-15.5 -6.5 -27 -18 q-11.5 -11.5 -18 -26.5 q-6.5 -15 -6.5 -33 q0 -18 6.5 -33 q6.5 -15 18 -26.5 q11.5 -11.5 27 -18 q15.5 -6.5 32.5 -6.5 q35 0 60 24.5 q25 24.5 25 59.5 q0 35 -25 59.5 q-25 24.5 -60 24.5 Z" /><glyph glyph-name="dollar" unicode="$" d="M209 701 q35 -3 59.5 -17.5 q24.5 -14.5 40.5 -37.5 q16 -23 23 -53 q7 -30 7 -65 l0 -16 l-44 0 l0 18 q0 28 -5.5 52 q-5.5 24 -18 41 q-12.5 17 -32.5 27 q-20 10 -48 10 q-57 0 -80.5 -36.5 q-23.5 -36.5 -23.5 -92.5 q0 -42 18.5 -72 q18.5 -30 47 -54 q28.5 -24 61 -45 q32.5 -21 61 -47 q28.5 -26 47 -59.5 q18.5 -33.5 18.5 -81.5 q0 -35 -7.5 -65 q-7.5 -30 -23 -53 q-15.5 -23 -40.5 -37.5 q-25 -14.5 -60 -17.5 l0 -56 l-39 0 l0 56 q-35 3 -60 17 q-25 14 -41 37 q-16 23 -23.5 53.5 q-7.5 30.5 -7.5 65.5 l0 39 l44 0 l0 -41 q0 -57 24 -93.5 q24 -36.5 82 -36.5 q58 0 82 36.5 q24 36.5 24 93.5 q0 42 -18.5 71 q-18.5 29 -47 53 q-28.5 24 -61 45 q-32.5 21 -61 47 q-28.5 26 -47 59.5 q-18.5 33.5 -18.5 82.5 q0 74 30.5 120 q30.5 46 98.5 53 l0 60 l39 0 l0 -60 Z" /><glyph glyph-name="sterling" unicode="£" d="M198 706 q40 0 68 -14 q28 -14 45.5 -38.5 q17.5 -24.5 25.5 -57.5 q8 -33 8 -70 l0 -43 l-43 0 l0 45 q0 28 -5.5 52.5 q-5.5 24.5 -17.5 43 q-12 18.5 -31.5 29.5 q-19.5 11 -48.5 11 q-30 0 -50 -10.5 q-20 -10.5 -32 -28.5 q-12 -18 -17.5 -42.5 q-5.5 -24.5 -5.5 -52.5 q0 -45 9 -78 q9 -33 21.5 -60.5 q12.5 -27.5 26 -54.5 q13.5 -27 22.5 -60 l147 0 l0 -37 l-143 0 q3 -22 0.5 -44 q-2.5 -22 -12 -46 q-9.5 -24 -27 -50.5 q-17.5 -26.5 -44.5 -57.5 l253 0 l0 -42 l-311 0 l0 41 q21 16 41 37 q20 21 34 46.5 q14 25.5 21 54.5 q7 29 3 61 l-86 0 l0 37 l79 0 q-10 32 -23.5 58.5 q-13.5 26.5 -26 54 q-12.5 27.5 -21.5 60.5 q-9 33 -9 78 q0 38 8 70.5 q8 32.5 26 56.5 q18 24 46.5 37.5 q28.5 13.5 69.5 13.5 Z" /><glyph glyph-name="uni20B9" unicode="&#x20b9;" d="M205 663 q41 -18 58.5 -56.5 q17.5 -38.5 18.5 -81.5 l63 0 l0 -37 l-63 0 q-2 -34 -13 -62.5 q-11 -28.5 -32 -49.5 q-21 -21 -51.5 -32.5 q-30.5 -11.5 -70.5 -11.5 l-29 0 l250 -332 l-50 0 l-251 333 l0 36 l70 0 q69 0 99.5 32.5 q30.5 32.5 32.5 86.5 l-199 0 l0 37 l199 0 q0 62 -33 100 q-33 38 -99 38 l-67 0 l0 37 l307 0 l0 -37 l-140 0 Z" /><glyph glyph-name="yen" unicode="¥" d="M238 248 l0 -73 l109 0 l0 -26 l-109 0 l0 -149 l-46 0 l0 149 l-108 0 l0 26 l108 0 l0 73 l-108 0 l0 26 l104 0 l-160 426 l49 0 l140 -374 l141 374 l44 0 l-161 -426 l106 0 l0 -26 l-109 0 Z" /><glyph glyph-name="approxequal" unicode="&#x2248;" d="M124 479 q22 0 42.5 -9.5 q20.5 -9.5 39.5 -21.5 q19 -12 37.5 -22 q18.5 -10 37.5 -9 q20 1 34.5 16 q14.5 15 28.5 38 l24 -22 q-20 -33 -40 -50 q-20 -17 -47 -18 q-21 -1 -41 9 q-20 10 -39 21.5 q-19 11.5 -38 21.5 q-19 10 -39 9 q-23 0 -39 -14.5 q-16 -14.5 -32 -38.5 l-25 21 q23 34 45 51 q22 17 51 18 ZM124 318 q22 0 42.5 -9.5 q20.5 -9.5 39.5 -21.5 q19 -12 37.5 -22 q18.5 -10 37.5 -9 q20 1 34.5 16 q14.5 15 28.5 38 l24 -22 q-20 -32 -40 -49.5 q-20 -17.5 -47 -18.5 q-21 -1 -41 8.5 q-20 9.5 -39 21.5 q-19 12 -38 22 q-19 10 -39 10 q-23 -1 -39 -15 q-16 -14 -32 -39 l-25 21 q23 34 45 51 q22 17 51 18 Z" /><glyph glyph-name="asciitilde" unicode="~" d="M124 398 q22 1 42.5 -9 q20.5 -10 39.5 -21.5 q19 -11.5 37.5 -21.5 q18.5 -10 36.5 -9 q21 1 35 16 q14 15 29 38 l24 -23 q-20 -32 -40.5 -49 q-20.5 -17 -46.5 -19 q-22 -1 -42 9 q-20 10 -39 22 q-19 12 -38 21.5 q-19 9.5 -39 9.5 q-23 0 -39 -14 q-16 -14 -32 -40 l-24 21 q22 35 44.5 52 q22.5 17 51.5 17 Z" /><glyph glyph-name="divide" unicode="÷" d="M174 499 l0 -88 l-44 0 l0 88 l44 0 ZM271 367 l0 -34 l-236 0 l0 34 l236 0 ZM174 289 l0 -88 l-44 0 l0 88 l44 0 Z" /><glyph glyph-name="equal" unicode="=" d="M267 442 l0 -34 l-229 0 l0 34 l229 0 ZM267 320 l0 -34 l-229 0 l0 34 l229 0 Z" /><glyph glyph-name="greater" unicode="&gt;" d="M40 235 l250 115 l-250 115 l0 36 l294 -134 l0 -34 l-294 -134 l0 36 Z" /><glyph glyph-name="infinity" unicode="&#x221e;" d="M406 481 q57 0 90.5 -29 q33.5 -29 33.5 -86 q0 -58 -33.5 -86.5 q-33.5 -28.5 -90.5 -28.5 l-14 0 q-38 0 -66.5 13.5 q-28.5 13.5 -39.5 46.5 q-13 -34 -42 -47 q-29 -13 -67 -13 l-13 0 q-57 0 -91 28.5 q-34 28.5 -34 86.5 q0 57 34 86 q34 29 91 29 l13 0 q38 0 67 -13.5 q29 -13.5 42 -46.5 q11 33 39.5 46.5 q28.5 13.5 66.5 13.5 l14 0 ZM164 448 q-91 0 -91 -82 q0 -80 91 -82 l17 0 q88 0 88 82 q0 82 -88 82 l-17 0 ZM387 448 q-45 0 -66 -21.5 q-21 -21.5 -21 -60.5 q0 -39 21 -60 q21 -21 66 -22 l17 0 q43 0 67.5 20.5 q24.5 20.5 24.5 61.5 q0 41 -24.5 61.5 q-24.5 20.5 -67.5 20.5 l-17 0 Z" /><glyph glyph-name="less" unicode="&lt;" d="M330 199 l-294 134 l0 34 l294 134 l0 -36 l-249 -115 l249 -115 l0 -36 Z" /><glyph glyph-name="logicalnot" unicode="¬" d="M35 333 l0 34 l310 0 l0 -168 l-34 0 l0 134 l-276 0 Z" /><glyph glyph-name="minus" unicode="&#x2212;" d="M354 367 l0 -34 l-319 0 l0 34 l319 0 Z" /><glyph glyph-name="multiply" unicode="×" d="M274 220 l-105 106 l-106 -106 l-24 24 l106 105 l-105 105 l23 24 l106 -105 l105 105 l23 -23 l-105 -106 l105 -105 l-23 -24 Z" /><glyph glyph-name="percent" unicode="%" d="M132 702 q51 0 73 -32.5 q22 -32.5 22 -80.5 l0 -213 q0 -48 -22 -80.5 q-22 -32.5 -73 -32.5 q-25 0 -43 9 q-18 9 -29 24 q-11 15 -16.5 35.5 q-5.5 20.5 -5.5 44.5 l0 213 q0 24 5.5 44.5 q5.5 20.5 16.5 35.5 q11 15 29 24 q18 9 43 9 ZM454 701 l-276 -701 l-30 0 l276 701 l30 0 ZM132 673 q-36 0 -49.5 -24.5 q-13.5 -24.5 -13.5 -58.5 l0 -216 q0 -33 13.5 -57.5 q13.5 -24.5 49.5 -24.5 q35 0 49 24.5 q14 24.5 14 57.5 l0 216 q0 34 -14 58.5 q-14 24.5 -49 24.5 ZM473 436 q25 0 43 -9 q18 -9 29.5 -24.5 q11.5 -15.5 16.5 -36 q5 -20.5 5 -44.5 l0 -210 q0 -24 -5 -44.5 q-5 -20.5 -16.5 -36 q-11.5 -15.5 -29.5 -24.5 q-18 -9 -43 -9 q-26 0 -44 9 q-18 9 -29 24.5 q-11 15.5 -16.5 36 q-5.5 20.5 -5.5 44.5 l0 210 q0 24 5.5 44.5 q5.5 20.5 16.5 36 q11 15.5 29 24.5 q18 9 44 9 ZM473 406 q-35 0 -49 -24 q-14 -24 -14 -58 l0 -214 q0 -33 14 -58 q14 -25 49 -25 q36 0 49.5 25 q13.5 25 13.5 58 l0 214 q0 34 -13.5 58 q-13.5 24 -49.5 24 Z" /><glyph glyph-name="perthousand" unicode="&#x2030;" d="M132 702 q51 0 73 -32.5 q22 -32.5 22 -80.5 l0 -213 q0 -48 -22 -80.5 q-22 -32.5 -73 -32.5 q-25 0 -43 9 q-18 9 -29 24 q-11 15 -16.5 35.5 q-5.5 20.5 -5.5 44.5 l0 213 q0 24 5.5 44.5 q5.5 20.5 16.5 35.5 q11 15 29 24 q18 9 43 9 ZM454 701 l-276 -701 l-30 0 l276 701 l30 0 ZM132 673 q-36 0 -49.5 -24.5 q-13.5 -24.5 -13.5 -58.5 l0 -216 q0 -33 13.5 -57.5 q13.5 -24.5 49.5 -24.5 q35 0 49 24.5 q14 24.5 14 57.5 l0 216 q0 34 -14 58.5 q-14 24.5 -49 24.5 ZM473 436 q25 0 43 -9 q18 -9 29.5 -24.5 q11.5 -15.5 16.5 -36 q5 -20.5 5 -44.5 l0 -210 q0 -24 -5 -44.5 q-5 -20.5 -16.5 -36 q-11.5 -15.5 -29.5 -24.5 q-18 -9 -43 -9 q-26 0 -44 9 q-18 9 -29 24.5 q-11 15.5 -16.5 36 q-5.5 20.5 -5.5 44.5 l0 210 q0 24 5.5 44.5 q5.5 20.5 16.5 36 q11 15.5 29 24.5 q18 9 44 9 ZM720 436 q25 0 43 -9 q18 -9 29.5 -24.5 q11.5 -15.5 16.5 -36 q5 -20.5 5 -44.5 l0 -210 q0 -24 -5 -44.5 q-5 -20.5 -16.5 -36 q-11.5 -15.5 -29.5 -24.5 q-18 -9 -43 -9 q-26 0 -44 9 q-18 9 -29 24.5 q-11 15.5 -16.5 36 q-5.5 20.5 -5.5 44.5 l0 210 q0 24 5.5 44.5 q5.5 20.5 16.5 36 q11 15.5 29 24.5 q18 9 44 9 ZM473 406 q-35 0 -49 -24 q-14 -24 -14 -58 l0 -214 q0 -33 14 -58 q14 -25 49 -25 q36 0 49.5 25 q13.5 25 13.5 58 l0 214 q0 34 -13.5 58 q-13.5 24 -49.5 24 ZM720 406 q-35 0 -49 -24 q-14 -24 -14 -58 l0 -214 q0 -33 14 -58 q14 -25 49 -25 q36 0 49.5 25 q13.5 25 13.5 58 l0 214 q0 34 -13.5 58 q-13.5 24 -49.5 24 Z" /><glyph glyph-name="plus" unicode="+" d="M211 333 l0 -146 l-34 0 l0 146 l-142 0 l0 34 l142 0 l0 144 l34 0 l0 -144 l143 0 l0 -34 l-143 0 Z" /><glyph glyph-name="plusminus" unicode="±" d="M177 222 l0 118 l-139 0 l0 35 l139 0 l0 136 l34 0 l0 -136 l139 0 l0 -35 l-139 0 l0 -118 l139 0 l0 -35 l-312 0 l0 35 l139 0 Z" /><glyph glyph-name="uni00B5" unicode="µ" d="M307 91 q-13 -44 -42.5 -69.5 q-29.5 -25.5 -73.5 -25.5 q-41 0 -65 21.5 q-24 21.5 -33 54.5 l1 -164 l-46 0 l0 592 l46 0 l0 -329 q0 -57 24 -94.5 q24 -37.5 80 -37.5 q56 0 80.5 37.5 q24.5 37.5 24.5 94.5 l0 329 l46 0 l0 -500 l-42 0 l0 91 Z" /><glyph glyph-name="ampersand" unicode="&amp;" d="M208 658 q-122 0 -122 -130 l0 -28 q0 -48 25 -80 q25 -32 71 -34 l108 0 l0 78 l46 0 l0 -78 l38 0 l0 -42 l-38 0 l0 -252 q0 -26 2 -48 q2 -22 16 -44 l-48 0 q-8 15 -11.5 30.5 q-3.5 15.5 -3.5 36.5 q-16 -37 -47 -55 q-31 -18 -71 -18 q-69 0 -101 45 q-32 45 -32 117 l0 66 q0 50 22 89.5 q22 39.5 70 55.5 q-48 14 -70 52.5 q-22 38.5 -22 89.5 l0 17 q0 85 41.5 129.5 q41.5 44.5 126.5 44.5 l99 0 l0 -42 l-99 0 ZM188 344 q-50 -3 -76 -35.5 q-26 -32.5 -26 -85.5 l0 -64 q0 -55 24.5 -89 q24.5 -34 78.5 -34 q44 0 72 25.5 q28 25.5 29 72.5 l0 210 l-102 0 Z" /><glyph glyph-name="asciicircum" unicode="^" d="M72 391 l-39 0 l154 309 l35 0 l154 -309 l-39 0 l-133 266 l-132 -266 Z" /><glyph glyph-name="at" unicode="@" d="M390 730 q71 0 121.5 -20.5 q50.5 -20.5 82.5 -58 q32 -37.5 47 -89.5 q15 -52 15 -115 q0 -57 -11.5 -111.5 q-11.5 -54.5 -33 -97 q-21.5 -42.5 -53.5 -69 q-32 -26.5 -73 -26.5 q-34 0 -50.5 19.5 q-16.5 19.5 -18.5 50.5 q-15 -36 -42 -56.5 q-27 -20.5 -66 -19.5 q-30 0 -50 12.5 q-20 12.5 -31 33.5 q-11 21 -14 49 q-3 28 0 58 l10 99 q3 31 12.5 57.5 q9.5 26.5 25 46 q15.5 19.5 37.5 30 q22 10.5 51 10.5 q73 -2 91 -71 l7 66 l41 0 l-30 -286 q-2 -21 5.5 -40.5 q7.5 -19.5 32.5 -19.5 q37 0 61 28 q24 28 38 68.5 q14 40.5 19.5 86 q5.5 45.5 5.5 81.5 q0 57 -13.5 102.5 q-13.5 45.5 -42 78 q-28.5 32.5 -72.5 49.5 q-44 17 -104 17 q-83 0 -142.5 -33 q-59.5 -33 -97.5 -89.5 q-38 -56.5 -56 -130.5 q-18 -74 -18 -156 q0 -140 66 -217 q66 -77 207 -77 q50 0 97.5 13 q47.5 13 89.5 45 l-3 -42 q-43 -29 -89 -41 q-46 -12 -97 -12 q-81 0 -139.5 23 q-58.5 23 -96.5 66 q-38 43 -56.5 105 q-18.5 62 -18.5 139 q0 86 20.5 166.5 q20.5 80.5 64 142 q43.5 61.5 110.5 98.5 q67 37 161 37 ZM360 492 q-46 0 -69 -31 q-23 -31 -28 -77 l-9 -94 q-2 -22 0 -42.5 q2 -20.5 10 -36 q8 -15.5 23 -25 q15 -9.5 39 -9.5 q23 0 40 9 q17 9 29 24.5 q12 15.5 18.5 36 q6.5 20.5 8.5 43.5 l11 97 q2 21 -0.5 40 q-2.5 19 -11 33.5 q-8.5 14.5 -24 23 q-15.5 8.5 -37.5 8.5 Z" /><glyph glyph-name="bar" unicode="|" d="M146 724 l0 -747 l-38 0 l0 747 l38 0 Z" /><glyph glyph-name="brokenbar" unicode="¦" d="M108 723 l39 0 l0 -314 l-39 0 l0 314 ZM108 291 l39 0 l0 -314 l-39 0 l0 314 Z" /><glyph glyph-name="copyright" unicode="©" d="M374 700 q74 0 136.5 -26.5 q62.5 -26.5 108 -73.5 q45.5 -47 71 -111 q25.5 -64 25.5 -139 q0 -75 -25.5 -139 q-25.5 -64 -71 -111 q-45.5 -47 -108 -73.5 q-62.5 -26.5 -136.5 -26.5 q-74 0 -136.5 26.5 q-62.5 26.5 -108 73.5 q-45.5 47 -71 111 q-25.5 64 -25.5 139 q0 75 25.5 139 q25.5 64 71 111 q45.5 47 108 73.5 q62.5 26.5 136.5 26.5 ZM374 669 q-68 0 -124.5 -24.5 q-56.5 -24.5 -97.5 -67 q-41 -42.5 -64 -101 q-23 -58.5 -23 -126.5 q0 -68 23 -126.5 q23 -58.5 64 -101 q41 -42.5 97.5 -67 q56.5 -24.5 124.5 -24.5 q67 0 124 24.5 q57 24.5 97.5 67 q40.5 42.5 63.5 101 q23 58.5 23 126.5 q0 68 -23 126.5 q-23 58.5 -63.5 101 q-40.5 42.5 -97.5 67 q-57 24.5 -124 24.5 ZM370 569 q55 0 79.5 -34.5 q24.5 -34.5 24.5 -88.5 l0 -24 l-32 0 l0 26 q0 38 -16 64 q-16 26 -56 26 q-39 0 -55.5 -26 q-16.5 -26 -16.5 -64 l0 -196 q0 -38 16.5 -64 q16.5 -26 55.5 -26 q40 0 56 26 q16 26 16 64 l0 37 l32 0 l0 -36 q0 -53 -24.5 -88 q-24.5 -35 -79.5 -35 q-56 0 -81 35 q-25 35 -25 88 l0 193 q0 53 25 88 q25 35 81 35 Z" /><glyph glyph-name="dagger" unicode="&#x2020;" d="M216 501 l142 0 l0 -37 l-142 0 l0 -529 l-39 0 l0 529 l-142 0 l0 37 l142 0 l0 199 l39 0 l0 -199 Z" /><glyph glyph-name="daggerdbl" unicode="&#x2021;" d="M216 501 l142 0 l0 -37 l-142 0 l0 -291 l142 0 l0 -38 l-142 0 l0 -200 l-39 0 l0 200 l-142 0 l0 38 l142 0 l0 291 l-142 0 l0 37 l142 0 l0 199 l39 0 l0 -199 Z" /><glyph glyph-name="degree" unicode="°" d="M105 708 q31 0 52.5 -21 q21.5 -21 21.5 -52 q0 -31 -21.5 -52 q-21.5 -21 -52.5 -21 q-31 0 -52.5 21 q-21.5 21 -21.5 52 q0 31 21.5 52 q21.5 21 52.5 21 ZM105 684 q-21 0 -35.5 -14 q-14.5 -14 -14.5 -35 q0 -21 14.5 -35 q14.5 -14 35.5 -14 q20 0 35 14 q15 14 15 35 q0 21 -15 35 q-15 14 -35 14 Z" /><glyph glyph-name="paragraph" unicode="¶" d="M185 665 l0 -727 l-35 0 l0 351 q-69 3 -97.5 45.5 q-28.5 42.5 -28.5 120.5 l0 79 q0 38 6.5 68.5 q6.5 30.5 22.5 52 q16 21.5 42.5 33.5 q26.5 12 67.5 12 l182 0 l0 -762 l-35 0 l0 727 l-125 0 Z" /><glyph glyph-name="registered" unicode="®" d="M374 700 q74 0 136.5 -26.5 q62.5 -26.5 108 -73.5 q45.5 -47 71 -111 q25.5 -64 25.5 -139 q0 -75 -25.5 -139 q-25.5 -64 -71 -111 q-45.5 -47 -108 -73.5 q-62.5 -26.5 -136.5 -26.5 q-74 0 -136.5 26.5 q-62.5 26.5 -108 73.5 q-45.5 47 -71 111 q-25.5 64 -25.5 139 q0 75 25.5 139 q25.5 64 71 111 q45.5 47 108 73.5 q62.5 26.5 136.5 26.5 ZM374 669 q-68 0 -124.5 -24.5 q-56.5 -24.5 -97.5 -67 q-41 -42.5 -64 -101 q-23 -58.5 -23 -126.5 q0 -68 23 -126.5 q23 -58.5 64 -101 q41 -42.5 97.5 -67 q56.5 -24.5 124.5 -24.5 q67 0 124 24.5 q57 24.5 97.5 67 q40.5 42.5 63.5 101 q23 58.5 23 126.5 q0 68 -23 126.5 q-23 58.5 -63.5 101 q-40.5 42.5 -97.5 67 q-57 24.5 -124 24.5 ZM378 564 q56 0 80.5 -29 q24.5 -29 24.5 -82 l0 -13 q0 -38 -14.5 -64 q-14.5 -26 -49.5 -37 q35 -11 49.5 -36 q14.5 -25 14.5 -63 l0 -46 q0 -14 2 -30.5 q2 -16.5 10 -27.5 l-35 0 q-7 12 -9 25.5 q-2 13.5 -2 33.5 l0 46 q0 49 -25.5 65 q-25.5 16 -66.5 16 l-48 0 l0 -186 l-34 0 l0 428 l103 0 ZM366 354 q42 0 62.5 17.5 q20.5 17.5 20.5 62.5 l0 15 q0 40 -16 61.5 q-16 21.5 -57 21.5 l-67 0 l0 -178 l57 0 Z" /><glyph glyph-name="section" unicode="§" d="M191 706 q64 -1 105 -35 q41 -34 41 -93 l0 -19 l-44 0 l0 13 q0 45 -29.5 69.5 q-29.5 24.5 -71.5 25.5 q-42 0 -73.5 -20.5 q-31.5 -20.5 -33.5 -66.5 q-1 -30 18 -49.5 q19 -19.5 47 -34.5 q28 -15 61 -29 q33 -14 61.5 -33.5 q28.5 -19.5 47.5 -47 q19 -27.5 19 -70.5 q0 -48 -27.5 -81 q-27.5 -33 -69.5 -52 q20 -10 38 -21.5 q18 -11.5 31.5 -26.5 q13.5 -15 21 -35 q7.5 -20 7.5 -46 q-1 -28 -13 -50.5 q-12 -22.5 -32.5 -38 q-20.5 -15.5 -47.5 -24 q-27 -8.5 -57 -8.5 q-33 0 -60.5 8.5 q-27.5 8.5 -47.5 25 q-20 16.5 -31.5 40 q-11.5 23.5 -11.5 54.5 l0 33 l43 0 l0 -28 q0 -23 8.5 -40.5 q8.5 -17.5 23.5 -29.5 q15 -12 34.5 -18 q19.5 -6 40.5 -6 q19 0 37.5 5 q18.5 5 33.5 15.5 q15 10.5 24 26.5 q9 16 10 37 q1 31 -17.5 51 q-18.5 20 -47 35 q-28.5 15 -61.5 28.5 q-33 13.5 -61.5 32.5 q-28.5 19 -47.5 46.5 q-19 27.5 -19 70.5 q0 49 31.5 82 q31.5 33 74.5 48 q-21 10 -40.5 22 q-19.5 12 -34.5 27.5 q-15 15.5 -23.5 35.5 q-8.5 20 -8.5 47 q1 30 13 53 q12 23 32.5 39 q20.5 16 47.5 24 q27 8 59 8 ZM189 430 q-20 -3 -39 -12 q-19 -9 -33.5 -23 q-14.5 -14 -23.5 -32.5 q-9 -18.5 -9 -40.5 q0 -26 11 -44 q11 -18 28 -32 q17 -14 38 -24 q21 -10 41 -19 q38 11 65.5 39 q27.5 28 27.5 72 q0 23 -9 40.5 q-9 17.5 -24 31 q-15 13.5 -34 24.5 q-19 11 -39 20 Z" /><glyph glyph-name="trademark" unicode="&#x2122;" d="M104 344 l0 327 l-90 0 l0 29 l211 0 l0 -29 l-89 0 l0 -327 l-32 0 ZM424 348 l-31 0 l-92 303 l0 -307 l-29 0 l0 356 l44 0 l93 -304 l92 304 l44 0 l0 -356 l-30 0 l0 307 l-91 -303 Z" /><glyph glyph-name="uni2117" unicode="&#x2117;" d="M374 701 q74 0 136.5 -26.5 q62.5 -26.5 108 -73.5 q45.5 -47 71 -111 q25.5 -64 25.5 -139 q0 -75 -25.5 -139 q-25.5 -64 -71 -111.5 q-45.5 -47.5 -108 -74 q-62.5 -26.5 -136.5 -26.5 q-74 0 -136.5 26.5 q-62.5 26.5 -108 74 q-45.5 47.5 -71 111.5 q-25.5 64 -25.5 139 q0 75 25.5 139 q25.5 64 71 111 q45.5 47 108 73.5 q62.5 26.5 136.5 26.5 ZM374 669 q-68 0 -124.5 -24 q-56.5 -24 -97.5 -67 q-41 -43 -64 -101 q-23 -58 -23 -126 q0 -68 23 -126.5 q23 -58.5 64 -101.5 q41 -43 97.5 -67.5 q56.5 -24.5 124.5 -24.5 q67 0 124 24.5 q57 24.5 97.5 67.5 q40.5 43 63.5 101.5 q23 58.5 23 126.5 q0 68 -23 126 q-23 58 -63.5 101 q-40.5 43 -97.5 67 q-57 24 -124 24 ZM395 556 q57 0 80.5 -31.5 q23.5 -31.5 23.5 -84.5 l0 -35 q0 -57 -26.5 -85 q-26.5 -28 -85.5 -28 l-61 0 l0 -164 l-34 0 l0 428 l103 0 ZM385 323 q43 0 61.5 20 q18.5 20 18.5 65 l0 29 q0 39 -15 63 q-15 24 -57 24 l-67 0 l0 -201 l59 0 Z" /><glyph glyph-name="acute" unicode="´" d="M154 848 l-84 -95 l-35 0 l72 95 l47 0 Z" /><glyph glyph-name="breve" unicode="&#x2d8;" d="M224 821 q-1 -42 -28 -65 q-27 -23 -69 -23 q-42 0 -69 23 q-27 23 -28 65 l30 0 q2 -30 21.5 -43.5 q19.5 -13.5 45.5 -13.5 q26 0 45.5 13.5 q19.5 13.5 21.5 43.5 l30 0 Z" /><glyph glyph-name="caron" unicode="&#x2c7;" d="M64 848 l61 -64 l61 64 l43 0 l-84 -90 l-40 0 l-84 90 l43 0 Z" /><glyph glyph-name="cedilla" unicode="¸" d="M137 -39 q32 -1 53.5 -11 q21.5 -10 21.5 -40 q0 -18 -7.5 -29.5 q-7.5 -11.5 -20 -18.5 q-12.5 -7 -28.5 -9.5 q-16 -2.5 -33 -2.5 q-16 0 -32 3 q-16 3 -28.5 10 q-12.5 7 -20 18 q-7.5 11 -7.5 28 l0 6 l33 0 l0 -5 q0 -22 18.5 -30.5 q18.5 -8.5 36.5 -9.5 q20 0 37.5 9 q17.5 9 17.5 32 q0 24 -17.5 31 q-17.5 7 -39.5 7 l-7 0 l0 56 l23 0 l0 -44 Z" /><glyph glyph-name="circumflex" unicode="&#x2c6;" d="M64 758 l-43 0 l84 90 l40 0 l84 -90 l-43 0 l-61 63 l-61 -63 Z" /><glyph glyph-name="dieresis" unicode="¨" d="M68 830 l54 0 l0 -85 l-54 0 l0 85 Z" /><glyph glyph-name="dotaccent" unicode="&#x2d9;" d="M94 833 l0 -84 l-41 0 l0 84 l41 0 Z" /><glyph glyph-name="grave" unicode="`" d="M91 848 l71 -95 l-36 0 l-85 95 l50 0 Z" /><glyph glyph-name="hungarumlaut" unicode="&#x2dd;" d="M126 848 l-77 -95 l-32 0 l64 95 l45 0 ZM211 848 l-77 -95 l-32 0 l64 95 l45 0 Z" /><glyph glyph-name="macron" unicode="¯" d="M223 781 l0 -34 l-194 0 l0 34 l194 0 Z" /><glyph glyph-name="ogonek" unicode="&#x2db;" d="M124 1 q-20 -15 -33 -38.5 q-13 -23.5 -12 -42.5 q1 -17 12.5 -24.5 q11.5 -7.5 27.5 -7.5 q25 0 43 13 l0 -28 q-25 -13 -56 -13 q-26 1 -44 13 q-18 12 -19 38 q-2 24 15 48.5 q17 24.5 41 41.5 l25 0 Z" /><glyph glyph-name="ring" unicode="&#x2da;" d="M109 880 q28 0 47.5 -19 q19.5 -19 19.5 -47 q0 -29 -19.5 -48 q-19.5 -19 -47.5 -19 q-28 0 -47.5 19 q-19.5 19 -19.5 48 q0 28 19.5 47 q19.5 19 47.5 19 ZM109 856 q-18 0 -30.5 -12 q-12.5 -12 -12.5 -30 q0 -19 12.5 -30.5 q12.5 -11.5 30.5 -11.5 q17 0 30 11.5 q13 11.5 13 30.5 q0 18 -13 30 q-13 12 -30 12 Z" /><glyph glyph-name="tilde" unicode="&#x2dc;" d="M240 799 q-20 -47 -58 -48 q-14 0 -26 5 q-12 5 -23 11.5 q-11 6.5 -21.5 11.5 q-10.5 5 -22.5 5 q-26 0 -42 -30 l-25 17 q22 47 63 47 q14 0 26 -5 q12 -5 23.5 -11.5 q11.5 -6.5 22 -11.5 q10.5 -5 21.5 -5 q13 0 21.5 8.5 q8.5 8.5 15.5 21.5 l25 -16 Z" /><glyph glyph-name="commaaccentcomb" unicode="&#xf6c3;" d="M76 -176 l-18 0 l19 59 l-13 0 l0 83 l39 0 l0 -79 l-27 -63 Z" /><glyph glyph-name="uni02BC" unicode="&#x2bc;" d="M65 536 l-20 0 l20 76 l-15 0 l0 88 l44 0 l0 -84 l-29 -80 Z" /><glyph glyph-name="A" unicode="a" d="M107 155 l-35 -155 l-42 0 l153 701 l67 0 l156 -701 l-46 0 l-35 155 l-218 0 ZM114 195 l204 0 l-103 453 l-101 -453 Z" /><glyph glyph-name="Aacute" unicode="á" d="M290 833 l-84 -95 l-35 0 l71 95 l48 0 ZM107 155 l-35 -155 l-42 0 l153 701 l67 0 l156 -701 l-46 0 l-35 155 l-218 0 ZM114 195 l204 0 l-103 453 l-101 -453 Z" /></font>
</defs>
</svg>
